<svg version="1.1" xmlns="http://www.w3.org/2000/svg" xmlns:xlink="http://www.w3.org/1999/xlink" width="54" height="37" viewBox="0 0 54 37">
<path id="Заливка-цветом-1" d="M40.630,28.513 C39.684,29.463 39.156,30.701 39.156,32.027 C39.156,33.354 39.673,34.591 40.630,35.542 C41.586,36.481 42.829,37.001 44.148,37.001 C46.853,37.001 49.053,34.768 49.053,32.027 C49.053,29.286 46.853,27.054 44.148,27.054 C42.829,27.054 41.575,27.573 40.630,28.513 zM41.355,32.027 C41.355,30.524 42.631,29.264 44.148,29.264 C45.644,29.264 46.853,30.502 46.853,32.027 C46.853,33.553 45.644,34.790 44.148,34.790 C42.631,34.790 41.355,33.530 41.355,32.027 zM44.687,10.200 C39.046,10.200 39.046,10.200 39.046,10.200 C38.441,10.200 37.947,10.697 37.947,11.305 C37.947,20.367 37.947,20.367 37.947,20.367 C37.947,20.975 38.441,21.473 39.046,21.473 C47.997,21.473 47.997,21.473 47.997,21.473 C48.602,21.473 49.096,20.975 49.096,20.367 C49.096,14.300 49.096,14.300 49.096,14.300 C49.096,13.991 48.965,13.692 48.734,13.482 C45.424,10.487 45.424,10.487 45.424,10.487 C45.226,10.299 44.962,10.200 44.687,10.200 zM40.146,19.262 L40.146,12.399 L44.258,12.399 L46.897,14.786 L46.897,19.262 L40.146,19.262 zM13.778,28.513 C12.832,29.463 12.304,30.701 12.304,32.027 C12.304,33.354 12.821,34.591 13.778,35.542 C14.734,36.481 15.977,37.001 17.296,37.001 C20.001,37.001 22.201,34.768 22.201,32.027 C22.201,29.286 20.001,27.054 17.296,27.054 C15.977,27.054 14.723,27.573 13.778,28.513 zM14.504,32.027 C14.504,30.524 15.779,29.264 17.296,29.264 C18.792,29.264 20.001,30.502 20.001,32.027 C20.001,33.553 18.792,34.790 17.296,34.790 C15.779,34.790 14.504,33.530 14.504,32.027 zM7.752,28.413 C7.752,28.413 7.752,25.474 7.752,25.474 C7.752,24.865 7.257,24.368 6.652,24.368 C6.048,24.368 5.553,24.865 5.553,25.474 C5.553,29.518 5.553,29.518 5.553,29.518 C5.553,30.126 6.048,30.624 6.652,30.624 C9.962,30.624 9.962,30.624 9.962,30.624 C10.567,30.624 11.062,30.126 11.062,29.518 C11.062,28.910 10.567,28.413 9.962,28.413 C9.962,28.413 7.752,28.413 7.752,28.413 zM14.437,21.285 C1.100,21.285 1.100,21.285 1.100,21.285 C0.495,21.285 -0.000,21.782 -0.000,22.390 C-0.000,22.998 0.495,23.495 1.100,23.495 C14.437,23.495 14.437,23.495 14.437,23.495 C15.042,23.495 15.537,23.009 15.537,22.390 C15.537,21.782 15.042,21.285 14.437,21.285 zM16.670,18.477 C17.274,18.477 17.769,17.991 17.780,17.383 C17.791,16.764 17.296,16.267 16.692,16.267 C3.354,16.190 3.354,16.190 3.354,16.190 C3.343,16.190 3.343,16.190 3.343,16.190 C2.738,16.190 2.243,16.676 2.243,17.284 C2.232,17.903 2.727,18.400 3.332,18.400 C3.332,18.400 16.670,18.477 16.670,18.477 zM18.913,13.382 C19.518,13.382 20.012,12.885 20.012,12.278 C20.012,11.669 19.518,11.172 18.913,11.172 C5.575,11.172 5.575,11.172 5.575,11.172 C4.970,11.172 4.475,11.669 4.475,12.278 C4.475,12.885 4.970,13.382 5.575,13.382 C5.575,13.382 18.913,13.382 18.913,13.382 zM53.594,11.891 C53.594,11.891 45.721,5.337 45.721,5.337 C45.523,5.171 45.281,5.082 45.017,5.082 C35.759,5.082 35.759,5.082 35.759,5.082 C35.759,5.082 35.759,1.104 35.759,1.104 C35.759,0.496 35.264,-0.001 34.659,-0.001 C6.652,-0.001 6.652,-0.001 6.652,-0.001 C6.048,-0.001 5.553,0.496 5.553,1.104 C5.553,9.194 5.553,9.194 5.553,9.194 C5.553,9.802 6.048,10.299 6.652,10.299 C7.257,10.299 7.752,9.802 7.752,9.194 C7.752,2.209 7.752,2.209 7.752,2.209 L33.570,2.209 L33.570,28.413 C33.570,28.413 24.554,28.413 24.554,28.413 C23.949,28.413 23.454,28.910 23.454,29.518 C23.454,30.126 23.949,30.624 24.554,30.624 C37.980,30.624 37.980,30.624 37.980,30.624 C38.584,30.624 39.079,30.126 39.079,29.518 C39.079,28.910 38.584,28.413 37.980,28.413 C35.770,28.413 35.770,28.413 35.770,28.413 L35.770,7.293 L44.632,7.293 L51.801,13.261 L51.725,28.391 C51.725,28.391 50.581,28.391 50.581,28.391 C49.976,28.391 49.481,28.888 49.481,29.497 C49.481,30.104 49.976,30.601 50.581,30.601 C52.813,30.601 52.813,30.601 52.813,30.601 C53.418,30.601 53.913,30.115 53.913,29.508 C54.001,12.753 54.001,12.753 54.001,12.753 C53.990,12.421 53.847,12.100 53.594,11.891 C53.594,11.891 53.594,11.891 53.594,11.891 z" fill="#935E43" />
</svg>
