<svg version="1.1" xmlns="http://www.w3.org/2000/svg" xmlns:xlink="http://www.w3.org/1999/xlink" width="48" height="38" viewBox="0 0 48 38">
<path id="Заливка-цветом-4" d="M45.875,8.968 C45.875,8.968 45.414,8.968 45.414,8.968 C45.414,8.968 45.414,8.968 45.414,35.883 C45.414,37.049 44.461,37.998 43.289,37.998 C43.289,37.998 43.289,37.998 4.711,37.998 C3.539,37.998 2.586,37.049 2.586,35.883 C2.586,35.883 2.586,8.968 2.586,8.968 C2.586,8.968 2.586,8.968 2.125,8.968 C0.953,8.968 -0.000,8.019 -0.000,6.853 C-0.000,6.853 -0.000,6.853 -0.000,2.116 C-0.000,0.949 0.953,0.001 2.125,0.001 C2.125,0.001 45.875,0.001 45.875,0.001 C47.047,0.001 48.000,0.949 48.000,2.116 C48.000,2.116 48.000,2.116 48.000,6.853 C48.000,8.019 47.047,8.968 45.875,8.968 zM4.711,35.883 C4.711,35.883 43.289,35.883 43.289,35.883 C43.290,35.883 43.290,35.883 43.290,35.883 C43.290,35.883 43.289,8.968 43.289,8.968 L4.711,8.968 L4.711,35.883 zM45.875,2.116 L2.125,2.116 L2.125,6.853 L3.648,6.853 L44.351,6.853 C44.351,6.853 45.875,6.853 45.875,6.853 C45.876,6.853 45.876,6.853 45.876,6.852 C45.876,6.852 45.875,2.116 45.875,2.116 zM17.869,14.061 C17.869,14.061 17.869,14.061 8.627,14.061 C8.098,14.061 7.670,13.635 7.670,13.110 C7.670,12.584 8.098,12.157 8.627,12.157 C8.627,12.157 17.869,12.157 17.869,12.157 C18.397,12.157 18.825,12.584 18.825,13.110 C18.825,13.635 18.397,14.061 17.869,14.061 zM8.627,16.322 C8.627,16.322 13.248,16.322 13.248,16.322 C13.776,16.322 14.204,16.748 14.204,17.273 C14.204,17.799 13.776,18.225 13.248,18.225 C13.248,18.225 13.248,18.225 8.627,18.225 C8.098,18.225 7.670,17.799 7.670,17.273 C7.670,16.748 8.098,16.322 8.627,16.322 z" fill="#935E43" />
</svg>
