<svg version="1.1" xmlns="http://www.w3.org/2000/svg" xmlns:xlink="http://www.w3.org/1999/xlink" width="44" height="40" viewBox="0 0 44 40">
<path id="Заливка-цветом-1" d="M40.736,31.860 C40.736,31.851 40.741,31.844 40.741,31.836 C40.741,8.163 40.741,8.163 40.741,8.163 C40.741,8.154 40.736,8.147 40.736,8.138 C41.449,7.620 42.018,6.902 42.286,6.096 C43.958,1.074 43.958,1.074 43.958,1.074 C44.041,0.825 43.999,0.550 43.846,0.338 C43.693,0.125 43.447,-0.000 43.185,-0.000 C17.926,-0.000 17.926,-0.000 17.926,-0.000 C17.664,-0.000 17.418,0.125 17.264,0.338 C17.111,0.551 17.069,0.826 17.153,1.074 C18.823,6.096 18.823,6.096 18.823,6.096 C19.091,6.901 19.661,7.620 20.374,8.138 C20.374,8.146 20.369,8.154 20.369,8.162 C20.369,19.590 20.369,19.590 20.369,19.590 L14.666,19.590 L7.308,19.590 C7.308,19.590 5.293,19.590 5.293,19.590 C2.374,19.591 -0.000,21.972 -0.000,24.897 C-0.000,27.823 2.374,30.203 5.293,30.203 C9.778,30.203 9.778,30.203 9.778,30.203 C10.901,30.203 11.815,31.120 11.815,32.246 C11.815,33.373 10.901,34.289 9.778,34.289 C9.327,34.289 8.963,34.654 8.963,35.106 C8.963,35.557 9.327,35.922 9.778,35.922 C11.799,35.922 13.444,34.273 13.444,32.246 C13.444,30.220 11.799,28.570 9.778,28.570 C5.293,28.570 5.293,28.570 5.293,28.570 C3.273,28.570 1.630,26.923 1.630,24.897 C1.630,22.872 3.273,21.224 5.293,21.224 C7.308,21.224 7.308,21.224 7.308,21.224 L14.667,21.224 L20.370,21.224 C20.370,21.224 20.370,31.836 20.370,31.836 C20.370,31.845 20.375,31.851 20.375,31.860 C19.662,32.379 19.093,33.097 18.825,33.903 C17.153,38.925 17.153,38.925 17.153,38.925 C17.069,39.174 17.112,39.448 17.265,39.661 C17.418,39.874 17.664,39.999 17.926,39.999 C43.185,39.999 43.185,39.999 43.185,39.999 C43.447,39.999 43.693,39.874 43.847,39.661 C44.000,39.448 44.041,39.173 43.958,38.925 C42.287,33.902 42.287,33.902 42.287,33.902 C42.019,33.096 41.450,32.378 40.736,31.860 zM23.773,23.358 C31.337,23.358 36.773,21.013 39.111,19.780 C39.111,22.082 39.111,22.082 39.111,22.082 C37.565,22.982 31.167,26.294 22.000,25.841 C22.000,23.310 22.000,23.310 22.000,23.310 C22.601,23.339 23.195,23.358 23.773,23.358 zM42.055,1.632 C42.055,1.632 40.742,5.580 40.742,5.580 C40.429,6.520 39.290,7.346 38.304,7.346 C22.807,7.346 22.807,7.346 22.807,7.346 C21.804,7.346 20.688,6.537 20.369,5.580 C19.057,1.632 19.057,1.632 19.057,1.632 L42.055,1.632 zM39.111,8.979 C39.111,8.979 39.111,14.388 39.111,14.388 C26.512,16.062 22.241,11.742 22.188,11.688 C22.134,11.630 22.066,11.592 22.000,11.553 C22.000,8.979 22.000,8.979 22.000,8.979 L22.807,8.979 L38.304,8.979 L39.111,8.979 zM22.000,13.616 C23.564,14.687 27.084,16.415 33.564,16.415 C35.211,16.415 37.064,16.294 39.111,16.030 C39.111,17.907 39.111,17.907 39.111,17.907 C37.565,18.807 31.167,22.119 22.000,21.666 C22.000,21.224 22.000,21.224 22.000,21.224 L22.000,19.591 C22.000,19.591 22.000,13.616 22.000,13.616 zM22.000,27.482 C22.601,27.512 23.195,27.532 23.773,27.532 C31.337,27.532 36.773,25.186 39.111,23.953 C39.111,31.020 39.111,31.020 39.111,31.020 L38.304,31.020 L22.807,31.020 L22.000,31.020 C22.000,31.020 22.000,27.482 22.000,27.482 zM20.369,34.419 C20.683,33.478 21.822,32.653 22.807,32.653 C38.304,32.653 38.304,32.653 38.304,32.653 C39.306,32.653 40.423,33.461 40.741,34.419 C42.054,38.366 42.054,38.366 42.054,38.366 L19.057,38.366 C19.057,38.366 20.369,34.419 20.369,34.419 z" fill="#935E43" />
</svg>
