<svg version="1.1" xmlns="http://www.w3.org/2000/svg" xmlns:xlink="http://www.w3.org/1999/xlink" width="45" height="40" viewBox="0 0 45 40">
<path id="Заливка-цветом-4" d="M16.438,12.893 C17.188,12.166 18.188,11.762 19.253,11.762 C20.317,11.762 21.308,12.166 22.067,12.893 C22.817,13.619 23.234,14.588 23.234,15.620 C23.234,16.652 22.817,17.621 22.067,18.348 C21.317,19.075 20.317,19.479 19.253,19.479 C18.188,19.479 17.188,19.075 16.438,18.348 C15.689,17.621 15.272,16.652 15.272,15.620 C15.272,14.588 15.689,13.619 16.438,12.893 zM18.012,16.823 C18.346,17.137 18.781,17.316 19.253,17.316 C19.725,17.316 20.160,17.146 20.493,16.823 C20.827,16.500 21.003,16.069 21.003,15.620 C21.003,15.163 20.827,14.741 20.493,14.418 C20.160,14.104 19.725,13.924 19.253,13.924 C18.781,13.924 18.346,14.095 18.012,14.418 C17.688,14.741 17.503,15.163 17.503,15.620 C17.503,16.078 17.679,16.500 18.012,16.823 zM32.325,21.623 C33.871,23.122 33.871,25.571 32.325,27.070 C31.575,27.797 30.575,28.200 29.511,28.200 C28.446,28.200 27.446,27.797 26.696,27.070 C25.150,25.571 25.150,23.122 26.696,21.623 C27.456,20.896 28.446,20.493 29.511,20.493 C30.575,20.493 31.575,20.896 32.325,21.623 zM28.270,25.553 C28.603,25.868 29.039,26.047 29.511,26.047 C29.983,26.047 30.418,25.876 30.751,25.553 C31.436,24.890 31.436,23.813 30.751,23.148 C30.418,22.835 29.983,22.655 29.511,22.655 C29.039,22.655 28.603,22.826 28.270,23.148 C27.585,23.813 27.585,24.890 28.270,25.553 zM17.411,27.779 C17.124,27.779 16.837,27.671 16.624,27.465 C16.188,27.043 16.188,26.361 16.624,25.939 C16.624,25.939 30.270,12.722 30.270,12.722 C30.705,12.300 31.409,12.300 31.844,12.713 C32.279,13.135 32.279,13.817 31.844,14.238 C31.844,14.238 31.844,14.238 18.197,27.465 C17.975,27.671 17.697,27.779 17.411,27.779 zM38.963,34.140 C35.065,37.918 29.881,40.000 24.373,40.000 C18.864,40.000 13.680,37.918 9.782,34.140 C5.884,30.363 3.736,25.338 3.736,19.999 C3.736,19.999 3.736,19.775 3.736,19.775 C3.736,19.775 3.736,19.775 1.903,21.551 C1.468,21.973 0.765,21.973 0.329,21.551 C-0.106,21.130 -0.106,20.448 0.329,20.026 C0.329,20.026 0.329,20.026 4.060,16.410 C4.496,15.988 5.199,15.988 5.634,16.410 C5.634,16.410 5.634,16.410 9.356,20.026 C9.791,20.448 9.791,21.130 9.356,21.551 C9.134,21.758 8.856,21.865 8.569,21.865 C8.282,21.865 7.995,21.758 7.782,21.551 C7.782,21.551 5.949,19.775 5.949,19.775 C5.949,19.775 5.949,19.775 5.949,19.999 C5.949,29.843 14.207,37.847 24.363,37.847 C34.519,37.847 42.777,29.843 42.777,19.999 C42.777,10.156 34.519,2.152 24.363,2.161 C19.355,2.161 14.679,4.072 11.180,7.544 C10.745,7.966 10.041,7.975 9.606,7.563 C9.171,7.141 9.162,6.459 9.588,6.037 C13.504,2.143 18.753,-0.002 24.363,-0.002 C29.872,-0.002 35.056,2.080 38.954,5.858 C42.851,9.635 44.999,14.660 44.999,19.999 C44.999,25.338 42.861,30.363 38.963,34.140 z" fill="#935E43" />
</svg>
