<svg xmlns="http://www.w3.org/2000/svg" width="23" height="24" viewBox="0 0 23 24">
  <metadata><?xpacket begin="﻿" id="W5M0MpCehiHzreSzNTczkc9d"?>
<x:xmpmeta xmlns:x="adobe:ns:meta/" x:xmptk="Adobe XMP Core 5.6-c138 79.159824, 2016/09/14-01:09:01        ">
   <rdf:RDF xmlns:rdf="http://www.w3.org/1999/02/22-rdf-syntax-ns#">
      <rdf:Description rdf:about=""/>
   </rdf:RDF>
</x:xmpmeta>
                                                                                                    
                                                                                                    
                                                                                                    
                                                                                                    
                                                                                                    
                                                                                                    
                                                                                                    
                                                                                                    
                                                                                                    
                                                                                                    
                                                                                                    
                                                                                                    
                                                                                                    
                                                                                                    
                                                                                                    
                                                                                                    
                                                                                                    
                                                                                                    
                                                                                                    
                                                                                                    
                           
<?xpacket end="w"?></metadata>
<defs>
    <style>
      .cls-1 {
        fill: #6f9d39;
        fill-rule: evenodd;
      }
    </style>
  </defs>
  <path id="Заливка_цветом_6" data-name="Заливка цветом 6" class="cls-1" d="M837.175,479a2.2,2.2,0,0,1-2.2-2.192l-1.827-8.546A2.03,2.03,0,0,1,832,466.449a2.064,2.064,0,0,1,2.066-2.058h18.865A2.064,2.064,0,0,1,855,466.449a2.024,2.024,0,0,1-.86,1.655l-1.876,8.842A2.153,2.153,0,0,1,850.075,479h-12.9Zm-3.107-13.259a0.711,0.711,0,0,0-.711.708,0.694,0.694,0,0,0,.543.66,0.676,0.676,0,0,1,.494.515l1.919,9.045a0.9,0.9,0,0,0,.862.981h12.9a0.845,0.845,0,0,0,.847-0.842l1.952-9.268a0.671,0.671,0,0,1,.363-0.467,0.7,0.7,0,0,0,.407-0.624,0.711,0.711,0,0,0-.711-0.708H834.068Zm9.446-9.311a6.488,6.488,0,0,1,6.427,5.55,0.726,0.726,0,1,0,1.452,0,7.937,7.937,0,0,0-15.758,0,0.735,0.735,0,1,0,1.451,0A6.49,6.49,0,0,1,843.514,456.43Z" transform="translate(-832 -455)"/>
</svg>
