<svg xmlns="http://www.w3.org/2000/svg" width="34" height="29" viewBox="0 0 34 29">
  <metadata><?xpacket begin="﻿" id="W5M0MpCehiHzreSzNTczkc9d"?>
<x:xmpmeta xmlns:x="adobe:ns:meta/" x:xmptk="Adobe XMP Core 5.6-c138 79.159824, 2016/09/14-01:09:01        ">
   <rdf:RDF xmlns:rdf="http://www.w3.org/1999/02/22-rdf-syntax-ns#">
      <rdf:Description rdf:about=""/>
   </rdf:RDF>
</x:xmpmeta>
                                                                                                    
                                                                                                    
                                                                                                    
                                                                                                    
                                                                                                    
                                                                                                    
                                                                                                    
                                                                                                    
                                                                                                    
                                                                                                    
                                                                                                    
                                                                                                    
                                                                                                    
                                                                                                    
                                                                                                    
                                                                                                    
                                                                                                    
                                                                                                    
                                                                                                    
                                                                                                    
                           
<?xpacket end="w"?></metadata>
<defs>
    <style>
      .cls-1 {
        fill: #6f9d39;
        fill-rule: evenodd;
      }
    </style>
  </defs>
  <path id="Заливка_цветом_1" data-name="Заливка цветом 1" class="cls-1" d="M431.288,732.61v-4.83a3.591,3.591,0,0,0-3.6-3.575h-0.746l0.007-1.8A2.421,2.421,0,0,0,424.524,720H402.95a2.942,2.942,0,0,0-2.95,2.889v23.7A2.421,2.421,0,0,0,402.427,749H427.7a3.592,3.592,0,0,0,3.6-3.576v-4.837H432.1A1.892,1.892,0,0,0,434,738.7V734.5a1.9,1.9,0,0,0-1.9-1.885h-0.809Zm-6.764-10.948a0.75,0.75,0,0,1,.753.741l-0.007,1.8H402.95a1.272,1.272,0,1,1,0-2.543h21.574Zm3.166,25.667H402.42a0.753,0.753,0,0,1-.754-0.749v-21a2.957,2.957,0,0,0,1.284.291h24.74a1.922,1.922,0,0,1,1.924,1.912v4.83H423.9a1.893,1.893,0,0,0-1.9,1.885V738.7a1.892,1.892,0,0,0,1.9,1.885h5.711v4.83A1.922,1.922,0,0,1,427.69,747.329Zm4.407-8.406H423.91a0.22,0.22,0,0,1-.223-0.222V734.5a0.223,0.223,0,0,1,.223-0.221H432.1a0.223,0.223,0,0,1,.223.221V738.7h0A0.22,0.22,0,0,1,432.1,738.923Z" transform="translate(-400 -720)"/>
</svg>
