<?xml version="1.0" encoding="UTF-8" standalone="no"?>
<!-- Created with Inkscape (http://www.inkscape.org/) -->

<svg
   xmlns:dc="http://purl.org/dc/elements/1.1/"
   xmlns:cc="http://creativecommons.org/ns#"
   xmlns:rdf="http://www.w3.org/1999/02/22-rdf-syntax-ns#"
   xmlns:svg="http://www.w3.org/2000/svg"
   xmlns="http://www.w3.org/2000/svg"
   xmlns:sodipodi="http://sodipodi.sourceforge.net/DTD/sodipodi-0.dtd"
   xmlns:inkscape="http://www.inkscape.org/namespaces/inkscape"
   version="1.1"
   width="164"
   height="174"
   id="svg2"
   inkscape:version="0.48.5 r10040"
   sodipodi:docname="logo_hobbi.svg">
  <sodipodi:namedview
     pagecolor="#ffffff"
     bordercolor="#666666"
     borderopacity="1"
     objecttolerance="10"
     gridtolerance="10"
     guidetolerance="10"
     inkscape:pageopacity="0"
     inkscape:pageshadow="2"
     inkscape:window-width="1920"
     inkscape:window-height="1027"
     id="namedview144"
     showgrid="false"
     inkscape:zoom="0.80546422"
     inkscape:cx="-12.673026"
     inkscape:cy="145.83541"
     inkscape:window-x="-8"
     inkscape:window-y="-8"
     inkscape:window-maximized="1"
     inkscape:current-layer="svg2" />
  <defs
     id="defs4">
    <clipPath
       id="clipPath2999">
      <path
         d="m 0,1671.135 1054.084,0 L 1054.084,0 0,0 0,1671.135 z"
         id="path3001" />
    </clipPath>
  </defs>
  <metadata
     id="metadata7">
    <rdf:RDF>
      <cc:Work
         rdf:about="">
        <dc:format>image/svg+xml</dc:format>
        <dc:type
           rdf:resource="http://purl.org/dc/dcmitype/StillImage" />
        <dc:title />
      </cc:Work>
    </rdf:RDF>
  </metadata>
  <g
     id="g3003"
     transform="matrix(0.38935294,0,0,-0.39934046,1.790403,160.32082)"
     style="fill:#935e43;fill-opacity:1">
    <path
       inkscape:connector-curvature="0"
       style="fill:#935e43;fill-opacity:1;fill-rule:nonzero;stroke:none"
       id="path3005"
       d="m 0,0 c -5.275,-4.695 0.685,-10.141 6.988,-6.883 46.199,24.044 114.927,47.797 193.711,47.46 78.787,0.336 147.507,-23.416 193.71,-47.46 6.301,-3.26 12.265,2.187 6.988,6.883 C 363.782,34.184 289.77,69.899 200.699,69.426 111.624,69.898 37.612,34.185 0,0" />
  </g>
  <g
     id="g3007"
     transform="matrix(0.38935294,0,0,-0.39934046,8.0386595,167.59308)"
     style="fill:#73a33c;fill-opacity:1">
    <path
       inkscape:connector-curvature="0"
       style="fill:#73a33c;fill-opacity:1;fill-rule:nonzero;stroke:none"
       id="path3009"
       d="m 0,0 c -0.022,0.03 -0.017,0.055 -0.037,0.086 -0.104,0.152 -0.321,0.181 -0.47,0.079 l -1.987,-1.358 c -0.164,-0.111 -0.19,-0.33 -0.116,-0.502 l 2.452,-6.58 -0.074,-0.051 c -0.15,-0.102 -0.231,-0.047 -0.437,0.126 l -4.988,4.423 c -0.134,0.132 -0.332,0.197 -0.481,0.095 L -8.124,-5.04 c -0.209,-0.142 -0.237,-0.295 -0.133,-0.447 0.021,-0.03 0.041,-0.06 0.088,-0.096 l 6.382,-5.119 c 1.294,-1.029 1.799,-0.84 2.352,-0.462 l 0.225,0.154 0.185,-0.563 c 0.236,-0.729 0.091,-1.095 -0.446,-1.463 -0.493,-0.337 -1.437,-0.848 -1.95,-1.154 -0.016,-0.01 -0.016,-0.01 -0.03,-0.02 -0.164,-0.113 -0.217,-0.326 -0.102,-0.493 l 0.839,-1.229 c 0.113,-0.167 0.294,-0.111 0.5,-0.06 0.456,0.134 1.42,0.615 1.973,0.993 2.195,1.5 2.238,2.753 1.582,4.709 L 0,0 z" />
  </g>
  <g
     id="g3011"
     transform="matrix(0.38935294,0,0,-0.39934046,15.136096,168.21889)"
     style="fill:#73a33c;fill-opacity:1">
    <path
       inkscape:connector-curvature="0"
       style="fill:#73a33c;fill-opacity:1;fill-rule:nonzero;stroke:none"
       id="path3013"
       d="m 0,0 c -1.323,-0.749 -2.399,-0.282 -3.487,1.637 l -1.078,1.9 c -1.089,1.918 -0.937,3.081 0.385,3.831 1.322,0.749 2.414,0.289 3.502,-1.628 L 0.401,3.838 C 1.488,1.92 1.322,0.749 0,0 M 2.029,7.273 C -0.074,10.982 -2.943,11.235 -5.54,9.764 -8.043,8.346 -9.297,5.904 -7.533,2.427 l -1.731,-0.981 -2.412,4.251 c -0.099,0.176 -0.297,0.233 -0.471,0.135 l -2.109,-1.195 c -0.173,-0.098 -0.21,-0.288 -0.111,-0.464 l 6.382,-11.251 c 0.1,-0.176 0.292,-0.257 0.465,-0.159 l 2.109,1.195 c 0.173,0.098 0.217,0.312 0.118,0.488 l -2.62,4.619 1.731,0.981 c 2.1,-3.667 4.945,-3.915 7.541,-2.443 2.597,1.471 3.852,4.061 1.749,7.768 L 2.029,7.273 z" />
  </g>
  <g
     id="g3015"
     transform="matrix(0.38935294,0,0,-0.39934046,18.880426,162.47674)"
     style="fill:#73a33c;fill-opacity:1">
    <path
       inkscape:connector-curvature="0"
       style="fill:#73a33c;fill-opacity:1;fill-rule:nonzero;stroke:none"
       id="path3017"
       d="M 0,0 2.643,1.262 C 2.822,1.348 2.922,1.559 2.835,1.741 L 2.019,3.449 C 1.932,3.631 1.705,3.686 1.525,3.6 l -8.094,-3.866 c -0.179,-0.086 -0.262,-0.288 -0.174,-0.471 l 0.815,-1.707 c 0.088,-0.183 0.298,-0.245 0.478,-0.159 l 2.659,1.27 4.613,-9.65 c 0.087,-0.182 0.305,-0.261 0.484,-0.175 l 2.138,1.021 c 0.18,0.086 0.255,0.305 0.168,0.488 L 0,0 z" />
  </g>
  <g
     id="g3019"
     transform="matrix(0.38935294,0,0,-0.39934046,25.082623,158.75149)"
     style="fill:#73a33c;fill-opacity:1">
    <path
       inkscape:connector-curvature="0"
       style="fill:#73a33c;fill-opacity:1;fill-rule:nonzero;stroke:none"
       id="path3021"
       d="m 0,0 c -0.077,0.187 -0.284,0.261 -0.467,0.184 l -2.189,-0.903 c -0.184,-0.076 -0.278,-0.274 -0.201,-0.46 l 1.864,-4.52 -4.127,-1.703 -1.865,4.519 c -0.077,0.187 -0.284,0.261 -0.467,0.184 l -2.189,-0.903 c -0.184,-0.076 -0.278,-0.274 -0.201,-0.46 l 4.935,-11.962 c 0.076,-0.188 0.291,-0.279 0.474,-0.202 l 2.189,0.903 c 0.184,0.077 0.271,0.291 0.194,0.479 l -2.026,4.909 4.127,1.704 2.027,-4.91 c 0.076,-0.188 0.289,-0.277 0.474,-0.202 l 2.189,0.903 c 0.184,0.077 0.271,0.291 0.194,0.479 L 0,0 z" />
  </g>
  <g
     id="g3023"
     transform="matrix(0.38935294,0,0,-0.39934046,29.215877,160.35564)"
     style="fill:#73a33c;fill-opacity:1">
    <path
       inkscape:connector-curvature="0"
       style="fill:#73a33c;fill-opacity:1;fill-rule:nonzero;stroke:none"
       id="path3025"
       d="m 0,0 -0.652,5.15 c -0.027,0.185 -0.007,0.291 0.147,0.344 0.153,0.055 0.218,-0.02 0.314,-0.18 L 2.54,0.9 0,0 z M 2.117,7.028 C 1.136,8.552 -0.2,8.371 -1.376,7.955 -2.553,7.539 -3.722,6.832 -3.525,5.029 l 1.26,-11.642 c 0.014,-0.035 0.009,-0.075 0.015,-0.092 0.061,-0.174 0.216,-0.236 0.387,-0.175 l 2.387,0.845 c 0.17,0.061 0.258,0.247 0.231,0.433 l -0.393,3.059 3.495,1.238 1.62,-2.625 c 0.095,-0.161 0.281,-0.251 0.451,-0.191 l 2.386,0.846 c 0.171,0.059 0.254,0.205 0.191,0.379 -0.006,0.018 -0.034,0.046 -0.046,0.081 L 2.117,7.028 z" />
  </g>
  <g
     id="g3027"
     transform="matrix(0.38935294,0,0,-0.39934046,35.064075,157.67898)"
     style="fill:#73a33c;fill-opacity:1">
    <path
       inkscape:connector-curvature="0"
       style="fill:#73a33c;fill-opacity:1;fill-rule:nonzero;stroke:none"
       id="path3029"
       d="m 0,0 c -1.817,-0.552 -2.533,-0.25 -2.895,0.946 l -0.068,0.229 c -0.326,1.073 0.338,1.812 1.793,2.253 0.242,0.075 1.152,0.313 1.366,0.358 L 1.219,0.409 C 1.034,0.334 0.19,0.059 0,0 M 1.64,6.816 C 0.806,6.698 -0.696,6.357 -1.943,5.979 -4.886,5.087 -6.849,3.396 -5.906,0.282 l 0.069,-0.228 c 0.565,-1.865 1.88,-2.713 3.299,-2.84 L -3.65,-8.54 c -0.013,-0.08 -0.009,-0.156 0.006,-0.208 0.038,-0.124 0.134,-0.19 0.324,-0.133 l 2.649,0.804 c 0.19,0.057 0.206,0.255 0.239,0.457 l 0.972,5.153 0.196,0.04 c 0.363,0.111 0.889,0.308 1.218,0.409 L 3.306,-6.486 C 3.365,-6.68 3.568,-6.791 3.76,-6.733 l 2.25,0.682 c 0.19,0.059 0.298,0.265 0.239,0.457 L 2.675,6.209 C 2.493,6.807 2.204,6.892 1.64,6.816" />
  </g>
  <g
     id="g3031"
     transform="matrix(0.38935294,0,0,-0.39934046,43.570463,152.88078)"
     style="fill:#73a33c;fill-opacity:1">
    <path
       inkscape:connector-curvature="0"
       style="fill:#73a33c;fill-opacity:1;fill-rule:nonzero;stroke:none"
       id="path3033"
       d="m 0,0 c -0.638,-0.059 -1.552,-0.126 -3.451,-0.58 -2.268,-0.542 -4.155,-1.597 -3.375,-4.85 l 2.213,-9.239 c 0.047,-0.196 0.243,-0.319 0.437,-0.272 l 2.287,0.546 c 0.193,0.047 0.312,0.245 0.266,0.442 l -2.213,9.238 c -0.223,0.929 0.008,1.286 0.835,1.484 l 3.57,0.854 c 0.193,0.047 0.313,0.245 0.266,0.441 L 0.437,-0.274 C 0.382,-0.042 0.255,0.023 0,0" />
  </g>
  <g
     id="g3035"
     transform="matrix(0.38935294,0,0,-0.39934046,46.746999,155.32)"
     style="fill:#73a33c;fill-opacity:1">
    <path
       inkscape:connector-curvature="0"
       style="fill:#73a33c;fill-opacity:1;fill-rule:nonzero;stroke:none"
       id="path3037"
       d="M 0,0 0.055,5.191 C 0.053,5.377 0.087,5.479 0.246,5.511 0.407,5.545 0.461,5.462 0.534,5.289 L 2.64,0.543 0,0 z M 3.055,6.67 C 2.291,8.315 0.941,8.319 -0.281,8.068 -1.504,7.816 -2.76,7.277 -2.81,5.464 L -3.144,-6.239 c 0.007,-0.036 -0.002,-0.075 0.001,-0.093 0.037,-0.181 0.183,-0.263 0.36,-0.226 l 2.482,0.51 c 0.177,0.037 0.289,0.209 0.287,0.397 l 0.028,3.083 3.632,0.747 1.248,-2.821 c 0.073,-0.172 0.244,-0.287 0.422,-0.251 l 2.48,0.511 c 0.177,0.036 0.279,0.17 0.242,0.349 -0.004,0.018 -0.029,0.051 -0.036,0.086 L 3.055,6.67 z" />
  </g>
  <g
     id="g3039"
     transform="matrix(0.38935294,0,0,-0.39934046,52.888185,155.53496)"
     style="fill:#73a33c;fill-opacity:1">
    <path
       inkscape:connector-curvature="0"
       style="fill:#73a33c;fill-opacity:1;fill-rule:nonzero;stroke:none"
       id="path3041"
       d="m 0,0 c -0.249,-0.042 -1.18,-0.179 -1.465,-0.227 l -0.57,3.386 1.998,0.335 C 1.389,3.734 1.977,3.07 2.123,2.2 L 2.157,2 C 2.328,0.986 1.837,0.307 0,0 m -2.925,8.448 c 0.248,0.061 1.067,0.199 1.353,0.246 1.836,0.308 2.537,-0.04 2.705,-1.037 L 1.178,7.386 C 1.309,6.607 1.008,5.887 -0.4,5.65 L -2.397,5.315 -2.925,8.448 z M 5.084,2.696 C 4.874,3.946 4.07,4.798 3.046,5.11 3.912,5.74 4.295,6.847 4.096,8.025 L 4.041,8.35 C 3.557,11.23 1.14,11.756 -2.231,11.191 -3.372,11 -4.798,10.648 -5.389,10.457 -6.066,10.23 -6.273,9.935 -6.136,9.12 l 1.852,-11.011 c 0.138,-0.816 0.445,-1.006 1.18,-1.014 0.716,-0.01 2.122,0.133 3.299,0.331 3.085,0.516 5.471,1.811 4.935,4.999 L 5.084,2.696 z" />
  </g>
  <g
     id="g3043"
     transform="matrix(0.38935294,0,0,-0.39934046,57.770866,153.37808)"
     style="fill:#73a33c;fill-opacity:1">
    <path
       inkscape:connector-curvature="0"
       style="fill:#73a33c;fill-opacity:1;fill-rule:nonzero;stroke:none"
       id="path3045"
       d="M 0,0 0.433,5.173 C 0.445,5.36 0.487,5.459 0.648,5.479 0.81,5.5 0.858,5.414 0.918,5.237 L 2.671,0.35 0,0 z M 3.531,6.433 C 2.89,8.129 1.546,8.23 0.309,8.068 -0.928,7.905 -2.219,7.458 -2.402,5.654 L -3.589,-5.997 c 0.005,-0.036 -0.008,-0.075 -0.006,-0.093 0.024,-0.182 0.164,-0.275 0.342,-0.251 l 2.51,0.329 c 0.18,0.023 0.304,0.189 0.316,0.375 l 0.252,3.073 3.675,0.484 1.039,-2.905 c 0.059,-0.177 0.221,-0.304 0.4,-0.28 l 2.51,0.329 c 0.18,0.024 0.291,0.15 0.267,0.332 -0.002,0.019 -0.025,0.052 -0.03,0.089 L 3.531,6.433 z" />
  </g>
  <g
     id="g3047"
     transform="matrix(0.38935294,0,0,-0.39934046,65.693614,149.3495)"
     style="fill:#73a33c;fill-opacity:1">
    <path
       inkscape:connector-curvature="0"
       style="fill:#73a33c;fill-opacity:1;fill-rule:nonzero;stroke:none"
       id="path3049"
       d="M 0,0 -2.358,-0.225 C -2.556,-0.244 -2.705,-0.406 -2.686,-0.608 L -2.218,-5.475 -6.663,-5.9 -7.131,-1.032 C -7.15,-0.83 -7.326,-0.7 -7.525,-0.719 l -2.357,-0.225 c -0.199,-0.019 -0.346,-0.181 -0.327,-0.381 l 1.237,-12.883 c 0.019,-0.202 0.197,-0.351 0.395,-0.333 l 2.358,0.226 c 0.198,0.018 0.344,0.199 0.325,0.4 l -0.508,5.289 4.446,0.424 0.507,-5.288 c 0.021,-0.201 0.198,-0.351 0.396,-0.332 l 2.358,0.226 c 0.198,0.018 0.345,0.199 0.326,0.4 L 0.394,-0.313 C 0.373,-0.111 0.197,0.019 0,0" />
  </g>
  <g
     id="g3051"
     transform="matrix(0.38935294,0,0,-0.39934046,69.683859,153.56442)"
     style="fill:#73a33c;fill-opacity:1">
    <path
       inkscape:connector-curvature="0"
       style="fill:#73a33c;fill-opacity:1;fill-rule:nonzero;stroke:none"
       id="path3053"
       d="m 0,0 c -0.776,-0.048 -0.778,-0.03 -1.066,-0.047 l -0.208,3.392 c 0.272,0.016 0.306,0.037 1.065,0.083 C 2.12,3.571 2.669,3.181 2.742,1.989 L 2.75,1.86 C 2.823,0.669 2.329,0.142 0,0 M -0.203,6.005 C -0.602,5.981 -1.016,5.937 -1.43,5.894 l -0.299,4.895 c -0.013,0.202 -0.185,0.358 -0.384,0.346 L -4.46,10.991 c -0.198,-0.012 -0.351,-0.188 -0.338,-0.388 l 0.734,-12.011 c 0.051,-0.825 0.336,-1.047 1.066,-1.132 0.712,-0.085 2.126,-0.091 3.317,-0.018 3.125,0.191 5.636,1.21 5.428,4.601 L 5.74,2.172 C 5.532,5.565 2.92,6.197 -0.203,6.005" />
  </g>
  <g
     id="g3055"
     transform="matrix(0.38935294,0,0,-0.39934046,78.040737,153.24003)"
     style="fill:#73a33c;fill-opacity:1">
    <path
       inkscape:connector-curvature="0"
       style="fill:#73a33c;fill-opacity:1;fill-rule:nonzero;stroke:none"
       id="path3057"
       d="M 0,0 C -0.254,-0.004 -1.194,0.002 -1.483,-0.001 L -1.529,3.434 0.496,3.462 C 1.942,3.481 2.422,2.735 2.433,1.852 L 2.436,1.651 C 2.45,0.621 1.861,0.025 0,0 m -1.599,8.8 c 0.252,0.021 1.083,0.033 1.373,0.037 C 1.635,8.862 2.274,8.411 2.287,7.4 L 2.292,7.125 C 2.302,6.334 1.895,5.668 0.467,5.649 L -1.558,5.621 -1.599,8.8 z M 3.79,4.59 C 4.741,5.081 5.288,6.118 5.272,7.312 L 5.267,7.643 C 5.229,10.564 2.921,11.452 -0.495,11.406 -1.652,11.391 -3.114,11.26 -3.728,11.16 -4.431,11.04 -4.681,10.78 -4.67,9.953 l 0.148,-11.171 c 0.011,-0.828 0.285,-1.062 1.01,-1.182 0.707,-0.118 2.117,-0.191 3.311,-0.176 3.126,0.042 5.681,0.96 5.638,4.193 L 5.433,1.892 C 5.417,3.161 4.754,4.126 3.79,4.59" />
  </g>
  <g
     id="g3059"
     transform="matrix(0.38935294,0,0,-0.39934046,89.153571,148.94293)"
     style="fill:#73a33c;fill-opacity:1">
    <path
       inkscape:connector-curvature="0"
       style="fill:#73a33c;fill-opacity:1;fill-rule:nonzero;stroke:none"
       id="path3061"
       d="m 0,0 -1.699,0.063 c -0.379,0.015 -0.64,-0.16 -0.814,-0.466 l -2.962,-5.129 c -0.078,-0.143 -0.136,-0.233 -0.208,-0.23 -0.072,0.002 -0.124,0.096 -0.189,0.246 l -2.569,5.334 c -0.152,0.318 -0.397,0.511 -0.777,0.525 l -1.699,0.064 c -0.379,0.014 -0.659,-0.214 -0.674,-0.601 l -0.481,-12.757 c -0.008,-0.201 0.154,-0.262 0.298,-0.268 l 2.386,-0.088 c 0.162,-0.006 0.295,0.154 0.302,0.356 l 0.289,7.654 c 0.004,0.128 0.059,0.145 0.097,0.143 0.053,-0.002 0.088,-0.04 0.138,-0.134 l 1.514,-3.088 c 0.118,-0.225 0.295,-0.325 0.53,-0.333 l 1.446,-0.054 c 0.234,-0.008 0.419,0.077 0.554,0.292 l 1.74,2.968 c 0.059,0.09 0.096,0.126 0.15,0.123 0.036,-0.001 0.09,-0.021 0.085,-0.15 l -0.289,-7.654 c -0.007,-0.202 0.113,-0.372 0.276,-0.378 l 2.386,-0.089 c 0.145,-0.006 0.309,0.043 0.317,0.246 l 0.48,12.739 C 0.641,-0.281 0.379,-0.014 0,0" />
  </g>
  <g
     id="g3063"
     transform="matrix(0.38935294,0,0,-0.39934046,94.046491,151.56803)"
     style="fill:#73a33c;fill-opacity:1">
    <path
       inkscape:connector-curvature="0"
       style="fill:#73a33c;fill-opacity:1;fill-rule:nonzero;stroke:none"
       id="path3065"
       d="m 0,0 -0.16,-2.18 c -0.162,-2.198 -0.953,-3.079 -2.467,-2.967 -1.516,0.111 -2.15,1.096 -1.988,3.295 l 0.16,2.18 c 0.162,2.197 0.933,3.08 2.449,2.969 C -0.492,3.186 0.161,2.198 0,0 M -1.805,6.045 C -4.781,6.264 -7.264,4.807 -7.576,0.557 l -0.16,-2.179 c -0.312,-4.25 1.931,-6.054 4.907,-6.273 2.976,-0.219 5.458,1.237 5.771,5.487 l 0.16,2.18 c 0.312,4.25 -1.931,6.054 -4.907,6.273" />
  </g>
  <g
     id="g3067"
     transform="matrix(0.38935294,0,0,-0.39934046,99.728864,151.53792)"
     style="fill:#73a33c;fill-opacity:1">
    <path
       inkscape:connector-curvature="0"
       style="fill:#73a33c;fill-opacity:1;fill-rule:nonzero;stroke:none"
       id="path3069"
       d="m 0,0 -0.017,-0.165 c -0.134,-1.242 -0.899,-1.768 -2.5,-1.595 -0.197,0.021 -1.257,0.155 -1.452,0.194 L -3.57,2.159 C -3.352,2.154 -2.359,2.084 -2.107,2.056 -0.597,1.894 0.14,1.297 0,0 M -1.864,4.653 C -3.159,4.793 -4.607,4.858 -5.54,4.81 -6.107,4.779 -6.376,4.643 -6.443,4.022 l -1.32,-12.273 c -0.021,-0.201 0.125,-0.363 0.323,-0.385 l 2.32,-0.251 c 0.197,-0.022 0.377,0.126 0.398,0.326 l 0.478,4.437 c 0.447,-0.065 1.019,-0.165 1.451,-0.211 2.678,-0.29 5.465,0.424 5.833,3.84 l 0.018,0.164 C 3.426,3.102 0.851,4.36 -1.864,4.653" />
  </g>
  <g
     id="g3071"
     transform="matrix(0.38935294,0,0,-0.39934046,105.81838,150.66844)"
     style="fill:#73a33c;fill-opacity:1">
    <path
       inkscape:connector-curvature="0"
       style="fill:#73a33c;fill-opacity:1;fill-rule:nonzero;stroke:none"
       id="path3073"
       d="m 0,0 c -0.614,0.179 -1.488,0.451 -3.423,0.724 -2.31,0.325 -4.451,0.033 -4.916,-3.277 L -9.19,-8.59 c -0.466,-3.311 1.491,-4.199 3.801,-4.525 1.934,-0.272 2.867,-0.255 3.507,-0.252 0.256,0.001 0.378,0.094 0.412,0.331 l 0.238,1.692 c 0.029,0.199 -0.11,0.386 -0.306,0.414 l -3.636,0.512 c -0.842,0.118 -1.105,0.452 -0.971,1.398 l 0.27,1.927 4.638,-0.653 c 0.197,-0.027 0.382,0.114 0.41,0.314 l 0.243,1.727 c 0.028,0.201 -0.11,0.386 -0.307,0.415 l -4.638,0.653 0.233,1.655 c 0.134,0.946 0.479,1.194 1.321,1.075 l 3.634,-0.512 c 0.197,-0.027 0.382,0.114 0.41,0.314 l 0.238,1.691 C 0.341,-0.178 0.245,-0.072 0,0" />
  </g>
  <g
     id="g3075"
     transform="matrix(0.38935294,0,0,-0.39934046,112.81097,153.61645)"
     style="fill:#73a33c;fill-opacity:1">
    <path
       inkscape:connector-curvature="0"
       style="fill:#73a33c;fill-opacity:1;fill-rule:nonzero;stroke:none"
       id="path3077"
       d="m 0,0 -0.031,-0.163 c -0.237,-1.226 -1.044,-1.688 -2.625,-1.384 -0.195,0.038 -1.239,0.259 -1.43,0.314 l 0.709,3.679 C -3.161,2.424 -2.177,2.272 -1.928,2.224 -0.437,1.936 0.246,1.28 0,0 M -1.47,4.791 C -2.749,5.037 -4.187,5.222 -5.12,5.252 -5.688,5.267 -5.968,5.152 -6.087,4.54 L -8.423,-7.582 c -0.038,-0.199 0.095,-0.373 0.29,-0.41 l 2.29,-0.442 c 0.195,-0.038 0.387,0.094 0.425,0.292 l 0.845,4.383 c 0.44,-0.103 1.001,-0.249 1.428,-0.331 2.645,-0.51 5.483,-0.026 6.132,3.346 l 0.032,0.163 C 3.673,2.81 1.211,4.275 -1.47,4.791" />
  </g>
  <g
     id="g3079"
     transform="matrix(0.38935294,0,0,-0.39934046,119.14827,153.29594)"
     style="fill:#73a33c;fill-opacity:1">
    <path
       inkscape:connector-curvature="0"
       style="fill:#73a33c;fill-opacity:1;fill-rule:nonzero;stroke:none"
       id="path3081"
       d="M 0,0 -2.345,0.536 C -2.538,0.581 -2.717,0.452 -2.792,0.281 l -3.165,-6.268 -0.089,0.02 c -0.176,0.041 -0.19,0.139 -0.203,0.406 l -0.139,6.665 c 0.006,0.188 -0.081,0.377 -0.257,0.418 L -8.99,2.059 C -9.236,2.115 -9.367,2.031 -9.407,1.853 -9.416,1.817 -9.424,1.781 -9.419,1.724 l 0.575,-8.162 c 0.122,-1.649 0.604,-1.892 1.257,-2.041 l 0.265,-0.06 -0.287,-0.519 c -0.376,-0.668 -0.742,-0.81 -1.377,-0.664 -0.582,0.133 -1.597,0.478 -2.17,0.647 -0.018,0.005 -0.018,0.005 -0.036,0.009 -0.194,0.044 -0.385,-0.063 -0.431,-0.26 l -0.333,-1.45 c -0.045,-0.197 0.119,-0.292 0.297,-0.408 0.407,-0.244 1.414,-0.625 2.066,-0.775 2.591,-0.593 3.541,0.226 4.532,2.035 l 5.284,9.438 C 0.231,-0.45 0.252,-0.435 0.261,-0.4 0.301,-0.22 0.176,-0.041 0,0" />
  </g>
  <g
     id="g3083"
     transform="matrix(0.38935294,0,0,-0.39934046,124.80315,154.90584)"
     style="fill:#73a33c;fill-opacity:1">
    <path
       inkscape:connector-curvature="0"
       style="fill:#73a33c;fill-opacity:1;fill-rule:nonzero;stroke:none"
       id="path3085"
       d="M 0,0 C 0.029,0.106 -0.035,0.219 -0.227,0.27 L -2.899,0.99 C -3.09,1.043 -3.214,1 -3.34,0.882 l -5.402,-4.729 1.527,5.641 c 0.054,0.195 -0.065,0.38 -0.257,0.431 l -2.287,0.617 c -0.192,0.052 -0.388,-0.048 -0.44,-0.243 l -3.382,-12.487 c -0.053,-0.195 0.061,-0.398 0.252,-0.449 l 2.287,-0.617 c 0.193,-0.052 0.393,0.066 0.445,0.261 l 1.557,5.746 1.959,-6.81 c 0.049,-0.165 0.108,-0.295 0.317,-0.352 l 3.003,-0.809 c 0.157,-0.044 0.263,0.004 0.292,0.111 0.014,0.054 0.017,0.129 -0.017,0.214 l -2.447,7.493 5.778,4.875 C -0.079,-0.151 -0.019,-0.071 0,0" />
  </g>
  <g
     id="g3087"
     transform="matrix(0.38935294,0,0,-0.39934046,128.02536,158.23985)"
     style="fill:#73a33c;fill-opacity:1">
    <path
       inkscape:connector-curvature="0"
       style="fill:#73a33c;fill-opacity:1;fill-rule:nonzero;stroke:none"
       id="path3089"
       d="m 0,0 -0.656,-2.088 c -0.661,-2.103 -1.632,-2.78 -3.082,-2.325 -1.449,0.456 -1.841,1.561 -1.18,3.665 l 0.657,2.087 C -3.6,3.443 -2.645,4.125 -1.196,3.67 0.254,3.214 0.662,2.103 0,0 M -0.37,6.3 C -3.216,7.194 -5.967,6.344 -7.246,2.276 L -7.903,0.19 c -1.278,-4.068 0.491,-6.339 3.338,-7.232 2.846,-0.895 5.597,-0.045 6.876,4.023 l 0.657,2.086 C 4.247,3.134 2.477,5.405 -0.37,6.3" />
  </g>
  <g
     id="g3091"
     transform="matrix(0.38935294,0,0,-0.39934046,133.3454,158.85612)"
     style="fill:#73a33c;fill-opacity:1">
    <path
       inkscape:connector-curvature="0"
       style="fill:#73a33c;fill-opacity:1;fill-rule:nonzero;stroke:none"
       id="path3093"
       d="m 0,0 -1.199,-8.27 -3.733,1.378 4.474,7.062 c 0.098,0.159 0.18,0.227 0.334,0.17 C 0.028,0.284 0.03,0.185 0,0 m 2.841,-9.76 -1.086,0.4 1.117,9.201 C 3.092,1.64 1.949,2.355 0.778,2.787 -0.394,3.219 -1.744,3.425 -2.745,1.914 l -5.123,-7.723 -1.036,0.382 C -9.09,-5.358 -9.3,-5.457 -9.37,-5.646 l -1.468,-3.982 c -0.07,-0.189 0.026,-0.4 0.213,-0.47 l 2.222,-0.819 c 0.187,-0.069 0.398,0.03 0.467,0.219 l 0.642,1.74 6.619,-2.441 -0.642,-1.741 c -0.069,-0.19 0.026,-0.402 0.213,-0.47 l 2.222,-0.821 c 0.187,-0.068 0.398,0.03 0.467,0.221 l 1.469,3.98 c 0.069,0.19 -0.026,0.402 -0.213,0.47" />
  </g>
  <g
     id="g3095"
     transform="matrix(0.38935294,0,0,-0.39934046,137.65051,161.76731)"
     style="fill:#73a33c;fill-opacity:1">
    <path
       inkscape:connector-curvature="0"
       style="fill:#73a33c;fill-opacity:1;fill-rule:nonzero;stroke:none"
       id="path3097"
       d="M 0,0 0.654,1.538 C 1.029,2.417 1.427,2.567 2.208,2.233 L 5.585,0.796 C 5.768,0.718 5.983,0.806 6.063,0.992 L 6.731,2.564 C 6.825,2.782 6.761,2.911 6.542,3.043 5.997,3.376 5.222,3.865 3.426,4.63 1.28,5.543 -0.864,5.818 -2.174,2.742 l -2.389,-5.609 c -1.309,-3.076 0.35,-4.441 2.496,-5.355 1.797,-0.764 2.702,-0.99 3.321,-1.154 0.247,-0.066 0.39,-0.008 0.483,0.213 l 0.67,1.571 c 0.079,0.186 -0.006,0.401 -0.189,0.48 l -3.377,1.438 c -0.783,0.333 -0.95,0.724 -0.576,1.602 l 0.764,1.792 4.307,-1.835 c 0.183,-0.078 0.399,0.009 0.478,0.196 l 0.683,1.605 c 0.079,0.186 -0.006,0.401 -0.189,0.48 L 0,0 z" />
  </g>
  <g
     id="g3099"
     transform="matrix(0.38935294,0,0,-0.39934046,143.82246,162.18482)"
     style="fill:#73a33c;fill-opacity:1">
    <path
       inkscape:connector-curvature="0"
       style="fill:#73a33c;fill-opacity:1;fill-rule:nonzero;stroke:none"
       id="path3101"
       d="m 0,0 c -1.121,0.548 -2.444,0.888 -3.594,-0.513 l -7.426,-9.05 c -0.016,-0.033 -0.048,-0.059 -0.056,-0.074 -0.082,-0.165 -0.016,-0.321 0.147,-0.4 l 2.274,-1.112 c 0.163,-0.079 0.356,-0.011 0.47,0.139 l 6.69,8.53 c 0.112,0.148 0.202,0.207 0.348,0.135 0.146,-0.07 0.139,-0.17 0.09,-0.35 l -2.629,-10.517 c -0.048,-0.18 0.017,-0.375 0.18,-0.455 l 2.274,-1.113 c 0.163,-0.079 0.324,-0.036 0.405,0.129 0.009,0.017 0.008,0.058 0.024,0.091 L 1.784,-3.144 C 2.186,-1.376 1.121,-0.549 0,0" />
  </g>
  <g
     id="g3103"
     transform="matrix(0.38935294,0,0,-0.39934046,150.56913,165.9865)"
     style="fill:#73a33c;fill-opacity:1">
    <path
       inkscape:connector-curvature="0"
       style="fill:#73a33c;fill-opacity:1;fill-rule:nonzero;stroke:none"
       id="path3105"
       d="M 0,0 -1.586,0.906 C -1.9,1.085 -2.148,1.016 -2.528,0.788 l -7.479,-4.45 c -0.118,-0.06 -0.152,-0.083 -0.198,-0.056 -0.033,0.018 -0.061,0.077 0.003,0.188 l 3.858,6.753 c 0.101,0.176 0.032,0.384 -0.141,0.482 L -8.337,4.764 C -8.51,4.863 -8.724,4.816 -8.825,4.64 l -6.256,-10.95 c -0.193,-0.335 -0.065,-0.768 0.265,-0.957 l 1.539,-0.878 c 0.33,-0.189 0.601,-0.26 1.099,0.027 l 7.174,4.244 c 0.117,0.06 0.166,0.073 0.214,0.047 0.047,-0.027 0.06,-0.076 0.005,-0.172 l -3.694,-6.466 c -0.101,-0.175 -0.041,-0.4 0.131,-0.499 l 1.853,-1.057 c 0.173,-0.1 0.396,-0.036 0.497,0.138 L 0.25,-0.948 C 0.441,-0.613 0.33,-0.189 0,0" />
  </g>
  <g
     id="g3107"
     transform="matrix(0.38935294,0,0,-0.39934046,153.44481,170.79428)"
     style="fill:#73a33c;fill-opacity:1">
    <path
       inkscape:connector-curvature="0"
       style="fill:#73a33c;fill-opacity:1;fill-rule:nonzero;stroke:none"
       id="path3109"
       d="M 0,0 C -0.175,0.096 -0.919,0.578 -1.084,0.689 -2.656,1.753 -2.872,2.498 -2.171,3.533 L -2.037,3.73 C -1.409,4.658 -0.418,4.608 0.841,3.758 1.05,3.615 1.808,3.058 1.977,2.921 L 0,0 z M 5.24,3.708 C 4.622,4.281 3.412,5.234 2.334,5.964 -0.212,7.686 -2.76,8.145 -4.583,5.453 L -4.717,5.254 C -5.808,3.641 -5.639,2.085 -4.845,0.904 l -5.165,-2.761 c -0.071,-0.04 -0.127,-0.091 -0.158,-0.136 -0.072,-0.106 -0.064,-0.224 0.1,-0.335 l 2.291,-1.55 c 0.165,-0.112 0.328,0.001 0.506,0.101 l 4.612,2.492 0.154,-0.125 c 0.315,-0.213 0.799,-0.497 1.084,-0.689 l -2.616,-3.866 c -0.114,-0.167 -0.071,-0.394 0.093,-0.507 l 1.946,-1.317 c 0.165,-0.111 0.393,-0.064 0.506,0.102 L 5.419,2.523 C 5.768,3.04 5.652,3.318 5.24,3.708" />
  </g>
  <g
     id="g3111"
     transform="matrix(0.38935294,0,0,-0.39934046,50.750054,91.403559)"
     style="fill:#8fc04b;fill-opacity:1">
    <path
       inkscape:connector-curvature="0"
       style="fill:#8fc04b;fill-opacity:1;fill-rule:nonzero;stroke:none"
       id="path3113"
       d="m 0,0 c -5.762,-1.389 -11.649,-5.333 -16.036,-11.326 -4.388,-5.992 -6.37,-12.795 -5.954,-18.707 0.102,-1.455 1.325,-2.351 2.743,-2.009 5.762,1.389 11.648,5.333 16.036,11.326 4.388,5.992 6.37,12.795 5.954,18.707 C 2.641,-0.554 1.418,0.342 0,0" />
  </g>
  <g
     id="g3115"
     transform="matrix(0.38935294,0,0,-0.39934046,67.705052,96.99668)"
     style="fill:#8fc04b;fill-opacity:1">
    <path
       inkscape:connector-curvature="0"
       style="fill:#8fc04b;fill-opacity:1;fill-rule:nonzero;stroke:none"
       id="path3117"
       d="m 0,0 c -5.188,-2.866 -9.82,-8.228 -12.464,-15.168 -2.644,-6.94 -2.754,-14.025 -0.787,-19.617 0.484,-1.375 1.901,-1.915 3.177,-1.21 5.189,2.866 9.82,8.228 12.464,15.168 2.644,6.94 2.754,14.025 0.787,19.617 C 2.693,0.165 1.277,0.705 0,0" />
  </g>
  <g
     id="g3119"
     transform="matrix(0.38935294,0,0,-0.39934046,84.972814,98.672594)"
     style="fill:#8fc04b;fill-opacity:1">
    <path
       inkscape:connector-curvature="0"
       style="fill:#8fc04b;fill-opacity:1;fill-rule:nonzero;stroke:none"
       id="path3121"
       d="m 0,0 c -4.719,-3.586 -8.527,-9.562 -10.14,-16.811 -1.612,-7.25 -0.696,-14.276 2.058,-19.524 0.678,-1.292 2.158,-1.621 3.319,-0.738 4.72,3.585 8.527,9.561 10.14,16.811 1.612,7.249 0.696,14.276 -2.058,19.524 C 2.641,0.553 1.161,0.882 0,0" />
  </g>
  <g
     id="g3123"
     transform="matrix(0.38935294,0,0,-0.39934046,41.797701,81.890349)"
     style="fill:#8fc04b;fill-opacity:1">
    <path
       inkscape:connector-curvature="0"
       style="fill:#8fc04b;fill-opacity:1;fill-rule:nonzero;stroke:none"
       id="path3125"
       d="m 0,0 c -5.771,1.351 -12.803,0.476 -19.416,-2.903 -6.614,-3.378 -11.445,-8.563 -13.733,-14.03 -0.563,-1.346 0.127,-2.696 1.547,-3.028 5.771,-1.351 12.803,-0.476 19.417,2.903 6.613,3.378 11.444,8.562 13.732,14.03 C 2.11,-1.683 1.42,-0.333 0,0" />
  </g>
  <g
     id="g3127"
     transform="matrix(0.38935294,0,0,-0.39934046,126.34608,98.028257)"
     style="fill:#8fc04b;fill-opacity:1">
    <path
       inkscape:connector-curvature="0"
       style="fill:#8fc04b;fill-opacity:1;fill-rule:nonzero;stroke:none"
       id="path3129"
       d="m 0,0 c -1.409,0.375 -2.653,-0.492 -2.789,-1.944 -0.553,-5.901 1.27,-12.749 5.517,-18.841 4.247,-6.093 10.041,-10.173 15.769,-11.696 1.409,-0.374 2.653,0.493 2.789,1.945 0.553,5.901 -1.27,12.748 -5.517,18.841 C 11.521,-5.603 5.728,-1.523 0,0" />
  </g>
  <g
     id="g3131"
     transform="matrix(0.38935294,0,0,-0.39934046,161.053,82.790661)"
     style="fill:#8fc04b;fill-opacity:1">
    <path
       inkscape:connector-curvature="0"
       style="fill:#8fc04b;fill-opacity:1;fill-rule:nonzero;stroke:none"
       id="path3133"
       d="m 0,0 c -1.788,5.268 -5.917,10.176 -11.778,13.262 -5.862,3.086 -12.245,3.712 -17.6,2.205 -1.317,-0.371 -2.024,-1.712 -1.584,-3.008 1.788,-5.268 5.917,-10.176 11.778,-13.262 5.862,-3.086 12.245,-3.713 17.6,-2.206 C -0.267,-2.638 0.44,-1.296 0,0" />
  </g>
  <g
     id="g3135"
     transform="matrix(0.38935294,0,0,-0.39934046,155.54412,44.625096)"
     style="fill:#8fc04b;fill-opacity:1">
    <path
       inkscape:connector-curvature="0"
       style="fill:#8fc04b;fill-opacity:1;fill-rule:nonzero;stroke:none"
       id="path3137"
       d="m 0,0 c 0.489,1.374 -0.273,2.685 -1.709,2.939 -5.836,1.035 -12.81,-0.221 -19.23,-3.955 -6.42,-3.733 -10.961,-9.172 -12.948,-14.756 -0.489,-1.374 0.273,-2.685 1.709,-2.94 5.836,-1.035 12.809,0.222 19.23,3.955 C -6.528,-11.024 -1.987,-5.584 0,0" />
  </g>
  <g
     id="g3139"
     transform="matrix(0.38935294,0,0,-0.39934046,135.02775,31.386921)"
     style="fill:#8fc04b;fill-opacity:1">
    <path
       inkscape:connector-curvature="0"
       style="fill:#8fc04b;fill-opacity:1;fill-rule:nonzero;stroke:none"
       id="path3141"
       d="m 0,0 c 5.786,-1.283 12.807,-0.326 19.381,3.13 6.574,3.456 11.343,8.696 13.567,14.19 0.547,1.352 -0.158,2.694 -1.582,3.01 C 25.58,21.613 18.559,20.656 11.985,17.2 5.411,13.744 0.642,8.504 -1.582,3.01 -2.129,1.658 -1.424,0.316 0,0" />
  </g>
  <g
     id="g3143"
     transform="matrix(0.38935294,0,0,-0.39934046,110.78742,99.674418)"
     style="fill:#8fc04b;fill-opacity:1">
    <path
       inkscape:connector-curvature="0"
       style="fill:#8fc04b;fill-opacity:1;fill-rule:nonzero;stroke:none"
       id="path3145"
       d="m 0,0 c -1.203,0.825 -2.665,0.424 -3.279,-0.899 -2.495,-5.376 -3.068,-12.439 -1.104,-19.601 1.964,-7.163 6.059,-12.946 10.948,-16.297 1.202,-0.825 2.665,-0.424 3.279,0.899 2.495,5.376 3.067,12.439 1.103,19.601 C 8.983,-9.134 4.889,-3.351 0,0" />
  </g>
  <g
     id="g3147"
     transform="matrix(0.38935294,0,0,-0.39934046,35.328991,41.886818)"
     style="fill:#8fc04b;fill-opacity:1">
    <path
       inkscape:connector-curvature="0"
       style="fill:#8fc04b;fill-opacity:1;fill-rule:nonzero;stroke:none"
       id="path3149"
       d="m 0,0 c -4.475,3.887 -11.103,6.392 -18.529,6.489 -7.426,0.096 -14.117,-2.236 -18.691,-6.005 -1.126,-0.928 -1.145,-2.444 -0.044,-3.4 4.474,-3.887 11.102,-6.393 18.529,-6.489 7.426,-0.097 14.117,2.236 18.691,6.005 C 1.081,-2.472 1.101,-0.956 0,0" />
  </g>
  <g
     id="g3151"
     transform="matrix(0.38935294,0,0,-0.39934046,35.555244,28.829982)"
     style="fill:#8fc04b;fill-opacity:1">
    <path
       inkscape:connector-curvature="0"
       style="fill:#8fc04b;fill-opacity:1;fill-rule:nonzero;stroke:none"
       id="path3153"
       d="m 0,0 c 6.248,-4.016 13.158,-5.581 19.035,-4.808 1.445,0.191 2.265,1.466 1.838,2.861 -1.736,5.666 -6.031,11.303 -12.278,15.319 -6.248,4.015 -13.158,5.581 -19.035,4.807 -1.446,-0.19 -2.265,-1.465 -1.838,-2.86 C -10.542,9.652 -6.248,4.016 0,0" />
  </g>
  <g
     id="g3155"
     transform="matrix(0.38935294,0,0,-0.39934046,73.45809,21.499449)"
     style="fill:#8fc04b;fill-opacity:1">
    <path
       inkscape:connector-curvature="0"
       style="fill:#8fc04b;fill-opacity:1;fill-rule:nonzero;stroke:none"
       id="path3157"
       d="m 0,0 c -5.896,-0.609 -12.256,-3.732 -17.403,-9.086 -5.148,-5.354 -8.019,-11.832 -8.396,-17.747 -0.093,-1.455 1,-2.506 2.451,-2.356 5.896,0.608 12.256,3.732 17.403,9.086 5.148,5.353 8.019,11.831 8.396,17.746 C 2.544,-0.901 1.451,0.15 0,0" />
  </g>
  <g
     id="g3159"
     transform="matrix(0.38935294,0,0,-0.39934046,50.485995,44.727566)"
     style="fill:#8fc04b;fill-opacity:1">
    <path
       inkscape:connector-curvature="0"
       style="fill:#8fc04b;fill-opacity:1;fill-rule:nonzero;stroke:none"
       id="path3161"
       d="m 0,0 c -4.508,-2.724 -8.002,-7.414 -9.261,-13.217 -1.259,-5.803 -0.024,-11.52 2.95,-15.867 0.732,-1.07 2.214,-1.392 3.323,-0.721 4.508,2.723 8.002,7.414 9.261,13.217 1.259,5.803 0.024,11.52 -2.95,15.867 C 2.591,0.349 1.109,0.67 0,0" />
  </g>
  <g
     id="g3163"
     transform="matrix(0.38935294,0,0,-0.39934046,86.699788,14.769805)"
     style="fill:#8fc04b;fill-opacity:1">
    <path
       inkscape:connector-curvature="0"
       style="fill:#8fc04b;fill-opacity:1;fill-rule:nonzero;stroke:none"
       id="path3165"
       d="M 0,0 C 1.253,-0.746 2.687,-0.253 3.215,1.106 5.363,6.63 5.484,13.715 3.067,20.738 0.651,27.761 -3.804,33.271 -8.896,36.304 c -1.253,0.746 -2.687,0.253 -3.215,-1.106 -2.148,-5.525 -2.269,-12.609 0.147,-19.632 C -9.547,8.543 -5.092,3.033 0,0" />
  </g>
  <g
     id="g3167"
     transform="matrix(0.38935294,0,0,-0.39934046,80.536838,20.006117)"
     style="fill:#8fc04b;fill-opacity:1">
    <path
       inkscape:connector-curvature="0"
       style="fill:#8fc04b;fill-opacity:1;fill-rule:nonzero;stroke:none"
       id="path3169"
       d="m 0,0 c -1.447,0.179 -2.561,-0.85 -2.497,-2.307 0.258,-5.922 3,-12.455 8.04,-17.911 5.039,-5.455 11.336,-8.705 17.218,-9.431 1.447,-0.179 2.561,0.85 2.497,2.307 -0.258,5.921 -3,12.455 -8.039,17.91 C 12.179,-3.976 5.882,-0.726 0,0" />
  </g>
  <g
     id="g3171"
     transform="matrix(0.38935294,0,0,-0.39934046,103.8305,13.74841)"
     style="fill:#8fc04b;fill-opacity:1">
    <path
       inkscape:connector-curvature="0"
       style="fill:#8fc04b;fill-opacity:1;fill-rule:nonzero;stroke:none"
       id="path3173"
       d="m 0,0 c -4.667,-2.128 -8.823,-6.384 -11.179,-12.074 -2.357,-5.689 -2.429,-11.637 -0.633,-16.442 0.441,-1.182 1.721,-1.713 2.869,-1.189 4.667,2.128 8.823,6.384 11.18,12.074 2.356,5.689 2.428,11.637 0.633,16.442 C 2.428,-0.007 1.148,0.524 0,0" />
  </g>
  <g
     id="g3175"
     transform="matrix(0.38935294,0,0,-0.39934046,62.516494,0.52916452)"
     style="fill:#8fc04b;fill-opacity:1">
    <path
       inkscape:connector-curvature="0"
       style="fill:#8fc04b;fill-opacity:1;fill-rule:nonzero;stroke:none"
       id="path3177"
       d="m 0,0 c -0.616,1.322 -2.079,1.721 -3.28,0.895 -4.884,-3.359 -8.971,-9.147 -10.925,-16.312 -1.954,-7.165 -1.372,-14.227 1.13,-19.6 0.616,-1.322 2.079,-1.721 3.281,-0.895 4.884,3.359 8.97,9.147 10.924,16.312 C 3.085,-12.435 2.503,-5.373 0,0" />
  </g>
  <g
     id="g3179"
     transform="matrix(0.38935294,0,0,-0.39934046,118.94795,13.580687)"
     style="fill:#8fc04b;fill-opacity:1">
    <path
       inkscape:connector-curvature="0"
       style="fill:#8fc04b;fill-opacity:1;fill-rule:nonzero;stroke:none"
       id="path3181"
       d="m 0,0 c 5.071,-3.068 12.029,-4.409 19.363,-3.24 7.334,1.169 13.53,4.606 17.396,9.099 0.951,1.106 0.713,2.603 -0.535,3.358 -5.071,3.068 -12.029,4.409 -19.363,3.24 C 9.527,11.288 3.331,7.85 -0.535,3.358 -1.486,2.252 -1.248,0.755 0,0" />
  </g>
  <g
     id="g3183"
     transform="matrix(0.38935294,0,0,-0.39934046,139.02458,57.405949)"
     style="fill:#8fc04b;fill-opacity:1">
    <path
       inkscape:connector-curvature="0"
       style="fill:#8fc04b;fill-opacity:1;fill-rule:nonzero;stroke:none"
       id="path3185"
       d="m 0,0 c -5.561,2.05 -12.647,2.045 -19.626,-0.495 -6.979,-2.54 -12.41,-7.092 -15.352,-12.237 -0.724,-1.266 -0.206,-2.69 1.163,-3.195 5.561,-2.049 12.647,-2.045 19.626,0.495 6.979,2.54 12.409,7.092 15.352,12.237 C 1.887,-1.929 1.368,-0.504 0,0" />
  </g>
  <g
     id="g3187"
     transform="matrix(0.38935294,0,0,-0.39934046,129.01638,21.800673)"
     style="fill:#8fc04b;fill-opacity:1">
    <path
       inkscape:connector-curvature="0"
       style="fill:#8fc04b;fill-opacity:1;fill-rule:nonzero;stroke:none"
       id="path3189"
       d="m 0,0 c 0.39,1.405 -0.463,2.658 -1.914,2.81 -5.895,0.618 -12.761,-1.131 -18.9,-5.312 -6.138,-4.18 -10.281,-9.929 -11.866,-15.64 -0.39,-1.405 0.463,-2.658 1.913,-2.81 5.895,-0.617 12.762,1.132 18.9,5.312 C -5.728,-11.46 -1.585,-5.711 0,0" />
  </g>
  <g
     id="g3191"
     transform="matrix(0.38935294,0,0,-0.39934046,137.90733,43.915509)"
     style="fill:#73a33c;fill-opacity:1">
    <path
       inkscape:connector-curvature="0"
       style="fill:#73a33c;fill-opacity:1;fill-rule:nonzero;stroke:none"
       id="path3193"
       d="m 0,0 c 3.195,0 5.786,2.59 5.786,5.786 0,3.195 -2.591,5.786 -5.786,5.786 -3.196,0 -5.786,-2.591 -5.786,-5.786 C -5.786,2.59 -3.196,0 0,0" />
  </g>
  <g
     id="g3195"
     transform="matrix(0.38935294,0,0,-0.39934046,61.849065,92.487606)"
     style="fill:#73a33c;fill-opacity:1">
    <path
       inkscape:connector-curvature="0"
       style="fill:#73a33c;fill-opacity:1;fill-rule:nonzero;stroke:none"
       id="path3197"
       d="m 0,0 c -5.882,0 -6.863,5.76 -6.863,10.294 0,8.333 4.29,15.685 10.539,15.685 4.289,0 6.618,-3.676 6.618,-8.945 C 10.294,7.721 6.004,0 0,0 m 4.534,29.043 c -14.95,0 -20.955,-10.171 -20.955,-17.646 0,-10.171 7.597,-14.337 16.543,-14.337 11.887,0 19.974,8.21 19.974,17.646 0,9.558 -6.74,14.215 -15.562,14.337" />
  </g>
  <g
     id="g3199"
     transform="matrix(0.38935294,0,0,-0.39934046,83.272198,91.362108)"
     style="fill:#73a33c;fill-opacity:1">
    <path
       inkscape:connector-curvature="0"
       style="fill:#73a33c;fill-opacity:1;fill-rule:nonzero;stroke:none"
       id="path3201"
       d="m 0,0 c 0,0.614 -0.245,0.858 -0.858,0.858 -0.613,0 -1.471,-0.735 -3.063,-1.592 -1.839,-0.981 -4.167,-1.716 -6.495,-1.716 -4.29,0 -8.088,2.819 -8.088,10.293 0,8.088 4.779,14.46 10.538,14.46 4.535,0 5.148,-3.309 6.618,-3.309 0.612,0 0.858,0.246 0.858,0.981 0,1.838 -2.574,5.637 -9.068,5.637 -10.661,0 -18.627,-7.966 -18.627,-16.666 0,-6.862 3.185,-10.783 7.23,-12.744 2.94,-1.47 5.637,-1.839 7.965,-1.839 6.127,0 8.945,1.716 11.151,3.187 C -0.981,-1.837 0,-0.612 0,0" />
  </g>
  <g
     id="g3203"
     transform="matrix(0.38935294,0,0,-0.39934046,87.375626,92.732203)"
     style="fill:#73a33c;fill-opacity:1">
    <path
       inkscape:connector-curvature="0"
       style="fill:#73a33c;fill-opacity:1;fill-rule:nonzero;stroke:none"
       id="path3205"
       d="m 0,0 c 0,-1.225 0.49,-1.715 1.837,-1.715 l 6.128,0 c 1.593,0 2.329,1.225 2.941,3.309 1.471,4.901 3.554,17.522 4.656,23.159 3.187,0.123 7.843,0.614 10.785,1.717 1.715,0.612 2.696,1.225 2.696,2.818 0,0.735 -0.859,0.858 -1.348,0.858 -2.206,0 -4.902,-1.226 -17.892,-1.226 -9.313,0 -12.867,1.226 -14.582,1.226 -0.981,0 -2.084,-0.49 -2.084,-1.593 0,-0.491 0.368,-1.225 0.981,-1.594 C -3.799,25.612 -0.367,25.122 5.27,24.753 4.167,18.382 1.961,8.946 0.612,3.309 0.367,2.206 0,0.736 0,0" />
  </g>
  <g
     id="g3207"
     transform="matrix(0.38935294,0,0,-0.39934046,107.36695,92.34045)"
     style="fill:#73a33c;fill-opacity:1">
    <path
       inkscape:connector-curvature="0"
       style="fill:#73a33c;fill-opacity:1;fill-rule:nonzero;stroke:none"
       id="path3209"
       d="m 0,0 c -2.696,0 -5.024,1.347 -6.985,3.921 1.103,6.372 1.837,12.622 2.206,16.298 2.206,3.798 5.024,5.27 8.088,5.27 3.308,0 6.126,-3.432 6.126,-10.417 C 9.435,8.946 6.495,0 0,0 m 6.74,28.675 c -4.903,0 -8.701,-1.594 -11.519,-4.658 -0.123,2.33 -0.369,3.922 -2.451,3.922 l -2.942,0 c -1.715,0 -2.818,-0.735 -3.062,-1.961 -0.369,-2.328 -0.859,-9.803 -3.309,-23.405 -1.839,-10.294 -5.393,-27.573 -10.785,-41.297 -5.146,-13.111 -14.582,-31.739 -31.493,-45.953 -3.063,-2.573 -8.578,-6.25 -12.132,-7.72 -0.858,-0.368 -1.347,-0.981 -1.347,-1.471 0,-0.367 0.245,-0.735 0.98,-0.735 2.328,0 5.269,1.716 9.681,4.289 22.057,12.99 37.253,39.213 41.296,49.507 8.21,20.71 10.416,30.023 12.745,41.42 2.328,-2.819 6.495,-3.8 10.171,-3.8 5.759,0 17.034,5.025 17.034,17.279 0,8.088 -5.392,14.583 -12.867,14.583" />
  </g>
  <g
     id="g3211"
     transform="matrix(0.38935294,0,0,-0.39934046,123.87575,92.487606)"
     style="fill:#73a33c;fill-opacity:1">
    <path
       inkscape:connector-curvature="0"
       style="fill:#73a33c;fill-opacity:1;fill-rule:nonzero;stroke:none"
       id="path3213"
       d="m 0,0 c -5.882,0 -6.863,5.76 -6.863,10.294 0,8.333 4.29,15.685 10.539,15.685 4.289,0 6.618,-3.676 6.618,-8.945 C 10.294,7.721 6.004,0 0,0 m 4.534,29.043 c -14.95,0 -20.955,-10.171 -20.955,-17.646 0,-10.171 7.597,-14.337 16.543,-14.337 11.887,0 19.974,8.21 19.974,17.646 0,9.558 -6.74,14.215 -15.562,14.337" />
  </g>
  <g
     id="g3215"
     transform="matrix(0.38935294,0,0,-0.39934046,142.57922,82.357578)"
     style="fill:#73a33c;fill-opacity:1">
    <path
       inkscape:connector-curvature="0"
       style="fill:#73a33c;fill-opacity:1;fill-rule:nonzero;stroke:none"
       id="path3217"
       d="m 0,0 c 3.186,0 5.514,-2.573 5.514,-8.824 0,-6.004 -4.044,-17.155 -11.151,-17.155 -3.676,0 -5.76,3.676 -5.76,7.842 C -11.397,-8.578 -6.372,0 0,0 m 16.543,45.096 c 6.128,7.352 16.543,16.298 24.386,16.298 5.76,0 8.333,-3.309 8.333,-7.598 0,-16.543 -25.489,-28.43 -47.301,-29.777 4.166,7.965 8.945,14.337 14.582,21.077 m 35.905,8.946 c 0,5.391 -3.431,10.17 -10.294,10.17 -20.71,0 -40.317,-23.528 -49.384,-39.459 -18.014,0.858 -30.268,5.515 -42.4,12.01 -6.127,3.308 -10.293,7.23 -11.029,7.23 -0.613,0 -0.98,0 -0.98,-0.736 0,-0.489 0.489,-1.103 1.103,-1.715 5.637,-5.882 25.978,-17.892 51.712,-19.607 -5.758,-9.435 -10.538,-24.753 -10.538,-33.454 0,-11.151 5.759,-17.157 13.725,-17.157 10.538,0 19.974,8.088 19.974,19.485 0,10.049 -7.107,12.622 -10.048,12.622 -4.656,0 -8.701,-0.98 -12.377,-4.657 2.696,10.049 5.759,16.912 8.7,22.303 21.078,0.736 51.836,12.867 51.836,32.965" />
  </g>
  <g
     id="g3219"
     transform="matrix(0.38935294,0,0,-0.39934046,32.220475,54.758242)"
     style="fill:#73a33c;fill-opacity:1">
    <path
       inkscape:connector-curvature="0"
       style="fill:#73a33c;fill-opacity:1;fill-rule:nonzero;stroke:none"
       id="path3221"
       d="M 0,0 C 4.534,0 13.725,5.759 18.137,9.068 36.641,23.283 45.708,40.071 52.204,49.875 57.841,31.371 63.232,12.5 77.448,12.5 c 4.166,0 6.739,0.98 8.7,3.062 0.489,0.491 1.103,1.349 1.103,2.206 0,0.491 -0.245,0.736 -0.614,0.736 -0.244,0 -0.612,-0.123 -0.979,-0.491 -1.471,-1.47 -2.942,-1.837 -4.657,-1.837 -1.961,0 -4.78,0.612 -7.965,5.146 -4.657,6.618 -8.824,20.832 -11.888,38.724 4.781,9.558 17.034,25.857 22.427,32.106 7.965,9.191 13.479,13.113 15.807,14.705 2.819,1.96 4.412,3.063 4.412,3.799 0,0.613 -0.49,0.736 -1.103,0.736 -0.735,0 -2.696,-0.736 -3.676,-1.226 -15.809,-7.965 -30.391,-27.572 -39.704,-43.135 -1.225,4.411 -2.573,9.558 -5.146,18.503 -4.29,15.073 -12.867,21.079 -22.058,21.079 -4.29,0 -8.088,-1.348 -10.662,-4.045 -0.245,-0.245 -0.49,-0.98 -0.49,-1.225 0,-0.614 0.367,-0.858 0.858,-0.858 0.367,0 0.857,0.49 1.225,0.735 1.96,1.348 3.799,1.839 5.882,1.839 2.696,0 4.29,-0.613 6.618,-2.697 C 40.562,95.706 44.974,83.207 50.243,57.594 44.483,46.689 23.406,12.622 -0.122,1.961 -0.858,1.594 -1.593,1.225 -1.593,0.613 -1.593,0 -0.98,0 0,0" />
  </g>
  <g
     id="g3223"
     transform="matrix(0.38935294,0,0,-0.39934046,75.950068,36.893225)"
     style="fill:#73a33c;fill-opacity:1">
    <path
       inkscape:connector-curvature="0"
       style="fill:#73a33c;fill-opacity:1;fill-rule:nonzero;stroke:none"
       id="path3225"
       d="m 0,0 c 4.29,0 6.618,-3.676 6.618,-8.946 0,-9.313 -4.289,-17.033 -10.294,-17.033 -5.882,0 -6.862,5.76 -6.862,10.293 C -10.538,-7.352 -6.249,0 0,0 m -20.096,-14.583 c 0,-10.17 7.597,-14.337 16.543,-14.337 11.886,0 19.974,8.21 19.974,17.646 0,9.559 -6.74,14.216 -15.563,14.338 -14.95,0 -20.954,-10.171 -20.954,-17.647" />
  </g>
  <g
     id="g3227"
     transform="matrix(0.38935294,0,0,-0.39934046,92.935783,37.13782)"
     style="fill:#73a33c;fill-opacity:1">
    <path
       inkscape:connector-curvature="0"
       style="fill:#73a33c;fill-opacity:1;fill-rule:nonzero;stroke:none"
       id="path3229"
       d="m 0,0 c 4.289,0 6.495,-3.554 6.495,-8.824 0,-8.822 -4.534,-17.646 -10.907,-17.646 -4.165,0 -6.616,3.922 -6.616,10.294 C -11.028,-8.333 -6.74,0 0,0 m -11.519,-27.573 c 2.084,-0.734 5.76,-1.102 7.476,-1.102 1.96,0 4.779,0 7.842,1.347 5.392,2.33 10.784,7.598 10.784,15.931 0,2.329 -0.122,6.251 -1.225,11.03 -2.697,11.886 -6.373,23.405 -6.373,36.884 0,13.848 4.779,25.489 12.5,33.455 4.534,4.656 9.925,7.965 15.685,10.293 12.01,4.902 17.278,3.309 17.278,5.393 0,0.489 -0.612,0.857 -1.103,0.857 -9.435,0 -24.386,-3.308 -35.292,-10.906 C 4.045,67.154 -1.961,56.982 -1.961,42.645 -1.961,28.553 4.902,13.48 9.681,-1.961 6.005,2.573 0.49,2.94 -1.961,2.94 c -10.048,0 -18.504,-7.719 -18.504,-16.665 0,-6.618 3.431,-11.887 8.946,-13.848" />
  </g>
  <g
     id="g3231"
     transform="matrix(0.38935294,0,0,-0.39934046,107.67883,47.708323)"
     style="fill:#73a33c;fill-opacity:1">
    <path
       inkscape:connector-curvature="0"
       style="fill:#73a33c;fill-opacity:1;fill-rule:nonzero;stroke:none"
       id="path3233"
       d="m 0,0 c -4.165,0 -6.617,3.921 -6.617,10.294 0,7.843 4.289,16.176 11.029,16.176 4.29,0 6.494,-3.554 6.494,-8.824 C 10.906,8.824 6.373,0 0,0 m 2.451,69.115 c 0,-14.093 6.863,-29.166 11.642,-44.606 -3.676,4.534 -9.191,4.901 -11.642,4.901 -10.049,0 -18.504,-7.719 -18.504,-16.665 0,-6.618 3.431,-11.887 8.946,-13.848 2.083,-0.734 5.76,-1.102 7.475,-1.102 1.961,0 4.78,0 7.843,1.347 5.392,2.329 10.783,7.598 10.783,15.931 0,2.329 -0.122,6.25 -1.225,11.03 -2.696,11.886 -6.372,23.405 -6.372,36.884 0,13.848 4.779,25.489 12.5,33.455 4.534,4.656 9.925,7.965 15.685,10.293 12.009,4.902 17.278,3.309 17.278,5.392 0,0.49 -0.613,0.858 -1.102,0.858 -9.436,0 -24.387,-3.309 -35.292,-10.906 C 8.456,93.624 2.451,83.452 2.451,69.115" />
  </g>
  <g
     id="g3235"
     transform="matrix(0.38935294,0,0,-0.39934046,128.43356,36.501472)"
     style="fill:#73a33c;fill-opacity:1">
    <path
       inkscape:connector-curvature="0"
       style="fill:#73a33c;fill-opacity:1;fill-rule:nonzero;stroke:none"
       id="path3237"
       d="m 0,0 c -1.226,-2.329 -4.167,-9.927 -6.495,-15.196 -2.941,-6.617 -6.25,-9.68 -8.7,-9.68 -1.471,0 -2.818,1.225 -2.818,5.269 0,6.862 5.268,18.626 5.268,19.729 0,0.612 -0.122,1.225 -1.225,1.225 l -5.392,0 c -0.857,0 -1.471,-0.367 -1.96,-0.98 -0.981,-1.226 -5.76,-9.313 -5.76,-18.627 0,-6.74 3.431,-11.028 7.842,-11.028 8.456,0 13.235,9.191 14.338,11.273 0.368,-4.166 2.329,-11.764 11.151,-11.764 1.103,0 4.045,0.491 4.045,1.716 0,0.735 -0.614,0.735 -0.858,0.735 -0.368,0 -0.981,-0.122 -1.716,-0.122 -3.186,0 -3.799,3.799 -3.799,5.759 0,4.779 1.471,12.01 2.941,16.543 0.858,2.697 1.715,4.167 1.715,5.148 0,0.367 0,1.347 -1.225,1.347 l -5.269,0 C 1.103,1.347 0.49,0.98 0,0" />
  </g>
  <g
     id="g3239"
     transform="matrix(0.38935294,0,0,-0.39934046,28.289879,58.726248)"
     style="fill:#73a33c;fill-opacity:1">
    <path
       inkscape:connector-curvature="0"
       style="fill:#73a33c;fill-opacity:1;fill-rule:nonzero;stroke:none"
       id="path3241"
       d="m 0,0 c -2.206,0 -4.901,-1.226 -17.891,-1.226 -9.313,0 -12.866,1.226 -14.582,1.226 -0.981,0 -2.084,-0.49 -2.084,-1.593 0,-0.491 0.368,-1.225 0.981,-1.594 2.083,-1.347 5.514,-1.837 11.151,-2.205 -1.103,-6.372 -3.308,-15.808 -4.657,-21.445 -0.244,-1.103 -0.613,-2.573 -0.613,-3.309 0,-1.225 0.491,-1.715 1.839,-1.715 l 6.127,0 c 1.592,0 2.328,1.225 2.941,3.309 1.471,4.901 3.554,17.522 4.657,23.16 3.185,0.122 7.842,0.613 10.783,1.716 1.716,0.612 2.696,1.225 2.696,2.818 C 1.348,-0.123 0.49,0 0,0" />
  </g>
  <g
     id="g3243"
     transform="matrix(0.38935294,0,0,-0.39934046,35.828375,70.666844)"
     style="fill:#73a33c;fill-opacity:1">
    <path
       inkscape:connector-curvature="0"
       style="fill:#73a33c;fill-opacity:1;fill-rule:nonzero;stroke:none"
       id="path3245"
       d="m 0,0 c -3.431,0 -4.656,3.186 -4.656,7.598 0,3.676 1.47,8.823 4.534,13.112 2.573,3.676 6.249,6.249 9.191,6.249 3.309,0 4.167,-3.431 4.167,-6.371 0,-3.8 -2.452,-11.275 -5.637,-15.564 C 5.638,2.451 3.187,0 0,0 m 15.073,-1.715 c 1.839,-2.084 5.148,-2.942 6.25,-2.942 1.103,0 1.961,0.245 1.961,0.981 0,0.49 -0.245,0.736 -0.858,1.348 -1.348,1.347 -2.205,3.431 -2.205,7.107 0,4.412 2.449,14.583 4.165,19.73 0.49,1.47 0.981,2.695 0.981,3.431 0,0.491 -0.491,0.735 -1.103,0.735 l -5.392,0 c -1.226,0 -1.715,-0.49 -2.084,-1.103 -0.489,-0.858 -1.103,-2.696 -1.347,-3.676 -0.981,3.921 -4.044,6.005 -7.72,6.005 -3.309,0 -7.965,-0.981 -10.539,-2.329 -6.985,-3.676 -11.274,-10.784 -11.274,-18.259 0,-6.495 5.024,-12.253 12.377,-12.253 6.739,0 11.151,5.636 13.112,9.189 0.245,-3.676 1.839,-5.759 3.676,-7.964" />
  </g>
  <g
     id="g3247"
     transform="matrix(0.38935294,0,0,-0.39934046,54.15039,64.843464)"
     style="fill:#73a33c;fill-opacity:1">
    <path
       inkscape:connector-curvature="0"
       style="fill:#73a33c;fill-opacity:1;fill-rule:nonzero;stroke:none"
       id="path3249"
       d="m 0,0 c -1.839,-0.612 -3.799,-0.858 -6.127,-0.858 1.103,7.965 5.759,13.113 10.416,13.113 1.96,0 3.799,-0.981 3.799,-4.045 C 8.088,4.779 4.901,1.47 0,0 m 14.95,7.23 c 0,5.515 -4.779,7.843 -10.049,7.843 -12.009,0 -20.464,-8.088 -20.464,-17.401 0,-10.661 7.597,-15.195 15.808,-15.195 4.779,0 8.945,1.47 11.886,3.921 0.858,0.735 1.594,1.471 1.594,2.083 0,0.736 -0.491,0.98 -0.981,0.98 -0.367,0 -1.103,-0.613 -2.695,-1.592 -1.839,-1.103 -4.903,-1.961 -6.985,-1.961 -6.74,0 -9.437,4.779 -9.437,10.661 7.965,0.245 21.323,2.328 21.323,10.661" />
  </g>
  <g
     id="g3251"
     transform="matrix(0.38935294,0,0,-0.39934046,76.670408,67.926653)"
     style="fill:#73a33c;fill-opacity:1">
    <path
       inkscape:connector-curvature="0"
       style="fill:#73a33c;fill-opacity:1;fill-rule:nonzero;stroke:none"
       id="path3253"
       d="m 0,0 c 0,-5.146 2.696,-9.313 7.843,-9.313 1.715,0 3.799,0.49 4.657,1.103 0.612,0.367 1.103,0.981 1.103,1.593 0,0.736 -0.736,0.858 -1.47,0.858 -2.206,0 -2.697,3.676 -2.697,5.882 0,2.941 0.858,8.823 1.961,13.358 0.858,3.431 1.593,6.126 1.593,6.985 0,0.734 -0.245,1.347 -0.981,1.347 l -3.921,0 C 7.23,21.813 6.372,21.569 5.637,20.955 2.818,18.505 -1.103,13.97 -4.656,9.681 -5.759,8.456 -8.087,5.638 -10.416,2.574 c 0.245,1.471 0.367,3.064 0.736,5.025 0.858,5.513 1.96,10.906 1.96,12.867 0,1.225 -1.348,1.347 -2.573,1.347 l -3.921,0 c -2.206,0 -4.045,-2.695 -5.148,-4.289 -13.97,-20.955 -32.841,-43.993 -53.06,-43.993 -6.985,0 -12.255,1.225 -18.014,6.985 -1.716,1.716 -3.063,3.677 -3.921,5.27 -0.245,0.367 -0.49,0.858 -0.981,0.858 -0.736,0 -0.858,-0.858 -0.858,-1.348 0,-0.736 0.491,-1.961 1.349,-3.309 5.513,-8.946 14.459,-11.764 22.425,-11.764 19.484,0 34.311,15.194 43.625,27.572 6.126,8.21 9.313,13.725 11.519,17.156 -1.838,-8.333 -4.166,-18.013 -4.166,-21.446 0,-1.715 0.857,-2.328 2.451,-2.328 l 3.431,0 c 1.348,0 2.328,1.349 3.921,3.555 C -4.289,4.535 -1.347,7.843 2.206,12.255 0.49,6.741 0,3.309 0,0" />
  </g>
  <g
     id="g3255"
     transform="matrix(0.38935294,0,0,-0.39934046,101.81502,70.520168)"
     style="fill:#73a33c;fill-opacity:1">
    <path
       inkscape:connector-curvature="0"
       style="fill:#73a33c;fill-opacity:1;fill-rule:nonzero;stroke:none"
       id="path3257"
       d="m 0,0 c 0,0.368 -0.122,0.858 -0.612,0.858 -0.613,0 -1.225,-0.613 -2.328,-0.613 -1.103,0 -2.942,0.858 -2.942,5.392 0,1.348 0.245,6.005 1.103,9.681 1.47,6.373 3.799,10.049 3.799,11.274 0,0.858 -0.123,1.593 -1.593,1.715 l -4.534,0 c -0.981,0 -1.839,-0.367 -2.328,-1.225 -3.309,-5.391 -5.148,-13.112 -5.148,-18.382 0,-3.676 1.103,-6.739 1.961,-7.964 1.839,-2.574 4.29,-3.431 6.863,-3.431 C -3.064,-2.695 0,-1.103 0,0" />
  </g>
  <g
     id="g3259"
     transform="matrix(0.38935294,0,0,-0.39934046,87.978385,65.479773)"
     style="fill:#73a33c;fill-opacity:1">
    <path
       inkscape:connector-curvature="0"
       style="fill:#73a33c;fill-opacity:1;fill-rule:nonzero;stroke:none"
       id="path3261"
       d="m 0,0 c 0.981,0.736 2.696,1.593 5.024,1.593 3.064,0 4.29,-3.554 4.29,-6.372 0,-4.901 -4.044,-8.701 -7.108,-8.701 -2.941,0 -3.921,2.697 -3.921,5.637 0,1.839 0.98,5.882 1.715,7.843 m -5.024,-13.847 c 1.716,-1.225 5.024,-1.715 6.617,-1.715 2.084,0 4.167,0.245 6.128,0.979 4.166,1.472 9.313,4.658 9.313,10.907 0,2.942 -1.838,8.088 -9.068,8.088 -2.084,0 -4.902,-0.367 -7.23,-1.594 2.206,6.985 4.166,10.049 4.166,11.642 0,0.858 -0.367,1.103 -1.838,1.225 l -4.411,0 c -0.981,0 -1.961,-0.244 -2.818,-1.715 -4.045,-6.74 -5.148,-14.214 -5.148,-18.135 0,-5.025 2.084,-8.212 4.289,-9.682" />
  </g>
  <g
     id="g3263"
     transform="matrix(0.38935294,0,0,-0.39934046,119.18222,70.520168)"
     style="fill:#73a33c;fill-opacity:1">
    <path
       inkscape:connector-curvature="0"
       style="fill:#73a33c;fill-opacity:1;fill-rule:nonzero;stroke:none"
       id="path3265"
       d="m 0,0 c 0,0.614 -0.368,0.858 -0.981,0.858 -0.49,0 -1.961,-0.613 -2.818,-0.613 -3.676,0 -4.289,3.8 -4.289,6.985 0,6.249 4.043,17.034 4.043,19.73 0,0.368 0,1.347 -1.225,1.347 l -5.636,0 c -0.981,0 -1.717,-0.367 -2.084,-1.347 -0.736,-2.329 -2.573,-11.029 -4.901,-16.176 -3.064,-6.863 -6.006,-9.803 -8.579,-9.803 -2.206,0 -3.309,1.961 -3.309,5.514 0,8.945 4.657,19.239 4.657,20.342 0,0.491 0,1.47 -1.348,1.47 l -4.901,0 c -0.859,0 -1.593,-0.367 -1.962,-0.734 -0.98,-0.491 -5.146,-6.373 -5.146,-19.24 0,-6.74 4.412,-11.273 8.455,-11.273 8.455,0 12.377,8.455 13.725,11.273 0,-3.676 1.471,-11.273 9.558,-11.273 1.961,0 4.779,0.734 6.127,1.837 C -0.123,-0.734 0,-0.367 0,0" />
  </g>
  <g
     id="g3267"
     transform="matrix(0.38935294,0,0,-0.39934046,111.3811,52.527206)"
     style="fill:#73a33c;fill-opacity:1">
    <path
       inkscape:connector-curvature="0"
       style="fill:#73a33c;fill-opacity:1;fill-rule:nonzero;stroke:none"
       id="path3269"
       d="m 0,0 c -2.201,1.335 -4.935,0.844 -6.397,-1.566 -1.525,-2.514 -0.469,-5.735 2.674,-7.642 1.362,-0.826 3.124,-1.465 5.287,-1.917 3.296,-0.709 7.209,0.071 9.188,0.733 4.734,1.427 8.131,3.953 8.957,5.316 0.445,0.733 0.426,1.174 0.006,1.429 -0.418,0.253 -1.091,0.09 -1.85,-0.453 C 14.954,-6.062 11.689,-7.664 8.45,-8.28 5.041,-8.935 2.521,-8.839 -0.098,-7.25 0.26,-6.894 0.937,-6.016 1.128,-5.701 2.59,-3.291 1.675,-1.016 0,0" />
  </g>
</svg>
