<?xml version="1.0" encoding="utf-8"?>
<!-- Generator: Adobe Illustrator 17.0.1, SVG Export Plug-In . SVG Version: 6.00 Build 0)  -->
<!DOCTYPE svg PUBLIC "-//W3C//DTD SVG 1.1//EN" "http://www.w3.org/Graphics/SVG/1.1/DTD/svg11.dtd">
<svg version="1.1"
	 id="svg2" xmlns:dc="http://purl.org/dc/elements/1.1/" xmlns:cc="http://creativecommons.org/ns#" xmlns:rdf="http://www.w3.org/1999/02/22-rdf-syntax-ns#" xmlns:svg="http://www.w3.org/2000/svg" xmlns:sodipodi="http://sodipodi.sourceforge.net/DTD/sodipodi-0.dtd" xmlns:inkscape="http://www.inkscape.org/namespaces/inkscape" sodipodi:docname="logo_hobbi.svg" inkscape:version="0.48.5 r10040"
	 xmlns="http://www.w3.org/2000/svg" xmlns:xlink="http://www.w3.org/1999/xlink" x="0px" y="0px" width="148.165px"
	 height="130.119px" viewBox="14.835 0 148.165 130.119" style="enable-background:new 14.835 0 148.165 130.119;"
	 xml:space="preserve">
<style type="text/css">
	.st0{fill:#8FC04B;}
	.st1{fill:#73A33C;}
</style>
<sodipodi:namedview  inkscape:cy="145.83541" inkscape:cx="-12.673026" inkscape:zoom="0.80546422" showgrid="false" id="namedview144" guidetolerance="10" gridtolerance="10" objecttolerance="10" borderopacity="1" bordercolor="#666666" pagecolor="#ffffff" inkscape:current-layer="svg2" inkscape:window-maximized="1" inkscape:window-y="-8" inkscape:window-width="1920" inkscape:pageshadow="2" inkscape:pageopacity="0" inkscape:window-x="-8" inkscape:window-height="1027">
	</sodipodi:namedview>
<g id="g3111" transform="matrix(0.38935294,0,0,-0.39934046,50.750054,91.403559)">
	<path id="path3113" inkscape:connector-curvature="0" class="st0" d="M0,0c-5.762-1.389-11.649-5.333-16.036-11.326
		c-4.388-5.992-6.37-12.795-5.954-18.707c0.102-1.455,1.325-2.351,2.743-2.009c5.762,1.389,11.648,5.333,16.036,11.326
		c4.388,5.992,6.37,12.795,5.954,18.707C2.641-0.554,1.418,0.342,0,0"/>
</g>
<g id="g3115" transform="matrix(0.38935294,0,0,-0.39934046,67.705052,96.99668)">
	<path id="path3117" inkscape:connector-curvature="0" class="st0" d="M0,0c-5.188-2.866-9.82-8.228-12.464-15.168
		s-2.754-14.025-0.787-19.617c0.484-1.375,1.901-1.915,3.177-1.21c5.189,2.866,9.82,8.228,12.464,15.168S5.144-6.802,3.177-1.21
		C2.693,0.165,1.277,0.705,0,0"/>
</g>
<g id="g3119" transform="matrix(0.38935294,0,0,-0.39934046,84.972814,98.672594)">
	<path id="path3121" inkscape:connector-curvature="0" class="st0" d="M0,0c-4.719-3.586-8.527-9.562-10.14-16.811
		c-1.612-7.25-0.696-14.276,2.058-19.524c0.678-1.292,2.158-1.621,3.319-0.738c4.72,3.585,8.527,9.561,10.14,16.811
		C6.989-13.013,6.073-5.986,3.319-0.738C2.641,0.553,1.161,0.882,0,0"/>
</g>
<g id="g3123" transform="matrix(0.38935294,0,0,-0.39934046,41.797701,81.890349)">
	<path id="path3125" inkscape:connector-curvature="0" class="st0" d="M0,0c-5.771,1.351-12.803,0.476-19.416-2.903
		c-6.614-3.378-11.445-8.563-13.733-14.03c-0.563-1.346,0.127-2.696,1.547-3.028c5.771-1.351,12.803-0.476,19.417,2.903
		C-5.572-13.68-0.741-8.496,1.547-3.028C2.11-1.683,1.42-0.333,0,0"/>
</g>
<g id="g3127" transform="matrix(0.38935294,0,0,-0.39934046,126.34608,98.028257)">
	<path id="path3129" inkscape:connector-curvature="0" class="st0" d="M0,0c-1.409,0.375-2.653-0.492-2.789-1.944
		c-0.553-5.901,1.27-12.749,5.517-18.841c4.247-6.093,10.041-10.173,15.769-11.696c1.409-0.374,2.653,0.493,2.789,1.945
		c0.553,5.901-1.27,12.748-5.517,18.841C11.521-5.603,5.728-1.523,0,0"/>
</g>
<g id="g3131" transform="matrix(0.38935294,0,0,-0.39934046,161.053,82.790661)">
	<path id="path3133" inkscape:connector-curvature="0" class="st0" d="M0,0c-1.788,5.268-5.917,10.176-11.778,13.262
		c-5.862,3.086-12.245,3.712-17.6,2.205c-1.317-0.371-2.024-1.712-1.584-3.008c1.788-5.268,5.917-10.176,11.778-13.262
		c5.862-3.086,12.245-3.713,17.6-2.206C-0.267-2.638,0.44-1.296,0,0"/>
</g>
<g id="g3135" transform="matrix(0.38935294,0,0,-0.39934046,155.54412,44.625096)">
	<path id="path3137" inkscape:connector-curvature="0" class="st0" d="M0,0c0.489,1.374-0.273,2.685-1.709,2.939
		c-5.836,1.035-12.81-0.221-19.23-3.955c-6.42-3.733-10.961-9.172-12.948-14.756c-0.489-1.374,0.273-2.685,1.709-2.94
		c5.836-1.035,12.809,0.222,19.23,3.955C-6.528-11.024-1.987-5.584,0,0"/>
</g>
<g id="g3139" transform="matrix(0.38935294,0,0,-0.39934046,135.02775,31.386921)">
	<path id="path3141" inkscape:connector-curvature="0" class="st0" d="M0,0c5.786-1.283,12.807-0.326,19.381,3.13
		s11.343,8.696,13.567,14.19c0.547,1.352-0.158,2.694-1.582,3.01c-5.786,1.283-12.807,0.326-19.381-3.13S0.642,8.504-1.582,3.01
		C-2.129,1.658-1.424,0.316,0,0"/>
</g>
<g id="g3143" transform="matrix(0.38935294,0,0,-0.39934046,110.78742,99.674418)">
	<path id="path3145" inkscape:connector-curvature="0" class="st0" d="M0,0c-1.203,0.825-2.665,0.424-3.279-0.899
		C-5.774-6.275-6.347-13.338-4.383-20.5c1.964-7.163,6.059-12.946,10.948-16.297c1.202-0.825,2.665-0.424,3.279,0.899
		c2.495,5.376,3.067,12.439,1.103,19.601C8.983-9.134,4.889-3.351,0,0"/>
</g>
<g id="g3147" transform="matrix(0.38935294,0,0,-0.39934046,35.328991,41.886818)">
	<path id="path3149" inkscape:connector-curvature="0" class="st0" d="M0,0c-4.475,3.887-11.103,6.392-18.529,6.489
		c-7.426,0.096-14.117-2.236-18.691-6.005c-1.126-0.928-1.145-2.444-0.044-3.4c4.474-3.887,11.102-6.393,18.529-6.489
		C-11.309-9.502-4.618-7.169-0.044-3.4C1.081-2.472,1.101-0.956,0,0"/>
</g>
<g id="g3151" transform="matrix(0.38935294,0,0,-0.39934046,35.555244,28.829982)">
	<path id="path3153" inkscape:connector-curvature="0" class="st0" d="M0,0c6.248-4.016,13.158-5.581,19.035-4.808
		c1.445,0.191,2.265,1.466,1.838,2.861C19.137,3.719,14.842,9.356,8.595,13.372c-6.248,4.015-13.158,5.581-19.035,4.807
		c-1.446-0.19-2.265-1.465-1.838-2.86C-10.542,9.652-6.248,4.016,0,0"/>
</g>
<g id="g3155" transform="matrix(0.38935294,0,0,-0.39934046,73.45809,21.499449)">
	<path id="path3157" inkscape:connector-curvature="0" class="st0" d="M0,0c-5.896-0.609-12.256-3.732-17.403-9.086
		c-5.148-5.354-8.019-11.832-8.396-17.747c-0.093-1.455,1-2.506,2.451-2.356c5.896,0.608,12.256,3.732,17.403,9.086
		C-0.797-14.75,2.074-8.272,2.451-2.357C2.544-0.901,1.451,0.15,0,0"/>
</g>
<g id="g3159" transform="matrix(0.38935294,0,0,-0.39934046,50.485995,44.727566)">
	<path id="path3161" inkscape:connector-curvature="0" class="st0" d="M0,0c-4.508-2.724-8.002-7.414-9.261-13.217
		s-0.024-11.52,2.95-15.867c0.732-1.07,2.214-1.392,3.323-0.721c4.508,2.723,8.002,7.414,9.261,13.217s0.024,11.52-2.95,15.867
		C2.591,0.349,1.109,0.67,0,0"/>
</g>
<g id="g3163" transform="matrix(0.38935294,0,0,-0.39934046,86.699788,14.769805)">
	<path id="path3165" inkscape:connector-curvature="0" class="st0" d="M0,0c1.253-0.746,2.687-0.253,3.215,1.106
		C5.363,6.63,5.484,13.715,3.067,20.738C0.651,27.761-3.804,33.271-8.896,36.304c-1.253,0.746-2.687,0.253-3.215-1.106
		c-2.148-5.525-2.269-12.609,0.147-19.632C-9.547,8.543-5.092,3.033,0,0"/>
</g>
<g id="g3167" transform="matrix(0.38935294,0,0,-0.39934046,80.536838,20.006117)">
	<path id="path3169" inkscape:connector-curvature="0" class="st0" d="M0,0c-1.447,0.179-2.561-0.85-2.497-2.307
		c0.258-5.922,3-12.455,8.04-17.911c5.039-5.455,11.336-8.705,17.218-9.431c1.447-0.179,2.561,0.85,2.497,2.307
		c-0.258,5.921-3,12.455-8.039,17.91C12.179-3.976,5.882-0.726,0,0"/>
</g>
<g id="g3171" transform="matrix(0.38935294,0,0,-0.39934046,103.8305,13.74841)">
	<path id="path3173" inkscape:connector-curvature="0" class="st0" d="M0,0c-4.667-2.128-8.823-6.384-11.179-12.074
		c-2.357-5.689-2.429-11.637-0.633-16.442c0.441-1.182,1.721-1.713,2.869-1.189c4.667,2.128,8.823,6.384,11.18,12.074
		C4.593-11.942,4.665-5.994,2.87-1.189C2.428-0.007,1.148,0.524,0,0"/>
</g>
<g id="g3175" transform="matrix(0.38935294,0,0,-0.39934046,62.516494,0.52916452)">
	<path id="path3177" inkscape:connector-curvature="0" class="st0" d="M0,0c-0.616,1.322-2.079,1.721-3.28,0.895
		c-4.884-3.359-8.971-9.147-10.925-16.312s-1.372-14.227,1.13-19.6c0.616-1.322,2.079-1.721,3.281-0.895
		C-4.91-32.553-0.824-26.765,1.13-19.6C3.085-12.435,2.503-5.373,0,0"/>
</g>
<g id="g3179" transform="matrix(0.38935294,0,0,-0.39934046,118.94795,13.580687)">
	<path id="path3181" inkscape:connector-curvature="0" class="st0" d="M0,0c5.071-3.068,12.029-4.409,19.363-3.24
		s13.53,4.606,17.396,9.099c0.951,1.106,0.713,2.603-0.535,3.358c-5.071,3.068-12.029,4.409-19.363,3.24S3.331,7.85-0.535,3.358
		C-1.486,2.252-1.248,0.755,0,0"/>
</g>
<g id="g3183" transform="matrix(0.38935294,0,0,-0.39934046,139.02458,57.405949)">
	<path id="path3185" inkscape:connector-curvature="0" class="st0" d="M0,0c-5.561,2.05-12.647,2.045-19.626-0.495
		s-12.41-7.092-15.352-12.237c-0.724-1.266-0.206-2.69,1.163-3.195c5.561-2.049,12.647-2.045,19.626,0.495S-1.78-8.34,1.163-3.195
		C1.887-1.929,1.368-0.504,0,0"/>
</g>
<g id="g3187" transform="matrix(0.38935294,0,0,-0.39934046,129.01638,21.800673)">
	<path id="path3189" inkscape:connector-curvature="0" class="st0" d="M0,0c0.39,1.405-0.463,2.658-1.914,2.81
		c-5.895,0.618-12.761-1.131-18.9-5.312c-6.138-4.18-10.281-9.929-11.866-15.64c-0.39-1.405,0.463-2.658,1.913-2.81
		c5.895-0.617,12.762,1.132,18.9,5.312C-5.728-11.46-1.585-5.711,0,0"/>
</g>
<g id="g3191" transform="matrix(0.38935294,0,0,-0.39934046,137.90733,43.915509)">
	<path id="path3193" inkscape:connector-curvature="0" class="st1" d="M0,0c3.195,0,5.786,2.59,5.786,5.786
		c0,3.195-2.591,5.786-5.786,5.786c-3.196,0-5.786-2.591-5.786-5.786C-5.786,2.59-3.196,0,0,0"/>
</g>
<g id="g3195" transform="matrix(0.38935294,0,0,-0.39934046,61.849065,92.487606)">
	<path id="path3197" inkscape:connector-curvature="0" class="st1" d="M0,0c-5.882,0-6.863,5.76-6.863,10.294
		c0,8.333,4.29,15.685,10.539,15.685c4.289,0,6.618-3.676,6.618-8.945C10.294,7.721,6.004,0,0,0 M4.534,29.043
		c-14.95,0-20.955-10.171-20.955-17.646c0-10.171,7.597-14.337,16.543-14.337c11.887,0,19.974,8.21,19.974,17.646
		C20.096,24.264,13.356,28.921,4.534,29.043"/>
</g>
<g id="g3199" transform="matrix(0.38935294,0,0,-0.39934046,83.272198,91.362108)">
	<path id="path3201" inkscape:connector-curvature="0" class="st1" d="M0,0c0,0.614-0.245,0.858-0.858,0.858
		s-1.471-0.735-3.063-1.592C-5.76-1.715-8.088-2.45-10.416-2.45c-4.29,0-8.088,2.819-8.088,10.293c0,8.088,4.779,14.46,10.538,14.46
		c4.535,0,5.148-3.309,6.618-3.309c0.612,0,0.858,0.246,0.858,0.981c0,1.838-2.574,5.637-9.068,5.637
		c-10.661,0-18.627-7.966-18.627-16.666c0-6.862,3.185-10.783,7.23-12.744c2.94-1.47,5.637-1.839,7.965-1.839
		c6.127,0,8.945,1.716,11.151,3.187C-0.981-1.837,0-0.612,0,0"/>
</g>
<g id="g3203" transform="matrix(0.38935294,0,0,-0.39934046,87.375626,92.732203)">
	<path id="path3205" inkscape:connector-curvature="0" class="st1" d="M0,0c0-1.225,0.49-1.715,1.837-1.715h6.128
		c1.593,0,2.329,1.225,2.941,3.309c1.471,4.901,3.554,17.522,4.656,23.159c3.187,0.123,7.843,0.614,10.785,1.717
		c1.715,0.612,2.696,1.225,2.696,2.818c0,0.735-0.859,0.858-1.348,0.858c-2.206,0-4.902-1.226-17.892-1.226
		c-9.313,0-12.867,1.226-14.582,1.226c-0.981,0-2.084-0.49-2.084-1.593c0-0.491,0.368-1.225,0.981-1.594
		c2.083-1.347,5.515-1.837,11.152-2.206C4.167,18.382,1.961,8.946,0.612,3.309C0.367,2.206,0,0.736,0,0"/>
</g>
<g id="g3207" transform="matrix(0.38935294,0,0,-0.39934046,107.36695,92.34045)">
	<path id="path3209" inkscape:connector-curvature="0" class="st1" d="M0,0c-2.696,0-5.024,1.347-6.985,3.921
		c1.103,6.372,1.837,12.622,2.206,16.298c2.206,3.798,5.024,5.27,8.088,5.27c3.308,0,6.126-3.432,6.126-10.417
		C9.435,8.946,6.495,0,0,0 M6.74,28.675c-4.903,0-8.701-1.594-11.519-4.658c-0.123,2.33-0.369,3.922-2.451,3.922h-2.942
		c-1.715,0-2.818-0.735-3.062-1.961c-0.369-2.328-0.859-9.803-3.309-23.405C-18.382-7.721-21.936-25-27.328-38.724
		c-5.146-13.111-14.582-31.739-31.493-45.953c-3.063-2.573-8.578-6.25-12.132-7.72c-0.858-0.368-1.347-0.981-1.347-1.471
		c0-0.367,0.245-0.735,0.98-0.735c2.328,0,5.269,1.716,9.681,4.289c22.057,12.99,37.253,39.213,41.296,49.507
		c8.21,20.71,10.416,30.023,12.745,41.42c2.328-2.819,6.495-3.8,10.171-3.8c5.759,0,17.034,5.025,17.034,17.279
		C19.607,22.18,14.215,28.675,6.74,28.675"/>
</g>
<g id="g3211" transform="matrix(0.38935294,0,0,-0.39934046,123.87575,92.487606)">
	<path id="path3213" inkscape:connector-curvature="0" class="st1" d="M0,0c-5.882,0-6.863,5.76-6.863,10.294
		c0,8.333,4.29,15.685,10.539,15.685c4.289,0,6.618-3.676,6.618-8.945C10.294,7.721,6.004,0,0,0 M4.534,29.043
		c-14.95,0-20.955-10.171-20.955-17.646c0-10.171,7.597-14.337,16.543-14.337c11.887,0,19.974,8.21,19.974,17.646
		C20.096,24.264,13.356,28.921,4.534,29.043"/>
</g>
<g id="g3215" transform="matrix(0.38935294,0,0,-0.39934046,142.57922,82.357578)">
	<path id="path3217" inkscape:connector-curvature="0" class="st1" d="M0,0c3.186,0,5.514-2.573,5.514-8.824
		c0-6.004-4.044-17.155-11.151-17.155c-3.676,0-5.76,3.676-5.76,7.842C-11.397-8.578-6.372,0,0,0 M16.543,45.096
		c6.128,7.352,16.543,16.298,24.386,16.298c5.76,0,8.333-3.309,8.333-7.598c0-16.543-25.489-28.43-47.301-29.777
		C6.127,31.984,10.906,38.356,16.543,45.096 M52.448,54.042c0,5.391-3.431,10.17-10.294,10.17c-20.71,0-40.317-23.528-49.384-39.459
		c-18.014,0.858-30.268,5.515-42.4,12.01c-6.127,3.308-10.293,7.23-11.029,7.23c-0.613,0-0.98,0-0.98-0.736
		c0-0.489,0.489-1.103,1.103-1.715c5.637-5.882,25.978-17.892,51.712-19.607C-14.582,12.5-19.362-2.818-19.362-11.519
		c0-11.151,5.759-17.157,13.725-17.157c10.538,0,19.974,8.088,19.974,19.485c0,10.049-7.107,12.622-10.048,12.622
		c-4.656,0-8.701-0.98-12.377-4.657c2.696,10.049,5.759,16.912,8.7,22.303C21.69,21.813,52.448,33.944,52.448,54.042"/>
</g>
<g id="g3219" transform="matrix(0.38935294,0,0,-0.39934046,32.220475,54.758242)">
	<path id="path3221" inkscape:connector-curvature="0" class="st1" d="M0,0c4.534,0,13.725,5.759,18.137,9.068
		c18.504,14.215,27.571,31.003,34.067,40.807C57.841,31.371,63.232,12.5,77.448,12.5c4.166,0,6.739,0.98,8.7,3.062
		c0.489,0.491,1.103,1.349,1.103,2.206c0,0.491-0.245,0.736-0.614,0.736c-0.244,0-0.612-0.123-0.979-0.491
		c-1.471-1.47-2.942-1.837-4.657-1.837c-1.961,0-4.78,0.612-7.965,5.146c-4.657,6.618-8.824,20.832-11.888,38.724
		c4.781,9.558,17.034,25.857,22.427,32.106c7.965,9.191,13.479,13.113,15.807,14.705c2.819,1.96,4.412,3.063,4.412,3.799
		c0,0.613-0.49,0.736-1.103,0.736c-0.735,0-2.696-0.736-3.676-1.226c-15.809-7.965-30.391-27.572-39.704-43.135
		c-1.225,4.411-2.573,9.558-5.146,18.503c-4.29,15.073-12.867,21.079-22.058,21.079c-4.29,0-8.088-1.348-10.662-4.045
		c-0.245-0.245-0.49-0.98-0.49-1.225c0-0.614,0.367-0.858,0.858-0.858c0.367,0,0.857,0.49,1.225,0.735
		c1.96,1.348,3.799,1.839,5.882,1.839c2.696,0,4.29-0.613,6.618-2.697c5.024-4.656,9.436-17.155,14.705-42.768
		C44.483,46.689,23.406,12.622-0.122,1.961c-0.736-0.367-1.471-0.736-1.471-1.348C-1.593,0-0.98,0,0,0"/>
</g>
<g id="g3223" transform="matrix(0.38935294,0,0,-0.39934046,75.950068,36.893225)">
	<path id="path3225" inkscape:connector-curvature="0" class="st1" d="M0,0c4.29,0,6.618-3.676,6.618-8.946
		c0-9.313-4.289-17.033-10.294-17.033c-5.882,0-6.862,5.76-6.862,10.293C-10.538-7.352-6.249,0,0,0 M-20.096-14.583
		c0-10.17,7.597-14.337,16.543-14.337c11.886,0,19.974,8.21,19.974,17.646c0,9.559-6.74,14.216-15.563,14.338
		C-14.092,3.064-20.096-7.107-20.096-14.583"/>
</g>
<g id="g3227" transform="matrix(0.38935294,0,0,-0.39934046,92.935783,37.13782)">
	<path id="path3229" inkscape:connector-curvature="0" class="st1" d="M0,0c4.289,0,6.495-3.554,6.495-8.824
		c0-8.822-4.534-17.646-10.907-17.646c-4.165,0-6.616,3.922-6.616,10.294C-11.028-8.333-6.74,0,0,0 M-11.519-27.573
		c2.084-0.734,5.76-1.102,7.476-1.102c1.96,0,4.779,0,7.842,1.347c5.392,2.33,10.784,7.598,10.784,15.931
		c0,2.329-0.122,6.251-1.225,11.03c-2.697,11.886-6.373,23.405-6.373,36.884c0,13.848,4.779,25.489,12.5,33.455
		c4.534,4.656,9.925,7.965,15.685,10.293c12.01,4.902,17.278,3.309,17.278,5.393c0,0.489-0.612,0.857-1.103,0.857
		c-9.435,0-24.386-3.308-35.292-10.906C4.045,67.154-1.961,56.982-1.961,42.645c0-14.092,6.863-29.165,11.642-44.606
		C6.005,2.573,0.49,2.94-1.961,2.94c-10.048,0-18.504-7.719-18.504-16.665C-20.465-20.343-17.034-25.612-11.519-27.573"/>
</g>
<g id="g3231" transform="matrix(0.38935294,0,0,-0.39934046,107.67883,47.708323)">
	<path id="path3233" inkscape:connector-curvature="0" class="st1" d="M0,0c-4.165,0-6.617,3.921-6.617,10.294
		c0,7.843,4.289,16.176,11.029,16.176c4.29,0,6.494-3.554,6.494-8.824C10.906,8.824,6.373,0,0,0 M2.451,69.115
		c0-14.093,6.863-29.166,11.642-44.606c-3.676,4.534-9.191,4.901-11.642,4.901c-10.049,0-18.504-7.719-18.504-16.665
		c0-6.618,3.431-11.887,8.946-13.848c2.083-0.734,5.76-1.102,7.475-1.102c1.961,0,4.78,0,7.843,1.347
		c5.392,2.329,10.783,7.598,10.783,15.931c0,2.329-0.122,6.25-1.225,11.03c-2.696,11.886-6.372,23.405-6.372,36.884
		c0,13.848,4.779,25.489,12.5,33.455c4.534,4.656,9.925,7.965,15.685,10.293c12.009,4.902,17.278,3.309,17.278,5.392
		c0,0.49-0.613,0.858-1.102,0.858c-9.436,0-24.387-3.309-35.292-10.906C8.456,93.624,2.451,83.452,2.451,69.115"/>
</g>
<g id="g3235" transform="matrix(0.38935294,0,0,-0.39934046,128.43356,36.501472)">
	<path id="path3237" inkscape:connector-curvature="0" class="st1" d="M0,0c-1.226-2.329-4.167-9.927-6.495-15.196
		c-2.941-6.617-6.25-9.68-8.7-9.68c-1.471,0-2.818,1.225-2.818,5.269c0,6.862,5.268,18.626,5.268,19.729
		c0,0.612-0.122,1.225-1.225,1.225h-5.392c-0.857,0-1.471-0.367-1.96-0.98c-0.981-1.226-5.76-9.313-5.76-18.627
		c0-6.74,3.431-11.028,7.842-11.028c8.456,0,13.235,9.191,14.338,11.273c0.368-4.166,2.329-11.764,11.151-11.764
		c1.103,0,4.045,0.491,4.045,1.716c0,0.735-0.614,0.735-0.858,0.735c-0.368,0-0.981-0.122-1.716-0.122
		c-3.186,0-3.799,3.799-3.799,5.759c0,4.779,1.471,12.01,2.941,16.543C7.72-2.451,8.577-0.981,8.577,0c0,0.367,0,1.347-1.225,1.347
		H2.083C1.103,1.347,0.49,0.98,0,0"/>
</g>
<g id="g3239" transform="matrix(0.38935294,0,0,-0.39934046,28.289879,58.726248)">
	<path id="path3241" inkscape:connector-curvature="0" class="st1" d="M0,0c-2.206,0-4.901-1.226-17.891-1.226
		C-27.204-1.226-30.757,0-32.473,0c-0.981,0-2.084-0.49-2.084-1.593c0-0.491,0.368-1.225,0.981-1.594
		c2.083-1.347,5.514-1.837,11.151-2.205c-1.103-6.372-3.308-15.808-4.657-21.445c-0.244-1.103-0.613-2.573-0.613-3.309
		c0-1.225,0.491-1.715,1.839-1.715h6.127c1.592,0,2.328,1.225,2.941,3.309c1.471,4.901,3.554,17.522,4.657,23.16
		C-8.946-5.27-4.289-4.779-1.348-3.676c1.716,0.612,2.696,1.225,2.696,2.818C1.348-0.123,0.49,0,0,0"/>
</g>
<g id="g3243" transform="matrix(0.38935294,0,0,-0.39934046,35.828375,70.666844)">
	<path id="path3245" inkscape:connector-curvature="0" class="st1" d="M0,0c-3.431,0-4.656,3.186-4.656,7.598
		c0,3.676,1.47,8.823,4.534,13.112c2.573,3.676,6.249,6.249,9.191,6.249c3.309,0,4.167-3.431,4.167-6.371
		c0-3.8-2.452-11.275-5.637-15.564C5.638,2.451,3.187,0,0,0 M15.073-1.715c1.839-2.084,5.148-2.942,6.25-2.942
		c1.103,0,1.961,0.245,1.961,0.981c0,0.49-0.245,0.736-0.858,1.348c-1.348,1.347-2.205,3.431-2.205,7.107
		c0,4.412,2.449,14.583,4.165,19.73c0.49,1.47,0.981,2.695,0.981,3.431c0,0.491-0.491,0.735-1.103,0.735h-5.392
		c-1.226,0-1.715-0.49-2.084-1.103c-0.489-0.858-1.103-2.696-1.347-3.676c-0.981,3.921-4.044,6.005-7.72,6.005
		c-3.309,0-7.965-0.981-10.539-2.329c-6.985-3.676-11.274-10.784-11.274-18.259c0-6.495,5.024-12.253,12.377-12.253
		c6.739,0,11.151,5.636,13.112,9.189C11.642,2.573,13.236,0.49,15.073-1.715"/>
</g>
<g id="g3247" transform="matrix(0.38935294,0,0,-0.39934046,54.15039,64.843464)">
	<path id="path3249" inkscape:connector-curvature="0" class="st1" d="M0,0c-1.839-0.612-3.799-0.858-6.127-0.858
		c1.103,7.965,5.759,13.113,10.416,13.113c1.96,0,3.799-0.981,3.799-4.045C8.088,4.779,4.901,1.47,0,0 M14.95,7.23
		c0,5.515-4.779,7.843-10.049,7.843c-12.009,0-20.464-8.088-20.464-17.401c0-10.661,7.597-15.195,15.808-15.195
		c4.779,0,8.945,1.47,11.886,3.921c0.858,0.735,1.594,1.471,1.594,2.083c0,0.736-0.491,0.98-0.981,0.98
		c-0.367,0-1.103-0.613-2.695-1.592c-1.839-1.103-4.903-1.961-6.985-1.961c-6.74,0-9.437,4.779-9.437,10.661
		C1.592-3.186,14.95-1.103,14.95,7.23"/>
</g>
<g id="g3251" transform="matrix(0.38935294,0,0,-0.39934046,76.670408,67.926653)">
	<path id="path3253" inkscape:connector-curvature="0" class="st1" d="M0,0c0-5.146,2.696-9.313,7.843-9.313
		c1.715,0,3.799,0.49,4.657,1.103c0.612,0.367,1.103,0.981,1.103,1.593c0,0.736-0.736,0.858-1.47,0.858
		c-2.206,0-2.697,3.676-2.697,5.882c0,2.941,0.858,8.823,1.961,13.358c0.858,3.431,1.593,6.126,1.593,6.985
		c0,0.734-0.245,1.347-0.981,1.347H8.088c-0.858,0-1.716-0.244-2.451-0.858c-2.819-2.45-6.74-6.985-10.293-11.274
		c-1.103-1.225-3.431-4.043-5.76-7.107c0.245,1.471,0.367,3.064,0.736,5.025c0.858,5.513,1.96,10.906,1.96,12.867
		c0,1.225-1.348,1.347-2.573,1.347h-3.921c-2.206,0-4.045-2.695-5.148-4.289c-13.97-20.955-32.841-43.993-53.06-43.993
		c-6.985,0-12.255,1.225-18.014,6.985c-1.716,1.716-3.063,3.677-3.921,5.27c-0.245,0.367-0.49,0.858-0.981,0.858
		c-0.736,0-0.858-0.858-0.858-1.348c0-0.736,0.491-1.961,1.349-3.309c5.513-8.946,14.459-11.764,22.425-11.764
		c19.484,0,34.311,15.194,43.625,27.572c6.126,8.21,9.313,13.725,11.519,17.156c-1.838-8.333-4.166-18.013-4.166-21.446
		c0-1.715,0.857-2.328,2.451-2.328h3.431c1.348,0,2.328,1.349,3.921,3.555C-4.289,4.535-1.347,7.843,2.206,12.255
		C0.49,6.741,0,3.309,0,0"/>
</g>
<g id="g3255" transform="matrix(0.38935294,0,0,-0.39934046,101.81502,70.520168)">
	<path id="path3257" inkscape:connector-curvature="0" class="st1" d="M0,0c0,0.368-0.122,0.858-0.612,0.858
		c-0.613,0-1.225-0.613-2.328-0.613s-2.942,0.858-2.942,5.392c0,1.348,0.245,6.005,1.103,9.681
		c1.47,6.373,3.799,10.049,3.799,11.274c0,0.858-0.123,1.593-1.593,1.715h-4.534c-0.981,0-1.839-0.367-2.328-1.225
		c-3.309-5.391-5.148-13.112-5.148-18.382c0-3.676,1.103-6.739,1.961-7.964c1.839-2.574,4.29-3.431,6.863-3.431
		C-3.064-2.695,0-1.103,0,0"/>
</g>
<g id="g3259" transform="matrix(0.38935294,0,0,-0.39934046,87.978385,65.479773)">
	<path id="path3261" inkscape:connector-curvature="0" class="st1" d="M0,0c0.981,0.736,2.696,1.593,5.024,1.593
		c3.064,0,4.29-3.554,4.29-6.372c0-4.901-4.044-8.701-7.108-8.701c-2.941,0-3.921,2.697-3.921,5.637C-1.715-6.004-0.735-1.961,0,0
		 M-5.024-13.847c1.716-1.225,5.024-1.715,6.617-1.715c2.084,0,4.167,0.245,6.128,0.979c4.166,1.472,9.313,4.658,9.313,10.907
		c0,2.942-1.838,8.088-9.068,8.088c-2.084,0-4.902-0.367-7.23-1.594C2.942,9.803,4.902,12.867,4.902,14.46
		c0,0.858-0.367,1.103-1.838,1.225h-4.411c-0.981,0-1.961-0.244-2.818-1.715C-8.21,7.23-9.313-0.244-9.313-4.165
		C-9.313-9.19-7.229-12.377-5.024-13.847"/>
</g>
<g id="g3263" transform="matrix(0.38935294,0,0,-0.39934046,119.18222,70.520168)">
	<path id="path3265" inkscape:connector-curvature="0" class="st1" d="M0,0c0,0.614-0.368,0.858-0.981,0.858
		c-0.49,0-1.961-0.613-2.818-0.613c-3.676,0-4.289,3.8-4.289,6.985c0,6.249,4.043,17.034,4.043,19.73c0,0.368,0,1.347-1.225,1.347
		h-5.636c-0.981,0-1.717-0.367-2.084-1.347c-0.736-2.329-2.573-11.029-4.901-16.176c-3.064-6.863-6.006-9.803-8.579-9.803
		c-2.206,0-3.309,1.961-3.309,5.514c0,8.945,4.657,19.239,4.657,20.342c0,0.491,0,1.47-1.348,1.47h-4.901
		c-0.859,0-1.593-0.367-1.962-0.734c-0.98-0.491-5.146-6.373-5.146-19.24c0-6.74,4.412-11.273,8.455-11.273
		c8.455,0,12.377,8.455,13.725,11.273c0-3.676,1.471-11.273,9.558-11.273c1.961,0,4.779,0.734,6.127,1.837C-0.123-0.734,0-0.367,0,0
		"/>
</g>
<g id="g3267" transform="matrix(0.38935294,0,0,-0.39934046,111.3811,52.527206)">
	<path id="path3269" inkscape:connector-curvature="0" class="st1" d="M0,0c-2.201,1.335-4.935,0.844-6.397-1.566
		C-7.922-4.08-6.866-7.301-3.723-9.208c1.362-0.826,3.124-1.465,5.287-1.917c3.296-0.709,7.209,0.071,9.188,0.733
		c4.734,1.427,8.131,3.953,8.957,5.316c0.445,0.733,0.426,1.174,0.006,1.429c-0.418,0.253-1.091,0.09-1.85-0.453
		c-2.911-1.962-6.176-3.564-9.415-4.18C5.041-8.935,2.521-8.839-0.098-7.25C0.26-6.894,0.937-6.016,1.128-5.701
		C2.59-3.291,1.675-1.016,0,0"/>
</g>
</svg>
