<?xml version="1.0" standalone="no"?>
<!DOCTYPE svg PUBLIC "-//W3C//DTD SVG 20010904//EN"
 "http://www.w3.org/TR/2001/REC-SVG-20010904/DTD/svg10.dtd">
<svg version="1.0" xmlns="http://www.w3.org/2000/svg"
 width="500.000000pt" height="500.000000pt" viewBox="0 0 500.000000 500.000000"
 preserveAspectRatio="xMidYMid meet">
<metadata>
Created by potrace 1.11, written by Peter Selinger 2001-2013
</metadata>
<g transform="translate(0.000000,500.000000) scale(0.100000,-0.100000)"
fill="#000000" stroke="none">
<path d="M628 4870 c-123 -31 -242 -135 -288 -252 -21 -52 -25 -80 -25 -158 1
-85 4 -102 32 -163 56 -120 173 -212 301 -235 54 -10 89 -9 162 2 l45 7 209
-210 209 -209 -39 -33 c-60 -50 -224 -217 -276 -279 -54 -66 -162 -230 -210
-320 -85 -160 -151 -343 -187 -520 -18 -86 -23 -119 -36 -245 -10 -88 -4 -325
10 -410 2 -16 7 -48 10 -70 23 -161 95 -377 183 -554 48 -97 169 -294 191
-311 3 -3 22 -26 41 -52 102 -136 379 -375 535 -459 17 -9 55 -30 86 -47 108
-60 310 -135 445 -167 301 -71 663 -69 944 5 364 95 657 263 920 529 306 308
481 660 556 1121 10 61 13 413 4 475 -5 33 -12 83 -15 110 -11 84 -63 271
-105 379 -74 189 -177 369 -298 521 -59 74 -220 239 -287 293 l-39 33 209 210
210 210 40 -7 c251 -46 478 119 501 366 16 170 -73 329 -229 405 -195 95 -424
28 -534 -156 -54 -90 -69 -186 -49 -304 l7 -40 -239 -239 -239 -238 -84 37
c-170 75 -363 133 -509 152 -19 2 -56 8 -82 12 -133 23 -451 6 -632 -34 -38
-8 -73 -12 -77 -9 -5 3 -9 0 -9 -5 0 -6 -6 -11 -14 -11 -20 0 -199 -61 -211
-71 -5 -5 -15 -9 -23 -9 -8 0 -43 -14 -79 -31 l-65 -31 -239 239 -240 238 8
40 c49 261 -126 488 -387 501 -41 2 -92 -1 -112 -6z m2318 -1244 c355 -107
666 -338 872 -646 316 -473 353 -1081 96 -1593 -78 -157 -226 -357 -330 -447
-158 -136 -264 -208 -416 -279 -93 -44 -282 -110 -333 -117 -11 -1 -39 -7 -62
-12 -24 -5 -43 -6 -43 -2 0 4 17 20 38 36 41 31 38 28 113 100 189 180 320
360 430 591 48 100 122 307 134 373 3 17 12 63 21 103 23 108 29 185 29 372 0
202 -7 271 -41 425 -93 412 -340 821 -645 1069 -18 14 -47 38 -63 53 l-31 26
76 -14 c42 -8 112 -25 155 -38z m-796 -59 c204 -88 358 -192 515 -352 421
-427 566 -1042 380 -1612 -109 -331 -339 -634 -631 -830 -73 -50 -233 -131
-331 -168 l-72 -28 -48 18 c-26 10 -68 27 -92 37 l-43 18 88 93 c265 278 453
646 513 1007 6 36 14 79 17 95 10 52 13 387 4 463 -54 449 -233 833 -538 1153
l-84 89 38 16 c88 38 140 52 164 47 14 -3 68 -24 120 -46z m-548 -329 c89 -89
208 -231 208 -249 0 -3 -26 -16 -57 -28 -95 -38 -262 -129 -358 -193 -176
-119 -326 -260 -470 -444 -14 -18 -15 -16 -10 21 17 125 94 368 147 465 92
166 121 208 221 328 66 78 193 201 209 202 4 0 53 -46 110 -102z m418 -692
c12 -43 24 -91 27 -105 2 -14 8 -44 13 -66 17 -78 31 -296 22 -342 -3 -13 -12
-23 -21 -23 -10 0 -49 -9 -87 -21 -331 -99 -605 -255 -837 -478 -48 -46 -90
-81 -93 -78 -4 3 -21 43 -39 88 l-33 82 28 76 c157 427 483 766 895 932 61 25
92 33 96 25 4 -6 17 -47 29 -90z m-20 -949 c0 -15 -44 -125 -72 -183 -89 -179
-182 -308 -321 -446 -59 -60 -112 -108 -117 -108 -14 0 -230 215 -230 229 0
14 181 197 240 241 25 19 47 37 50 41 10 14 148 98 220 135 114 59 230 104
230 91z"/>
</g>
</svg>
