<svg xmlns="http://www.w3.org/2000/svg" width="111" height="22"><g fill="#fff"><path d="M13.939.077h9.705L19.17 21.923h-4.212l3.6-17.589-3.76.015h-.903c-2.109 0-3.294.091-3.556.273-1.321.354-2.536 1.106-3.643 2.257-1.215 1.384-1.963 2.763-2.244 4.136-.34 1.697-.03 3.257.932 4.681.68.839 1.306 1.344 1.88 1.515.554.324 1.579.485 3.075.485h2.929l-.874 4.227H8.88c-2.593 0-4.648-.712-6.164-2.136-1.078-1.07-1.748-2.04-2.01-2.91-.72-1.797-.89-3.635-.51-5.513l.13-.637c.545-2.625 1.987-5.034 4.329-7.226C6.036 2.34 7.123 1.607 7.92 1.304c.583-.303 1.365-.59 2.346-.863.874-.242 2.098-.364 3.673-.364M24.655.08h6.203c1.094 0 1.882.342 2.364 1.024.219.27.357.53.415.78.135.502.154.991.06 1.47l-.06.285c-.151.734-.605 1.45-1.36 2.151-.468.39-.877.641-1.225.752.63.9.793 2.092.489 3.572h-1.949l.033-.153c.223-1.095-.026-1.966-.75-2.61-.41-.358-1.01-.537-1.795-.537h-3.804l.395-1.936h6.322c.693 0 1.233-.355 1.621-1.065a5.34 5.34 0 0 0 .135-.362 1.248 1.248 0 0 0-.262-1.072 1.105 1.105 0 0 0-.797-.335c0-.018-.093-.028-.281-.028h-6.156l.402-1.935zm10.447.004h9.712l-.395 1.943H40.54l-1.655 8.084H36.93l1.655-8.084h-3.879l.396-1.943zm-3.555 18.907c.322 0 .567-.058.734-.173a.813.813 0 0 0 .325-.522c.062-.258.037-.431-.074-.521-.112-.09-.31-.135-.595-.135H26.68c-.582 0-.917.212-1.003.637-.062.27-.037.457.074.56.112.103.347.154.706.154h5.09zm5.369.947c-.149.67-.471 1.168-.966 1.496-.496.328-1.096.493-1.802.493H22.557c-.682 0-1.199-.187-1.552-.56-.353-.374-.449-.908-.288-1.604l1.505-6.758c.062-.31.188-.593.38-.85.193-.257.425-.48.697-.666a3.449 3.449 0 0 1 1.932-.589h12.744c.235 0 .433.083.594.25.16.169.216.362.167.58l-.297 1.333a.725.725 0 0 1-.149.29 1.27 1.27 0 0 1-.269.24 1.68 1.68 0 0 1-.335.175.96.96 0 0 1-.343.067H27.59c-.359 0-.61.039-.752.116-.143.077-.244.264-.306.56-.05.193.006.335.167.425.16.09.322.142.483.154h8.21c.533 0 .957.058 1.273.174.315.116.548.27.696.463.149.194.226.423.233.686.006.264-.022.55-.084.86l-.594 2.665zM50.476 8.14c-.741 0-1.747-.104-2.466-.943-.73-.851-.785-2.081-.785-2.966 0-1.15.099-2.334.752-3.127C48.75.16 49.957.09 50.509.09h3.108V1.3h-2.422c-.863 0-1.593.057-2.035.747-.232.357-.431.966-.431 2.162 0 1.207.21 1.702.365 1.954.398.633 1.106.77 2.024.77h2.621V8.14h-3.263zm6.037-1.805c.453.61 1.095.69 1.968.69.652 0 1.482-.024 1.98-.69.288-.38.486-1.035.486-2.22 0-1.207-.188-1.839-.486-2.23-.498-.655-1.338-.678-1.98-.678-.674 0-1.46.023-1.968.679-.31.401-.498 1-.498 2.23 0 1.15.177 1.793.498 2.219zM61.578.85c.785.805.874 2.207.874 3.265 0 .862-.034 2.402-.874 3.265-.83.85-2.212.85-3.086.85-.918 0-2.234 0-3.086-.85-.895-.897-.895-2.357-.895-3.265 0-1.093.055-2.437.895-3.265C56.27 0 57.552 0 58.492 0c.896 0 2.245 0 3.086.85m1.866 6.083h3.561c.134 0 .686-.012.919-.15.354-.207.376-.655.376-.977 0-.253-.011-.667-.277-.908-.067-.058-.276-.219-.884-.219h-3.54V3.472h3.351c.498 0 .852-.07 1.018-.253.2-.219.188-.598.188-.84 0-.298.011-.678-.255-.908-.188-.16-.442-.172-.674-.172h-3.738V.091h4.07c.508 0 1.139-.01 1.626.495.43.46.474 1.08.474 1.678 0 .518-.032 1.013-.441 1.415-.177.172-.41.299-.653.356v.046c.42.023.818.23 1.017.598.144.253.222.656.222 1.31 0 .576-.045 1.404-.697 1.829-.443.288-1.128.322-1.659.322h-4.004V6.933zm8.835 0h4.7l-2.168-5.22c-.033-.07-.088-.253-.177-.253-.088 0-.166.183-.188.253l-2.167 5.22zM73.396.85c.198-.46.453-.85 1.238-.85.686 0 .996.274 1.239.85l2.598 6.082h.654V8.14h-8.992V6.933h.653L73.396.85z"/><path d="M81.82 5.024h2.976l-1.26-3.277c-.045-.115-.123-.333-.223-.333-.099 0-.177.218-.22.333l-1.272 3.277zm.222-4.116C82.32.23 82.617 0 83.313 0c.665 0 .996.23 1.273.908l2.92 7.232h-1.538l-.796-2.035h-3.727l-.786 2.035h-1.537l2.92-7.232zM94.78 8.14h-1.459V4.599h-4.026v3.54h-1.46V.092h1.46v3.3h4.026v-3.3h1.46V8.14zm7.231 0l.044-6.117c0-.126-.01-.264-.11-.264-.089 0-.177.184-.288.368l-3.185 5.346c-.21.356-.442.759-1.227.759-1.117 0-1.14-.92-1.14-1.38V.092h1.46l-.033 6.001c0 .184-.01.368.133.368.089 0 .144-.138.21-.253l3.118-5.312c.421-.712.764-.896 1.295-.896 1.16 0 1.183 1.046 1.183 1.448V8.14h-1.46zm3.957 0c-.332 0-.63 0-.885-.253-.265-.265-.287-.633-.287-.943V1.242c0-.322.1-.644.265-.84.254-.287.63-.31.929-.31h4.966v1.207h-4.181c-.132 0-.287.011-.398.115-.121.115-.121.276-.121.39v1.622h4.589v1.207h-4.59v1.885c0 .127.045.254.112.311.088.092.264.103.497.103H111V8.14h-5.032zM47.65 21.908c-.74 0-1.747-.104-2.466-.943-.73-.851-.785-2.08-.785-2.966 0-1.15.1-2.334.752-3.127.774-.943 1.98-1.012 2.533-1.012h3.107v1.207H48.37c-.863 0-1.593.058-2.035.748-.233.356-.432.965-.432 2.16 0 1.208.21 1.703.366 1.955.397.633 1.105.77 2.023.77h2.622v1.208H47.65z"/><path d="M53.61 18.792h2.975l-1.261-3.277c-.044-.115-.122-.333-.221-.333-.1 0-.177.218-.221.333l-1.272 3.277zm.22-4.116c.277-.678.576-.908 1.273-.908.663 0 .995.23 1.272.908l2.92 7.232h-1.538l-.796-2.035h-3.728l-.785 2.035h-1.537l2.92-7.232zm8.327-2.644c.055.196.176.38.31.506.242.218.552.241.807.241.265 0 .574-.023.818-.241.133-.127.254-.31.31-.506h1.05c-.11.402-.376.92-.752 1.207-.387.299-.95.39-1.426.39-.576 0-1.085-.137-1.416-.39-.376-.287-.641-.805-.752-1.207h1.05zm3.372 9.876l.045-6.116c0-.127-.01-.265-.11-.265-.09 0-.177.184-.288.368l-3.186 5.346c-.21.356-.442.759-1.227.759-1.117 0-1.139-.92-1.139-1.38v-6.76h1.46l-.033 6.002c0 .184-.011.367.132.367.089 0 .144-.138.21-.253l3.12-5.312c.42-.712.762-.896 1.293-.896 1.161 0 1.183 1.046 1.183 1.449v6.691h-1.46zm5.031 0v-6.84h-3.02V13.86h7.51v1.207h-3.031v6.84h-1.46zm5.86-3.116h2.975l-1.26-3.277c-.046-.115-.123-.333-.223-.333s-.177.218-.22.333l-1.273 3.277zm.22-4.116c.277-.678.576-.908 1.272-.908.664 0 .996.23 1.273.908l2.92 7.232h-1.538l-.797-2.035h-3.727l-.785 2.035H73.72l2.92-7.232z"/></g></svg>