<svg id="svg2" xmlns="http://www.w3.org/2000/svg" width="148.165" height="130.119" viewBox="14.835 0 148.165 130.119"><style>.st0{fill:#8fc04b}.st1{fill:#73a33c}</style><g id="g3111" transform="matrix(.38935 0 0 -.39934 50.75 91.404)"><path id="path3113" class="st0" d="M0 0c-5.762-1.389-11.649-5.333-16.036-11.326-4.388-5.992-6.37-12.795-5.954-18.707.102-1.455 1.325-2.351 2.743-2.009 5.762 1.389 11.648 5.333 16.036 11.326 4.388 5.992 6.37 12.795 5.954 18.707C2.641-.554 1.418.342 0 0"/></g><g id="g3115" transform="matrix(.38935 0 0 -.39934 67.705 96.997)"><path id="path3117" class="st0" d="M0 0c-5.188-2.866-9.82-8.228-12.464-15.168s-2.754-14.025-.787-19.617c.484-1.375 1.901-1.915 3.177-1.21 5.189 2.866 9.82 8.228 12.464 15.168S5.144-6.802 3.177-1.21C2.693.165 1.277.705 0 0"/></g><g id="g3119" transform="matrix(.38935 0 0 -.39934 84.973 98.673)"><path id="path3121" class="st0" d="M0 0c-4.719-3.586-8.527-9.562-10.14-16.811-1.612-7.25-.696-14.276 2.058-19.524.678-1.292 2.158-1.621 3.319-.738 4.72 3.585 8.527 9.561 10.14 16.811 1.612 7.249.696 14.276-2.058 19.524C2.641.553 1.161.882 0 0"/></g><g id="g3123" transform="matrix(.38935 0 0 -.39934 41.798 81.89)"><path id="path3125" class="st0" d="M0 0c-5.771 1.351-12.803.476-19.416-2.903-6.614-3.378-11.445-8.563-13.733-14.03-.563-1.346.127-2.696 1.547-3.028 5.771-1.351 12.803-.476 19.417 2.903C-5.572-13.68-.741-8.496 1.547-3.028 2.11-1.683 1.42-.333 0 0"/></g><g id="g3127" transform="matrix(.38935 0 0 -.39934 126.346 98.028)"><path id="path3129" class="st0" d="M0 0c-1.409.375-2.653-.492-2.789-1.944-.553-5.901 1.27-12.749 5.517-18.841 4.247-6.093 10.041-10.173 15.769-11.696 1.409-.374 2.653.493 2.789 1.945.553 5.901-1.27 12.748-5.517 18.841C11.521-5.603 5.728-1.523 0 0"/></g><g id="g3131" transform="matrix(.38935 0 0 -.39934 161.053 82.79)"><path id="path3133" class="st0" d="M0 0c-1.788 5.268-5.917 10.176-11.778 13.262-5.862 3.086-12.245 3.712-17.6 2.205a2.312 2.312 0 0 1-1.584-3.008c1.788-5.268 5.917-10.176 11.778-13.262 5.862-3.086 12.245-3.713 17.6-2.206A2.313 2.313 0 0 1 0 0"/></g><g id="g3135" transform="matrix(.38935 0 0 -.39934 155.544 44.625)"><path id="path3137" class="st0" d="M0 0c.489 1.374-.273 2.685-1.709 2.939-5.836 1.035-12.81-.221-19.23-3.955-6.42-3.733-10.961-9.172-12.948-14.756-.489-1.374.273-2.685 1.709-2.94 5.836-1.035 12.809.222 19.23 3.955C-6.528-11.024-1.987-5.584 0 0"/></g><g id="g3139" transform="matrix(.38935 0 0 -.39934 135.028 31.387)"><path id="path3141" class="st0" d="M0 0c5.786-1.283 12.807-.326 19.381 3.13s11.343 8.696 13.567 14.19c.547 1.352-.158 2.694-1.582 3.01-5.786 1.283-12.807.326-19.381-3.13S.642 8.504-1.582 3.01C-2.129 1.658-1.424.316 0 0"/></g><g id="g3143" transform="matrix(.38935 0 0 -.39934 110.787 99.674)"><path id="path3145" class="st0" d="M0 0c-1.203.825-2.665.424-3.279-.899C-5.774-6.275-6.347-13.338-4.383-20.5c1.964-7.163 6.059-12.946 10.948-16.297 1.202-.825 2.665-.424 3.279.899 2.495 5.376 3.067 12.439 1.103 19.601C8.983-9.134 4.889-3.351 0 0"/></g><g id="g3147" transform="matrix(.38935 0 0 -.39934 35.329 41.887)"><path id="path3149" class="st0" d="M0 0c-4.475 3.887-11.103 6.392-18.529 6.489-7.426.096-14.117-2.236-18.691-6.005-1.126-.928-1.145-2.444-.044-3.4 4.474-3.887 11.102-6.393 18.529-6.489C-11.309-9.502-4.618-7.169-.044-3.4 1.081-2.472 1.101-.956 0 0"/></g><g id="g3151" transform="matrix(.38935 0 0 -.39934 35.555 28.83)"><path id="path3153" class="st0" d="M0 0c6.248-4.016 13.158-5.581 19.035-4.808 1.445.191 2.265 1.466 1.838 2.861-1.736 5.666-6.031 11.303-12.278 15.319-6.248 4.015-13.158 5.581-19.035 4.807-1.446-.19-2.265-1.465-1.838-2.86C-10.542 9.652-6.248 4.016 0 0"/></g><g id="g3155" transform="matrix(.38935 0 0 -.39934 73.458 21.5)"><path id="path3157" class="st0" d="M0 0c-5.896-.609-12.256-3.732-17.403-9.086-5.148-5.354-8.019-11.832-8.396-17.747-.093-1.455 1-2.506 2.451-2.356 5.896.608 12.256 3.732 17.403 9.086C-.797-14.75 2.074-8.272 2.451-2.357 2.544-.901 1.451.15 0 0"/></g><g id="g3159" transform="matrix(.38935 0 0 -.39934 50.486 44.728)"><path id="path3161" class="st0" d="M0 0c-4.508-2.724-8.002-7.414-9.261-13.217s-.024-11.52 2.95-15.867a2.498 2.498 0 0 1 3.323-.721c4.508 2.723 8.002 7.414 9.261 13.217s.024 11.52-2.95 15.867A2.499 2.499 0 0 1 0 0"/></g><g id="g3163" transform="matrix(.38935 0 0 -.39934 86.7 14.77)"><path id="path3165" class="st0" d="M0 0c1.253-.746 2.687-.253 3.215 1.106 2.148 5.524 2.269 12.609-.148 19.632C.651 27.761-3.804 33.271-8.896 36.304c-1.253.746-2.687.253-3.215-1.106-2.148-5.525-2.269-12.609.147-19.632C-9.547 8.543-5.092 3.033 0 0"/></g><g id="g3167" transform="matrix(.38935 0 0 -.39934 80.537 20.006)"><path id="path3169" class="st0" d="M0 0c-1.447.179-2.561-.85-2.497-2.307.258-5.922 3-12.455 8.04-17.911 5.039-5.455 11.336-8.705 17.218-9.431 1.447-.179 2.561.85 2.497 2.307-.258 5.921-3 12.455-8.039 17.91C12.179-3.976 5.882-.726 0 0"/></g><g id="g3171" transform="matrix(.38935 0 0 -.39934 103.83 13.748)"><path id="path3173" class="st0" d="M0 0c-4.667-2.128-8.823-6.384-11.179-12.074-2.357-5.689-2.429-11.637-.633-16.442.441-1.182 1.721-1.713 2.869-1.189 4.667 2.128 8.823 6.384 11.18 12.074 2.356 5.689 2.428 11.637.633 16.442C2.428-.007 1.148.524 0 0"/></g><g id="g3175" transform="matrix(.38935 0 0 -.39934 62.516 .53)"><path id="path3177" class="st0" d="M0 0c-.616 1.322-2.079 1.721-3.28.895-4.884-3.359-8.971-9.147-10.925-16.312s-1.372-14.227 1.13-19.6c.616-1.322 2.079-1.721 3.281-.895C-4.91-32.553-.824-26.765 1.13-19.6 3.085-12.435 2.503-5.373 0 0"/></g><g id="g3179" transform="matrix(.38935 0 0 -.39934 118.948 13.58)"><path id="path3181" class="st0" d="M0 0c5.071-3.068 12.029-4.409 19.363-3.24s13.53 4.606 17.396 9.099c.951 1.106.713 2.603-.535 3.358-5.071 3.068-12.029 4.409-19.363 3.24S3.331 7.85-.535 3.358C-1.486 2.252-1.248.755 0 0"/></g><g id="g3183" transform="matrix(.38935 0 0 -.39934 139.025 57.406)"><path id="path3185" class="st0" d="M0 0c-5.561 2.05-12.647 2.045-19.626-.495s-12.41-7.092-15.352-12.237c-.724-1.266-.206-2.69 1.163-3.195 5.561-2.049 12.647-2.045 19.626.495S-1.78-8.34 1.163-3.195C1.887-1.929 1.368-.504 0 0"/></g><g id="g3187" transform="matrix(.38935 0 0 -.39934 129.016 21.8)"><path id="path3189" class="st0" d="M0 0c.39 1.405-.463 2.658-1.914 2.81-5.895.618-12.761-1.131-18.9-5.312-6.138-4.18-10.281-9.929-11.866-15.64-.39-1.405.463-2.658 1.913-2.81 5.895-.617 12.762 1.132 18.9 5.312C-5.728-11.46-1.585-5.711 0 0"/></g><g id="g3191" transform="matrix(.38935 0 0 -.39934 137.907 43.916)"><path id="path3193" class="st1" d="M0 0a5.786 5.786 0 1 1 0 11.572A5.786 5.786 0 0 1 0 0"/></g><g id="g3195" transform="matrix(.38935 0 0 -.39934 61.85 92.488)"><path id="path3197" class="st1" d="M0 0c-5.882 0-6.863 5.76-6.863 10.294 0 8.333 4.29 15.685 10.539 15.685 4.289 0 6.618-3.676 6.618-8.945C10.294 7.721 6.004 0 0 0m4.534 29.043c-14.95 0-20.955-10.171-20.955-17.646C-16.421 1.226-8.824-2.94.122-2.94c11.887 0 19.974 8.21 19.974 17.646 0 9.558-6.74 14.215-15.562 14.337"/></g><g id="g3199" transform="matrix(.38935 0 0 -.39934 83.272 91.362)"><path id="path3201" class="st1" d="M0 0c0 .614-.245.858-.858.858S-2.329.123-3.921-.734C-5.76-1.715-8.088-2.45-10.416-2.45c-4.29 0-8.088 2.819-8.088 10.293 0 8.088 4.779 14.46 10.538 14.46 4.535 0 5.148-3.309 6.618-3.309.612 0 .858.246.858.981 0 1.838-2.574 5.637-9.068 5.637-10.661 0-18.627-7.966-18.627-16.666 0-6.862 3.185-10.783 7.23-12.744 2.94-1.47 5.637-1.839 7.965-1.839 6.127 0 8.945 1.716 11.151 3.187C-.981-1.837 0-.612 0 0"/></g><g id="g3203" transform="matrix(.38935 0 0 -.39934 87.376 92.732)"><path id="path3205" class="st1" d="M0 0c0-1.225.49-1.715 1.837-1.715h6.128c1.593 0 2.329 1.225 2.941 3.309 1.471 4.901 3.554 17.522 4.656 23.159 3.187.123 7.843.614 10.785 1.717 1.715.612 2.696 1.225 2.696 2.818 0 .735-.859.858-1.348.858-2.206 0-4.902-1.226-17.892-1.226-9.313 0-12.867 1.226-14.582 1.226-.981 0-2.084-.49-2.084-1.593 0-.491.368-1.225.981-1.594 2.083-1.347 5.515-1.837 11.152-2.206C4.167 18.382 1.961 8.946.612 3.309.367 2.206 0 .736 0 0"/></g><g id="g3207" transform="matrix(.38935 0 0 -.39934 107.367 92.34)"><path id="path3209" class="st1" d="M0 0c-2.696 0-5.024 1.347-6.985 3.921 1.103 6.372 1.837 12.622 2.206 16.298 2.206 3.798 5.024 5.27 8.088 5.27 3.308 0 6.126-3.432 6.126-10.417C9.435 8.946 6.495 0 0 0m6.74 28.675c-4.903 0-8.701-1.594-11.519-4.658-.123 2.33-.369 3.922-2.451 3.922h-2.942c-1.715 0-2.818-.735-3.062-1.961-.369-2.328-.859-9.803-3.309-23.405C-18.382-7.721-21.936-25-27.328-38.724c-5.146-13.111-14.582-31.739-31.493-45.953-3.063-2.573-8.578-6.25-12.132-7.72-.858-.368-1.347-.981-1.347-1.471 0-.367.245-.735.98-.735 2.328 0 5.269 1.716 9.681 4.289 22.057 12.99 37.253 39.213 41.296 49.507 8.21 20.71 10.416 30.023 12.745 41.42 2.328-2.819 6.495-3.8 10.171-3.8 5.759 0 17.034 5.025 17.034 17.279 0 8.088-5.392 14.583-12.867 14.583"/></g><g id="g3211" transform="matrix(.38935 0 0 -.39934 123.876 92.488)"><path id="path3213" class="st1" d="M0 0c-5.882 0-6.863 5.76-6.863 10.294 0 8.333 4.29 15.685 10.539 15.685 4.289 0 6.618-3.676 6.618-8.945C10.294 7.721 6.004 0 0 0m4.534 29.043c-14.95 0-20.955-10.171-20.955-17.646C-16.421 1.226-8.824-2.94.122-2.94c11.887 0 19.974 8.21 19.974 17.646 0 9.558-6.74 14.215-15.562 14.337"/></g><g id="g3215" transform="matrix(.38935 0 0 -.39934 142.58 82.358)"><path id="path3217" class="st1" d="M0 0c3.186 0 5.514-2.573 5.514-8.824 0-6.004-4.044-17.155-11.151-17.155-3.676 0-5.76 3.676-5.76 7.842C-11.397-8.578-6.372 0 0 0m16.543 45.096c6.128 7.352 16.543 16.298 24.386 16.298 5.76 0 8.333-3.309 8.333-7.598 0-16.543-25.489-28.43-47.301-29.777 4.166 7.965 8.945 14.337 14.582 21.077m35.905 8.946c0 5.391-3.431 10.17-10.294 10.17-20.71 0-40.317-23.528-49.384-39.459-18.014.858-30.268 5.515-42.4 12.01-6.127 3.308-10.293 7.23-11.029 7.23-.613 0-.98 0-.98-.736 0-.489.489-1.103 1.103-1.715 5.637-5.882 25.978-17.892 51.712-19.607-5.758-9.435-10.538-24.753-10.538-33.454 0-11.151 5.759-17.157 13.725-17.157 10.538 0 19.974 8.088 19.974 19.485C14.337.858 7.23 3.431 4.289 3.431c-4.656 0-8.701-.98-12.377-4.657 2.696 10.049 5.759 16.912 8.7 22.303 21.078.736 51.836 12.867 51.836 32.965"/></g><g id="g3219" transform="matrix(.38935 0 0 -.39934 32.22 54.758)"><path id="path3221" class="st1" d="M0 0c4.534 0 13.725 5.759 18.137 9.068 18.504 14.215 27.571 31.003 34.067 40.807C57.841 31.371 63.232 12.5 77.448 12.5c4.166 0 6.739.98 8.7 3.062.489.491 1.103 1.349 1.103 2.206 0 .491-.245.736-.614.736-.244 0-.612-.123-.979-.491-1.471-1.47-2.942-1.837-4.657-1.837-1.961 0-4.78.612-7.965 5.146-4.657 6.618-8.824 20.832-11.888 38.724 4.781 9.558 17.034 25.857 22.427 32.106 7.965 9.191 13.479 13.113 15.807 14.705 2.819 1.96 4.412 3.063 4.412 3.799 0 .613-.49.736-1.103.736-.735 0-2.696-.736-3.676-1.226-15.809-7.965-30.391-27.572-39.704-43.135-1.225 4.411-2.573 9.558-5.146 18.503-4.29 15.073-12.867 21.079-22.058 21.079-4.29 0-8.088-1.348-10.662-4.045-.245-.245-.49-.98-.49-1.225 0-.614.367-.858.858-.858.367 0 .857.49 1.225.735 1.96 1.348 3.799 1.839 5.882 1.839 2.696 0 4.29-.613 6.618-2.697 5.024-4.656 9.436-17.155 14.705-42.768C44.483 46.689 23.406 12.622-.122 1.961c-.736-.367-1.471-.736-1.471-1.348C-1.593 0-.98 0 0 0"/></g><g id="g3223" transform="matrix(.38935 0 0 -.39934 75.95 36.893)"><path id="path3225" class="st1" d="M0 0c4.29 0 6.618-3.676 6.618-8.946 0-9.313-4.289-17.033-10.294-17.033-5.882 0-6.862 5.76-6.862 10.293C-10.538-7.352-6.249 0 0 0m-20.096-14.583c0-10.17 7.597-14.337 16.543-14.337 11.886 0 19.974 8.21 19.974 17.646 0 9.559-6.74 14.216-15.563 14.338-14.95 0-20.954-10.171-20.954-17.647"/></g><g id="g3227" transform="matrix(.38935 0 0 -.39934 92.936 37.138)"><path id="path3229" class="st1" d="M0 0c4.289 0 6.495-3.554 6.495-8.824 0-8.822-4.534-17.646-10.907-17.646-4.165 0-6.616 3.922-6.616 10.294C-11.028-8.333-6.74 0 0 0m-11.519-27.573c2.084-.734 5.76-1.102 7.476-1.102 1.96 0 4.779 0 7.842 1.347 5.392 2.33 10.784 7.598 10.784 15.931 0 2.329-.122 6.251-1.225 11.03-2.697 11.886-6.373 23.405-6.373 36.884 0 13.848 4.779 25.489 12.5 33.455 4.534 4.656 9.925 7.965 15.685 10.293 12.01 4.902 17.278 3.309 17.278 5.393 0 .489-.612.857-1.103.857-9.435 0-24.386-3.308-35.292-10.906C4.045 67.154-1.961 56.982-1.961 42.645c0-14.092 6.863-29.165 11.642-44.606C6.005 2.573.49 2.94-1.961 2.94c-10.048 0-18.504-7.719-18.504-16.665 0-6.618 3.431-11.887 8.946-13.848"/></g><g id="g3231" transform="matrix(.38935 0 0 -.39934 107.679 47.708)"><path id="path3233" class="st1" d="M0 0c-4.165 0-6.617 3.921-6.617 10.294 0 7.843 4.289 16.176 11.029 16.176 4.29 0 6.494-3.554 6.494-8.824C10.906 8.824 6.373 0 0 0m2.451 69.115c0-14.093 6.863-29.166 11.642-44.606-3.676 4.534-9.191 4.901-11.642 4.901-10.049 0-18.504-7.719-18.504-16.665 0-6.618 3.431-11.887 8.946-13.848 2.083-.734 5.76-1.102 7.475-1.102 1.961 0 4.78 0 7.843 1.347 5.392 2.329 10.783 7.598 10.783 15.931 0 2.329-.122 6.25-1.225 11.03-2.696 11.886-6.372 23.405-6.372 36.884 0 13.848 4.779 25.489 12.5 33.455 4.534 4.656 9.925 7.965 15.685 10.293 12.009 4.902 17.278 3.309 17.278 5.392 0 .49-.613.858-1.102.858-9.436 0-24.387-3.309-35.292-10.906C8.456 93.624 2.451 83.452 2.451 69.115"/></g><g id="g3235" transform="matrix(.38935 0 0 -.39934 128.434 36.501)"><path id="path3237" class="st1" d="M0 0c-1.226-2.329-4.167-9.927-6.495-15.196-2.941-6.617-6.25-9.68-8.7-9.68-1.471 0-2.818 1.225-2.818 5.269 0 6.862 5.268 18.626 5.268 19.729 0 .612-.122 1.225-1.225 1.225h-5.392c-.857 0-1.471-.367-1.96-.98-.981-1.226-5.76-9.313-5.76-18.627 0-6.74 3.431-11.028 7.842-11.028 8.456 0 13.235 9.191 14.338 11.273.368-4.166 2.329-11.764 11.151-11.764 1.103 0 4.045.491 4.045 1.716 0 .735-.614.735-.858.735-.368 0-.981-.122-1.716-.122-3.186 0-3.799 3.799-3.799 5.759 0 4.779 1.471 12.01 2.941 16.543C7.72-2.451 8.577-.981 8.577 0c0 .367 0 1.347-1.225 1.347H2.083C1.103 1.347.49.98 0 0"/></g><g id="g3239" transform="matrix(.38935 0 0 -.39934 28.29 58.726)"><path id="path3241" class="st1" d="M0 0c-2.206 0-4.901-1.226-17.891-1.226C-27.204-1.226-30.757 0-32.473 0c-.981 0-2.084-.49-2.084-1.593 0-.491.368-1.225.981-1.594 2.083-1.347 5.514-1.837 11.151-2.205-1.103-6.372-3.308-15.808-4.657-21.445-.244-1.103-.613-2.573-.613-3.309 0-1.225.491-1.715 1.839-1.715h6.127c1.592 0 2.328 1.225 2.941 3.309 1.471 4.901 3.554 17.522 4.657 23.16 3.185.122 7.842.613 10.783 1.716 1.716.612 2.696 1.225 2.696 2.818C1.348-.123.49 0 0 0"/></g><g id="g3243" transform="matrix(.38935 0 0 -.39934 35.828 70.667)"><path id="path3245" class="st1" d="M0 0c-3.431 0-4.656 3.186-4.656 7.598 0 3.676 1.47 8.823 4.534 13.112 2.573 3.676 6.249 6.249 9.191 6.249 3.309 0 4.167-3.431 4.167-6.371 0-3.8-2.452-11.275-5.637-15.564C5.638 2.451 3.187 0 0 0m15.073-1.715c1.839-2.084 5.148-2.942 6.25-2.942 1.103 0 1.961.245 1.961.981 0 .49-.245.736-.858 1.348-1.348 1.347-2.205 3.431-2.205 7.107 0 4.412 2.449 14.583 4.165 19.73.49 1.47.981 2.695.981 3.431 0 .491-.491.735-1.103.735h-5.392c-1.226 0-1.715-.49-2.084-1.103-.489-.858-1.103-2.696-1.347-3.676-.981 3.921-4.044 6.005-7.72 6.005-3.309 0-7.965-.981-10.539-2.329-6.985-3.676-11.274-10.784-11.274-18.259 0-6.495 5.024-12.253 12.377-12.253 6.739 0 11.151 5.636 13.112 9.189.245-3.676 1.839-5.759 3.676-7.964"/></g><g id="g3247" transform="matrix(.38935 0 0 -.39934 54.15 64.843)"><path id="path3249" class="st1" d="M0 0c-1.839-.612-3.799-.858-6.127-.858C-5.024 7.107-.368 12.255 4.289 12.255c1.96 0 3.799-.981 3.799-4.045C8.088 4.779 4.901 1.47 0 0m14.95 7.23c0 5.515-4.779 7.843-10.049 7.843-12.009 0-20.464-8.088-20.464-17.401 0-10.661 7.597-15.195 15.808-15.195 4.779 0 8.945 1.47 11.886 3.921.858.735 1.594 1.471 1.594 2.083 0 .736-.491.98-.981.98-.367 0-1.103-.613-2.695-1.592-1.839-1.103-4.903-1.961-6.985-1.961-6.74 0-9.437 4.779-9.437 10.661C1.592-3.186 14.95-1.103 14.95 7.23"/></g><g id="g3251" transform="matrix(.38935 0 0 -.39934 76.67 67.927)"><path id="path3253" class="st1" d="M0 0c0-5.146 2.696-9.313 7.843-9.313 1.715 0 3.799.49 4.657 1.103.612.367 1.103.981 1.103 1.593 0 .736-.736.858-1.47.858-2.206 0-2.697 3.676-2.697 5.882 0 2.941.858 8.823 1.961 13.358.858 3.431 1.593 6.126 1.593 6.985 0 .734-.245 1.347-.981 1.347H8.088c-.858 0-1.716-.244-2.451-.858-2.819-2.45-6.74-6.985-10.293-11.274-1.103-1.225-3.431-4.043-5.76-7.107.245 1.471.367 3.064.736 5.025.858 5.513 1.96 10.906 1.96 12.867 0 1.225-1.348 1.347-2.573 1.347h-3.921c-2.206 0-4.045-2.695-5.148-4.289-13.97-20.955-32.841-43.993-53.06-43.993-6.985 0-12.255 1.225-18.014 6.985a23.39 23.39 0 0 0-3.921 5.27c-.245.367-.49.858-.981.858-.736 0-.858-.858-.858-1.348 0-.736.491-1.961 1.349-3.309 5.513-8.946 14.459-11.764 22.425-11.764 19.484 0 34.311 15.194 43.625 27.572 6.126 8.21 9.313 13.725 11.519 17.156-1.838-8.333-4.166-18.013-4.166-21.446 0-1.715.857-2.328 2.451-2.328h3.431c1.348 0 2.328 1.349 3.921 3.555C-4.289 4.535-1.347 7.843 2.206 12.255.49 6.741 0 3.309 0 0"/></g><g id="g3255" transform="matrix(.38935 0 0 -.39934 101.815 70.52)"><path id="path3257" class="st1" d="M0 0c0 .368-.122.858-.612.858-.613 0-1.225-.613-2.328-.613s-2.942.858-2.942 5.392c0 1.348.245 6.005 1.103 9.681C-3.309 21.691-.98 25.367-.98 26.592c0 .858-.123 1.593-1.593 1.715h-4.534c-.981 0-1.839-.367-2.328-1.225-3.309-5.391-5.148-13.112-5.148-18.382 0-3.676 1.103-6.739 1.961-7.964 1.839-2.574 4.29-3.431 6.863-3.431C-3.064-2.695 0-1.103 0 0"/></g><g id="g3259" transform="matrix(.38935 0 0 -.39934 87.978 65.48)"><path id="path3261" class="st1" d="M0 0c.981.736 2.696 1.593 5.024 1.593 3.064 0 4.29-3.554 4.29-6.372 0-4.901-4.044-8.701-7.108-8.701-2.941 0-3.921 2.697-3.921 5.637C-1.715-6.004-.735-1.961 0 0m-5.024-13.847c1.716-1.225 5.024-1.715 6.617-1.715 2.084 0 4.167.245 6.128.979 4.166 1.472 9.313 4.658 9.313 10.907 0 2.942-1.838 8.088-9.068 8.088-2.084 0-4.902-.367-7.23-1.594C2.942 9.803 4.902 12.867 4.902 14.46c0 .858-.367 1.103-1.838 1.225h-4.411c-.981 0-1.961-.244-2.818-1.715C-8.21 7.23-9.313-.244-9.313-4.165c0-5.025 2.084-8.212 4.289-9.682"/></g><g id="g3263" transform="matrix(.38935 0 0 -.39934 119.182 70.52)"><path id="path3265" class="st1" d="M0 0c0 .614-.368.858-.981.858-.49 0-1.961-.613-2.818-.613-3.676 0-4.289 3.8-4.289 6.985 0 6.249 4.043 17.034 4.043 19.73 0 .368 0 1.347-1.225 1.347h-5.636c-.981 0-1.717-.367-2.084-1.347-.736-2.329-2.573-11.029-4.901-16.176C-20.955 3.921-23.897.981-26.47.981c-2.206 0-3.309 1.961-3.309 5.514 0 8.945 4.657 19.239 4.657 20.342 0 .491 0 1.47-1.348 1.47h-4.901c-.859 0-1.593-.367-1.962-.734-.98-.491-5.146-6.373-5.146-19.24 0-6.74 4.412-11.273 8.455-11.273 8.455 0 12.377 8.455 13.725 11.273 0-3.676 1.471-11.273 9.558-11.273 1.961 0 4.779.734 6.127 1.837C-.123-.734 0-.367 0 0"/></g><g id="g3267" transform="matrix(.38935 0 0 -.39934 111.381 52.527)"><path id="path3269" class="st1" d="M0 0c-2.201 1.335-4.935.844-6.397-1.566-1.525-2.514-.469-5.735 2.674-7.642 1.362-.826 3.124-1.465 5.287-1.917 3.296-.709 7.209.071 9.188.733 4.734 1.427 8.131 3.953 8.957 5.316.445.733.426 1.174.006 1.429-.418.253-1.091.09-1.85-.453-2.911-1.962-6.176-3.564-9.415-4.18-3.409-.655-5.929-.559-8.548 1.03.358.356 1.035 1.234 1.226 1.549C2.59-3.291 1.675-1.016 0 0"/></g></svg>