<svg xmlns="http://www.w3.org/2000/svg" width="164" height="174" viewBox="0 0 164 174" preserveAspectRatio="none"><path d="M1.79 160.32c-2.053 1.876.267 4.05 2.721 2.75 17.988-9.602 44.747-19.088 75.422-18.953 30.676-.134 57.432 9.35 75.422 18.952 2.453 1.302 4.775-.873 2.72-2.748-14.645-13.651-43.462-27.914-78.142-27.725-34.681-.188-63.498 14.073-78.143 27.725" fill="#935e43"/><path d="M8.039 167.593c-.009-.012-.007-.022-.015-.034a.131.131 0 0 0-.183-.032l-.773.542c-.064.045-.074.132-.046.201l.955 2.628-.029.02c-.058.04-.09.019-.17-.05L5.836 169.1c-.052-.052-.13-.078-.187-.038l-.773.543c-.082.056-.093.118-.052.178a.159.159 0 0 0 .034.039l2.485 2.044c.504.41.7.335.916.184l.087-.061.072.225c.092.29.036.437-.173.584-.192.134-.56.339-.76.46l-.011.009a.142.142 0 0 0-.04.197l.327.49c.044.067.114.045.194.024.178-.053.553-.245.769-.396.854-.6.87-1.1.615-1.88l-1.3-4.11zm7.097.626c-.515.299-.934.113-1.358-.654l-.42-.759c-.423-.766-.364-1.23.15-1.53.515-.299.94-.115 1.364.65l.42.76c.423.766.359 1.234-.156 1.533m.79-2.905c-.819-1.48-1.936-1.582-2.947-.994-.974.566-1.463 1.541-.776 2.93l-.674.391-.939-1.697c-.039-.07-.116-.093-.183-.054l-.822.477c-.067.04-.081.115-.043.185l2.485 4.493c.039.07.114.103.181.064l.821-.477c.068-.04.085-.125.046-.195l-1.02-1.845.674-.391c.818 1.464 1.925 1.563 2.936.975 1.011-.587 1.5-1.622.681-3.102l-.42-.76zm2.954-2.837l1.03-.504c.07-.035.108-.119.074-.192l-.317-.682c-.034-.072-.123-.094-.193-.06l-3.151 1.544a.14.14 0 0 0-.068.188l.317.682a.135.135 0 0 0 .186.063l1.036-.507 1.796 3.854a.14.14 0 0 0 .188.07l.833-.408a.148.148 0 0 0 .065-.195l-1.796-3.853zm6.203-3.726a.134.134 0 0 0-.182-.073l-.852.36a.14.14 0 0 0-.079.184l.726 1.805-1.607.68-.726-1.804a.134.134 0 0 0-.182-.074l-.852.36a.14.14 0 0 0-.078.185l1.921 4.777a.14.14 0 0 0 .185.08l.852-.36a.148.148 0 0 0 .075-.192l-.788-1.96 1.606-.68.79 1.96a.14.14 0 0 0 .184.08l.853-.36a.148.148 0 0 0 .075-.191l-1.921-4.777zm4.133 1.605l-.254-2.057c-.01-.074-.003-.116.057-.137.06-.022.085.008.123.072l1.063 1.762-.99.36zm.824-2.807c-.382-.609-.902-.536-1.36-.37-.458.166-.913.448-.837 1.168l.491 4.65c.005.013.003.03.006.036.024.07.084.094.15.07l.93-.337c.066-.025.1-.099.09-.173l-.153-1.222 1.36-.494.631 1.048c.037.064.11.1.176.076l.929-.338c.067-.023.099-.081.074-.15-.002-.008-.013-.02-.018-.033l-2.469-3.93zm5.024.13c-.707.22-.986.1-1.127-.378l-.027-.091c-.127-.429.132-.724.699-.9.094-.03.448-.125.531-.143l.399 1.349c-.072.03-.4.14-.475.163m.639-2.722c-.325.047-.91.183-1.395.334-1.146.357-1.91 1.032-1.543 2.275l.026.091c.22.745.732 1.084 1.285 1.135l-.433 2.297a.205.205 0 0 0 .002.083c.015.05.052.076.126.054l1.032-.322c.074-.022.08-.101.093-.182l.378-2.058.077-.016c.141-.044.346-.123.474-.163l.526 1.784a.142.142 0 0 0 .177.099l.876-.273a.147.147 0 0 0 .093-.182l-1.391-4.714c-.071-.238-.184-.272-.403-.242m7.867-2.077c-.248.024-.604.051-1.343.232-.883.217-1.618.638-1.314 1.937l.861 3.69a.142.142 0 0 0 .17.108l.891-.218a.147.147 0 0 0 .104-.176l-.862-3.69c-.087-.37.003-.513.325-.592l1.39-.341a.146.146 0 0 0 .104-.176l-.155-.664c-.022-.092-.071-.118-.17-.11m3.176 2.44l.021-2.073c0-.074.013-.115.075-.128.062-.013.083.02.112.089l.82 1.895-1.028.217zm1.19-2.664c-.298-.657-.824-.658-1.3-.558-.476.1-.965.316-.984 1.04l-.13 4.673c.003.015 0 .03 0 .038.015.072.072.105.14.09l.967-.204c.069-.015.112-.083.112-.158l.01-1.231 1.415-.299.485 1.127c.029.068.095.114.165.1l.965-.204c.07-.014.109-.068.095-.14-.002-.007-.012-.02-.014-.034l-1.927-4.24zm4.951 2.879c-.097.017-.46.071-.57.09l-.222-1.352.778-.133c.555-.096.784.169.84.516l.014.08c.067.405-.125.676-.84.799m-1.139-3.374c.097-.024.416-.08.527-.098.715-.123.988.016 1.053.414l.018.108c.05.312-.066.599-.615.694l-.777.133-.206-1.25zm3.119 2.297c-.082-.499-.395-.84-.794-.964.337-.251.486-.693.409-1.164l-.021-.13c-.189-1.15-1.13-1.36-2.442-1.134-.445.076-1 .217-1.23.293-.264.09-.344.209-.29.534l.72 4.397c.054.326.173.402.46.405.278.004.826-.053 1.284-.132 1.201-.206 2.13-.723 1.922-1.996l-.018-.109zm2.902-1.08l.17-2.066c.004-.074.02-.114.083-.122.063-.008.082.026.105.097l.683 1.951-1.04.14zm1.376-2.569c-.25-.677-.773-.717-1.255-.653-.481.065-.984.244-1.055.964l-.463 4.653c.002.014-.003.03-.002.037.01.073.064.11.133.1l.978-.131c.07-.01.118-.076.123-.15l.098-1.227 1.43-.193.405 1.16c.023.07.086.121.156.112l.977-.132c.07-.01.113-.06.104-.132 0-.008-.01-.021-.012-.036l-1.617-4.372zm6.548-1.459l-.918.09a.14.14 0 0 0-.128.152l.182 1.944-1.73.17-.183-1.944a.137.137 0 0 0-.153-.125l-.918.09a.139.139 0 0 0-.127.152l.481 5.144c.008.081.077.14.154.133l.918-.09a.145.145 0 0 0 .127-.16l-.198-2.112 1.731-.17.197 2.113c.009.08.078.14.155.132l.918-.09a.145.145 0 0 0 .127-.16l-.482-5.145a.138.138 0 0 0-.153-.125m3.99 4.215c-.302.02-.303.012-.415.02l-.081-1.355c.106-.007.119-.015.414-.034.907-.057 1.121.1 1.15.575l.003.052c.028.475-.164.686-1.071.742m-.08-2.398c-.155.01-.316.028-.477.045l-.116-1.955a.144.144 0 0 0-.15-.138l-.914.057a.145.145 0 0 0-.131.155l.286 4.797c.02.33.13.418.415.452.277.034.827.036 1.291.007 1.217-.076 2.194-.483 2.113-1.837l-.002-.052c-.081-1.355-1.098-1.607-2.314-1.53m8.435 2.073c-.098.002-.464 0-.577 0l-.018-1.371.789-.011c.563-.008.75.29.754.642l.001.08c.006.412-.224.65-.948.66m-.623-3.514c.098-.009.422-.013.535-.015.724-.01.973.17.978.574l.002.11c.004.316-.154.582-.71.59l-.789.01-.016-1.27zm2.098 1.681c.37-.196.584-.61.577-1.087l-.002-.132c-.014-1.167-.913-1.521-2.243-1.503-.45.006-1.02.058-1.259.098-.273.048-.37.152-.367.482l.058 4.461c.004.331.111.425.393.472.276.048.825.077 1.29.07 1.217-.016 2.211-.383 2.195-1.674l-.002-.11c-.006-.506-.264-.892-.64-1.077m9.638-2.464l-.662-.025c-.148-.006-.25.064-.317.186l-1.153 2.048c-.03.057-.053.093-.081.092-.028 0-.048-.038-.074-.098l-1-2.13c-.06-.127-.155-.204-.302-.21l-.662-.026c-.148-.005-.257.086-.262.24l-.188 5.095c-.003.08.06.104.116.107l.93.035c.062.002.114-.062.117-.142l.112-3.057c.002-.05.023-.058.038-.057.02 0 .034.016.054.054l.59 1.233c.045.09.114.13.206.133l.563.021a.225.225 0 0 0 .215-.116l.678-1.185c.023-.036.037-.05.058-.05.014 0 .035.009.033.06l-.112 3.057c-.003.08.044.148.107.15l.93.036c.056.003.12-.017.123-.098l.187-5.087c.005-.154-.097-.26-.244-.266m4.892 2.625l-.062.87c-.063.878-.37 1.23-.96 1.185-.59-.044-.837-.437-.774-1.315l.062-.871c.063-.877.363-1.23.953-1.186.59.045.844.44.781 1.317m-.702-2.414c-1.159-.087-2.126.494-2.247 2.192l-.063.87c-.121 1.697.752 2.417 1.911 2.505 1.159.087 2.125-.494 2.247-2.191l.062-.87c.122-1.698-.752-2.419-1.91-2.506m6.385 2.384l-.007.066c-.052.496-.35.706-.973.637-.077-.009-.49-.062-.565-.078l.155-1.487c.085.002.471.03.57.04.587.066.874.304.82.822m-.726-1.858a9.895 9.895 0 0 0-1.431-.063c-.22.012-.326.067-.352.315l-.514 4.9a.14.14 0 0 0 .126.155l.903.1a.143.143 0 0 0 .155-.13l.186-1.772c.174.026.397.066.565.084 1.043.116 2.128-.17 2.271-1.533l.008-.066c.143-1.37-.86-1.873-1.917-1.99m6.815.988c-.239-.071-.579-.18-1.332-.289-.9-.13-1.733-.013-1.914 1.309l-.332 2.41c-.181 1.323.58 1.678 1.48 1.808.753.108 1.116.102 1.366.1.1 0 .147-.037.16-.132l.093-.675a.146.146 0 0 0-.12-.166l-1.415-.204c-.328-.047-.43-.18-.378-.559l.105-.769 1.806.26a.144.144 0 0 0 .16-.125l.094-.69a.146.146 0 0 0-.12-.165l-1.805-.26.09-.662c.053-.378.187-.477.515-.429l1.415.204a.144.144 0 0 0 .16-.125l.092-.675c.013-.094-.024-.137-.12-.166m6.993 2.948l-.012.066c-.092.49-.407.674-1.022.552a15.59 15.59 0 0 1-.557-.125l.276-1.47c.084.01.467.07.564.09.58.114.847.376.751.887m-.572-1.913a9.987 9.987 0 0 0-1.422-.184c-.22-.006-.33.04-.376.284l-.91 4.841a.14.14 0 0 0 .113.164l.892.176a.143.143 0 0 0 .165-.116l.33-1.75c.17.04.39.099.555.132 1.03.203 2.135.01 2.388-1.336l.012-.066c.255-1.354-.704-1.939-1.747-2.145m6.909 1.593l-.913-.214c-.075-.018-.145.033-.174.102l-1.232 2.503-.035-.008c-.068-.017-.074-.056-.079-.162l-.054-2.662c.002-.075-.031-.15-.1-.167l-.913-.214c-.096-.023-.147.01-.162.082a.143.143 0 0 0-.005.051l.224 3.26c.047.658.235.755.49.815l.102.024-.111.207c-.147.267-.29.324-.536.265-.227-.053-.622-.19-.845-.258l-.014-.004a.137.137 0 0 0-.168.104l-.13.58c-.017.078.046.116.116.162.158.098.55.25.804.31 1.009.236 1.379-.09 1.765-.813l2.057-3.769c.003-.014.011-.02.015-.034a.137.137 0 0 0-.102-.16m5.655 1.61c.011-.042-.013-.088-.088-.108l-1.04-.288c-.075-.02-.123-.004-.172.044l-2.104 1.888.595-2.253a.14.14 0 0 0-.1-.172l-.89-.246a.136.136 0 0 0-.172.097l-1.317 4.987a.146.146 0 0 0 .098.179l.89.246a.142.142 0 0 0 .174-.104l.606-2.295.763 2.72c.02.066.042.118.124.14l1.169.324c.06.017.102-.002.113-.045a.14.14 0 0 0-.006-.085l-.953-2.993 2.25-1.946a.221.221 0 0 0 .06-.09m3.222 3.334l-.255.834c-.257.84-.635 1.11-1.2.928-.564-.182-.717-.623-.46-1.463l.256-.834c.258-.84.63-1.112 1.194-.93.564.181.723.625.465 1.465m-.144-2.516c-1.108-.357-2.179-.018-2.677 1.607l-.256.833c-.497 1.624.191 2.531 1.3 2.888 1.108.357 2.18.018 2.677-1.607l.256-.833c.498-1.624-.191-2.53-1.3-2.888m5.464 3.132l-.466 3.303-1.454-.55 1.742-2.82c.038-.064.07-.091.13-.069.06.023.06.062.048.136m1.107 3.898l-.423-.16.435-3.674c.085-.719-.36-1.004-.816-1.177-.456-.172-.982-.255-1.371.349l-1.995 3.084-.403-.153a.141.141 0 0 0-.182.088l-.571 1.59c-.028.075.01.16.083.188l.865.327a.141.141 0 0 0 .181-.088l.25-.695 2.578.975-.25.695a.147.147 0 0 0 .083.188l.865.328a.142.142 0 0 0 .182-.088l.571-1.59a.147.147 0 0 0-.082-.187m3.198-.987l.255-.614c.146-.35.301-.41.605-.277l1.315.573a.142.142 0 0 0 .186-.078l.26-.628c.037-.087.012-.138-.073-.19-.213-.134-.514-.33-1.214-.635-.835-.364-1.67-.474-2.18.754l-.93 2.24c-.51 1.229.136 1.774.972 2.139.7.305 1.052.395 1.293.46.096.027.152.004.188-.085l.26-.627a.148.148 0 0 0-.073-.192l-1.315-.574c-.305-.133-.37-.289-.224-.64l.297-.715 1.677.733a.141.141 0 0 0 .187-.079l.265-.64a.148.148 0 0 0-.073-.192l-1.677-.733zm6.172.418c-.436-.219-.951-.355-1.399.205l-2.891 3.614c-.006.013-.019.023-.022.03-.032.065-.006.127.057.159l.886.444c.063.032.138.004.183-.055l2.604-3.407c.044-.059.079-.082.136-.054.057.028.054.068.035.14l-1.024 4.2c-.018.072.007.15.07.182l.886.444c.063.032.126.014.157-.051.004-.007.004-.024.01-.037l1.007-4.559c.157-.706-.258-1.036-.695-1.255m6.748 3.802l-.618-.362c-.123-.072-.22-.044-.367.047l-2.912 1.777c-.046.024-.06.033-.077.022-.013-.007-.024-.03.001-.075l1.502-2.697a.141.141 0 0 0-.055-.192l-.72-.423a.135.135 0 0 0-.19.05l-2.437 4.372a.286.286 0 0 0 .103.383l.6.35c.128.076.234.104.428-.01l2.793-1.695c.045-.024.064-.03.083-.02.018.012.023.031.002.07l-1.438 2.582c-.04.07-.016.16.05.199l.722.422a.14.14 0 0 0 .194-.055l2.432-4.367a.28.28 0 0 0-.097-.378m2.876 4.807c-.068-.038-.358-.23-.422-.275-.612-.425-.696-.722-.423-1.136l.052-.078c.244-.37.63-.35 1.12-.011.082.057.377.28.443.334l-.77 1.166zm2.04-1.48a11.07 11.07 0 0 0-1.131-.901c-.992-.688-1.984-.871-2.694.204l-.052.08c-.425.643-.359 1.265-.05 1.736l-2.01 1.103a.19.19 0 0 0-.062.054c-.028.042-.025.09.039.134l.892.619c.064.045.128 0 .197-.04l1.796-.996.06.05c.122.085.31.199.422.275l-1.019 1.544a.148.148 0 0 0 .036.203l.758.526a.141.141 0 0 0 .197-.041l2.69-4.077c.137-.207.091-.318-.069-.473" fill="#73a33c"/><path d="M50.75 91.404c-2.243.554-4.536 2.13-6.244 4.522-1.708 2.393-2.48 5.11-2.318 7.471.04.581.516.939 1.068.802 2.244-.554 4.535-2.13 6.244-4.523 1.708-2.393 2.48-5.11 2.318-7.47-.04-.581-.516-.939-1.068-.802m16.955 5.593c-2.02 1.144-3.823 3.285-4.853 6.057-1.03 2.771-1.072 5.6-.306 7.834.188.549.74.764 1.237.483 2.02-1.145 3.823-3.286 4.853-6.057 1.03-2.772 1.072-5.601.306-7.834-.188-.55-.74-.765-1.237-.483m17.268 1.676c-1.838 1.432-3.32 3.818-3.948 6.713-.628 2.895-.271 5.7.801 7.797.264.516.84.647 1.292.294 1.838-1.431 3.32-3.818 3.948-6.713.628-2.895.271-5.701-.8-7.797-.265-.515-.841-.647-1.293-.294M41.798 81.89c-2.247-.54-4.985-.19-7.56 1.16-2.575 1.349-4.456 3.42-5.347 5.602-.22.538.05 1.077.602 1.21 2.247.54 4.985.19 7.56-1.16 2.575-1.349 4.456-3.419 5.347-5.602.22-.538-.05-1.077-.602-1.21m84.548 16.138c-.549-.15-1.033.197-1.086.777-.215 2.356.495 5.09 2.148 7.524 1.654 2.433 3.91 4.062 6.14 4.67.549.15 1.033-.197 1.086-.776.215-2.357-.495-5.091-2.148-7.524-1.654-2.433-3.91-4.063-6.14-4.67m34.707-15.239c-.696-2.103-2.304-4.063-4.586-5.295-2.282-1.233-4.767-1.483-6.852-.88a.928.928 0 0 0-.617 1.2c.696 2.104 2.304 4.064 4.586 5.296 2.282 1.233 4.767 1.483 6.852.881a.928.928 0 0 0 .617-1.201m-5.509-38.166c.19-.549-.106-1.072-.665-1.174-2.273-.413-4.988.089-7.488 1.58-2.5 1.49-4.267 3.663-5.04 5.892-.191.55.105 1.073.665 1.175 2.272.413 4.987-.09 7.487-1.58s4.267-3.663 5.041-5.893m-20.516-13.238c2.253.512 4.986.13 7.546-1.25 2.56-1.38 4.416-3.473 5.282-5.667.213-.54-.061-1.075-.616-1.202-2.253-.512-4.986-.13-7.546 1.25-2.56 1.38-4.416 3.473-5.282 5.667-.213.54.061 1.076.616 1.202m-24.241 68.287c-.468-.329-1.037-.169-1.276.36-.972 2.146-1.195 4.967-.43 7.827.765 2.86 2.359 5.17 4.263 6.508.468.33 1.037.17 1.276-.36.972-2.146 1.194-4.966.43-7.827-.765-2.86-2.359-5.17-4.263-6.508M35.329 41.887c-1.742-1.552-4.323-2.553-7.214-2.592-2.892-.038-5.497.893-7.278 2.399-.438.37-.446.976-.017 1.357 1.742 1.553 4.323 2.553 7.214 2.592 2.892.038 5.497-.893 7.278-2.398.438-.371.446-.976.017-1.358m.226-13.057c2.433 1.604 5.123 2.229 7.412 1.92.562-.076.881-.585.715-1.143-.676-2.262-2.348-4.513-4.78-6.117-2.433-1.603-5.123-2.229-7.412-1.92-.563.076-.881.585-.715 1.142.676 2.264 2.348 4.514 4.78 6.118m37.903-7.33c-2.296.243-4.772 1.49-6.776 3.628-2.004 2.138-3.122 4.725-3.269 7.087-.036.581.39 1 .954.94 2.296-.242 4.772-1.49 6.776-3.628 2.005-2.137 3.123-4.724 3.27-7.086.036-.582-.39-1.001-.955-.942M50.486 44.728c-1.755 1.087-3.116 2.96-3.606 5.278-.49 2.317-.01 4.6 1.149 6.336a.957.957 0 0 0 1.294.288c1.755-1.087 3.115-2.96 3.605-5.278.49-2.318.01-4.6-1.148-6.337a.958.958 0 0 0-1.294-.287M86.7 14.77c.488.298 1.046.1 1.252-.442.836-2.206.883-5.035-.058-7.84-.94-2.804-2.675-5.005-4.658-6.216-.488-.298-1.046-.1-1.252.442-.836 2.206-.883 5.035.058 7.84.94 2.804 2.675 5.005 4.658 6.216m-6.163 5.236c-.564-.071-.997.34-.972.921.1 2.365 1.168 4.974 3.13 7.153 1.962 2.178 4.414 3.476 6.704 3.766.563.072.997-.34.972-.921-.1-2.365-1.168-4.974-3.13-7.152-1.962-2.18-4.414-3.477-6.704-3.767m23.293-6.258c-1.817.85-3.435 2.55-4.352 4.822-.918 2.272-.946 4.647-.247 6.566.172.472.67.684 1.118.475 1.817-.85 3.435-2.55 4.352-4.822.918-2.272.946-4.647.247-6.566-.172-.472-.67-.684-1.117-.475M62.516.53c-.24-.529-.809-.688-1.277-.358-1.901 1.341-3.492 3.653-4.253 6.514-.761 2.861-.534 5.681.44 7.827.24.528.81.687 1.277.357 1.902-1.341 3.493-3.652 4.253-6.514.762-2.861.535-5.681-.44-7.827m56.432 13.051c1.974 1.226 4.683 1.761 7.539 1.295 2.856-.467 5.268-1.84 6.773-3.634.37-.442.278-1.04-.208-1.341-1.975-1.225-4.684-1.76-7.54-1.294-2.855.467-5.267 1.84-6.772 3.634-.37.441-.278 1.04.208 1.34m20.077 43.826c-2.166-.819-4.925-.817-7.642.198-2.717 1.014-4.832 2.832-5.977 4.886-.282.506-.08 1.075.453 1.276 2.165.818 4.924.817 7.641-.197 2.717-1.015 4.832-2.833 5.977-4.887.282-.506.08-1.075-.452-1.276M129.016 21.8c.152-.56-.18-1.06-.745-1.121-2.295-.247-4.968.451-7.359 2.12-2.39 1.67-4.003 3.966-4.62 6.247-.152.56.18 1.061.745 1.122 2.295.246 4.97-.452 7.359-2.122 2.39-1.669 4.003-3.965 4.62-6.245" fill="#8fc04b"/><path d="M137.907 43.916c1.244 0 2.253-1.035 2.253-2.311s-1.009-2.31-2.253-2.31c-1.244 0-2.252 1.034-2.252 2.31s1.008 2.31 2.252 2.31M61.85 92.488c-2.291 0-2.673-2.3-2.673-4.111 0-3.328 1.67-6.264 4.103-6.264 1.67 0 2.577 1.468 2.577 3.572 0 3.72-1.67 6.803-4.008 6.803m1.765-11.598c-5.82 0-8.158 4.061-8.158 7.046 0 4.062 2.957 5.726 6.44 5.726 4.629 0 7.778-3.279 7.778-7.047 0-3.817-2.625-5.677-6.06-5.725m19.658 10.472c0-.245-.095-.343-.334-.343-.239 0-.573.294-1.192.636-.716.392-1.623.685-2.53.685-1.67 0-3.148-1.125-3.148-4.11 0-3.23 1.86-5.774 4.103-5.774 1.765 0 2.004 1.321 2.576 1.321.239 0 .334-.098.334-.392 0-.734-1.002-2.25-3.53-2.25-4.151 0-7.253 3.18-7.253 6.655 0 2.74 1.24 4.306 2.815 5.089a6.606 6.606 0 0 0 3.102.734c2.385 0 3.482-.685 4.341-1.273.334-.244.716-.733.716-.978m4.104 1.37c0 .49.19.685.715.685h2.386c.62 0 .907-.49 1.145-1.321.573-1.958 1.384-6.998 1.813-9.249 1.24-.049 3.053-.245 4.199-.685.668-.245 1.05-.49 1.05-1.126 0-.293-.335-.342-.525-.342-.86 0-1.909.49-6.967.49-3.626 0-5.01-.49-5.677-.49-.382 0-.812.195-.812.636 0 .196.144.489.382.636.811.538 2.148.734 4.343.881-.43 2.545-1.289 6.313-1.814 8.564-.095.44-.238 1.027-.238 1.321m19.991-.392c-1.05 0-1.956-.537-2.72-1.565.43-2.545.716-5.04.86-6.509.858-1.517 1.955-2.104 3.148-2.104 1.288 0 2.385 1.37 2.385 4.16 0 2.446-1.144 6.018-3.673 6.018m2.624-11.45c-1.909 0-3.388.636-4.485 1.86-.048-.931-.143-1.567-.954-1.567h-1.146c-.667 0-1.097.294-1.192.783-.143.93-.334 3.915-1.288 9.347-.716 4.11-2.1 11.011-4.2 16.492-2.003 5.235-5.677 12.674-12.261 18.35-1.193 1.028-3.34 2.496-4.724 3.083-.334.147-.524.392-.524.588 0 .146.095.293.381.293.907 0 2.052-.685 3.77-1.713 8.588-5.187 14.504-15.659 16.078-19.77 3.197-8.27 4.056-11.99 4.963-16.54.906 1.125 2.528 1.517 3.96 1.517 2.242 0 6.632-2.007 6.632-6.9 0-3.23-2.1-5.824-5.01-5.824m13.885 11.599c-2.29 0-2.672-2.3-2.672-4.111 0-3.328 1.67-6.264 4.103-6.264 1.67 0 2.577 1.468 2.577 3.572 0 3.72-1.67 6.803-4.008 6.803m1.765-11.598c-5.82 0-8.159 4.061-8.159 7.046 0 4.062 2.958 5.726 6.441 5.726 4.628 0 7.777-3.279 7.777-7.047 0-3.817-2.624-5.677-6.059-5.725" fill="#73a33c"/><path d="M142.58 82.358c1.24 0 2.146 1.027 2.146 3.523 0 2.398-1.574 6.851-4.342 6.851-1.43 0-2.242-1.468-2.242-3.132 0-3.817 1.956-7.242 4.437-7.242m6.441-18.01c2.386-2.935 6.441-6.508 9.495-6.508 2.243 0 3.245 1.322 3.245 3.035 0 6.606-9.925 11.353-18.417 11.89 1.622-3.18 3.483-5.725 5.677-8.416M163 60.776c0-2.152-1.336-4.06-4.008-4.06-8.063 0-15.698 9.395-19.228 15.757-7.014-.343-11.785-2.203-16.508-4.796-2.386-1.321-4.008-2.888-4.295-2.888-.238 0-.381 0-.381.294 0 .196.19.44.43.685 2.194 2.35 10.114 7.145 20.134 7.83-2.242 3.768-4.103 9.885-4.103 13.36 0 4.453 2.242 6.851 5.343 6.851 4.103 0 7.777-3.23 7.777-7.781 0-4.013-2.767-5.04-3.912-5.04-1.813 0-3.388.39-4.819 1.86 1.05-4.014 2.242-6.754 3.388-8.907C151.024 73.647 163 68.802 163 60.776M32.22 54.758c1.766 0 5.344-2.3 7.062-3.621 7.205-5.677 10.735-12.38 13.264-16.296 2.195 7.39 4.294 14.925 9.83 14.925 1.621 0 2.623-.39 3.386-1.222.19-.196.43-.539.43-.881 0-.196-.095-.294-.24-.294-.094 0-.237.049-.38.196-.573.587-1.146.734-1.814.734-.763 0-1.86-.245-3.1-2.055-1.814-2.643-3.436-8.32-4.63-15.465 1.862-3.816 6.633-10.325 8.733-12.82 3.1-3.671 5.248-5.237 6.154-5.873 1.098-.783 1.718-1.223 1.718-1.517 0-.245-.19-.294-.43-.294-.286 0-1.05.294-1.43.49-6.156 3.18-11.834 11.01-15.46 17.225-.477-1.761-1.001-3.817-2.003-7.389-1.67-6.02-5.01-8.418-8.589-8.418-1.67 0-3.149.539-4.15 1.616-.096.098-.192.391-.192.489 0 .245.143.343.334.343.143 0 .334-.196.477-.294.764-.538 1.48-.734 2.29-.734 1.05 0 1.67.244 2.577 1.077 1.956 1.859 3.674 6.85 5.726 17.079-2.243 4.354-10.45 17.959-19.61 22.216-.287.147-.573.294-.573.538 0 .245.239.245.62.245m43.73-17.865c1.67 0 2.577 1.468 2.577 3.573 0 3.719-1.67 6.802-4.008 6.802-2.29 0-2.672-2.3-2.672-4.11 0-3.329 1.67-6.265 4.103-6.265m-7.824 5.824c0 4.061 2.958 5.725 6.44 5.725 4.629 0 7.778-3.278 7.778-7.047 0-3.817-2.625-5.677-6.06-5.725-5.82 0-8.158 4.061-8.158 7.047m24.81-5.579c1.67 0 2.529 1.42 2.529 3.524 0 3.523-1.766 7.046-4.247 7.046-1.622 0-2.576-1.566-2.576-4.11 0-3.132 1.67-6.46 4.294-6.46m-4.485 11.01c.811.294 2.242.44 2.91.44.764 0 1.861 0 3.054-.537 2.1-.93 4.199-3.034 4.199-6.362 0-.93-.048-2.496-.477-4.405-1.05-4.746-2.482-9.346-2.482-14.729 0-5.53 1.861-10.179 4.867-13.36 1.766-1.86 3.865-3.18 6.107-4.11 4.676-1.958 6.728-1.322 6.728-2.154 0-.195-.239-.342-.43-.342-3.673 0-9.495 1.32-13.74 4.355-4.676 3.377-7.015 7.439-7.015 13.164 0 5.627 2.672 11.647 4.533 17.813-1.431-1.81-3.578-1.957-4.533-1.957-3.912 0-7.204 3.082-7.204 6.655 0 2.643 1.336 4.747 3.483 5.53" fill="#73a33c"/><path d="M107.679 47.708c-1.622 0-2.577-1.565-2.577-4.11 0-3.133 1.67-6.46 4.295-6.46 1.67 0 2.528 1.419 2.528 3.524 0 3.523-1.765 7.046-4.246 7.046m.954-27.6c0 5.628 2.672 11.647 4.533 17.813-1.431-1.81-3.579-1.957-4.533-1.957-3.912 0-7.204 3.082-7.204 6.655 0 2.643 1.335 4.747 3.483 5.53.81.293 2.242.44 2.91.44.764 0 1.861 0 3.054-.538 2.1-.93 4.198-3.034 4.198-6.362 0-.93-.047-2.496-.477-4.405-1.05-4.746-2.48-9.346-2.48-14.729 0-5.53 1.86-10.179 4.866-13.36 1.766-1.86 3.865-3.18 6.107-4.11 4.676-1.958 6.727-1.322 6.727-2.154 0-.195-.238-.342-.429-.342-3.674 0-9.495 1.321-13.74 4.355-4.677 3.376-7.015 7.439-7.015 13.164m19.801 16.393c-.478.93-1.623 3.965-2.53 6.069-1.144 2.642-2.433 3.865-3.387 3.865-.572 0-1.097-.489-1.097-2.104 0-2.74 2.051-7.438 2.051-7.878 0-.245-.047-.49-.477-.49h-2.1c-.333 0-.572.147-.762.392-.382.49-2.243 3.719-2.243 7.438 0 2.692 1.336 4.404 3.053 4.404 3.293 0 5.153-3.67 5.583-4.501.143 1.663.907 4.697 4.342 4.697.43 0 1.575-.196 1.575-.685 0-.293-.24-.293-.335-.293-.143 0-.381.048-.668.048-1.24 0-1.479-1.517-1.479-2.3 0-1.908.573-4.796 1.145-6.606.334-1.077.668-1.664.668-2.056 0-.146 0-.537-.477-.537h-2.051c-.382 0-.62.146-.811.537M28.29 58.726c-.859 0-1.908.49-6.966.49-3.626 0-5.01-.49-5.678-.49-.382 0-.811.196-.811.636 0 .196.143.49.382.637.811.538 2.147.734 4.342.88-.43 2.545-1.288 6.313-1.814 8.564-.095.44-.238 1.028-.238 1.322 0 .489.19.685.716.685h2.385c.62 0 .907-.49 1.145-1.322.573-1.957 1.384-6.997 1.814-9.249 1.24-.048 3.053-.244 4.198-.685.668-.244 1.05-.489 1.05-1.125 0-.294-.334-.343-.525-.343m7.538 11.941c-1.335 0-1.812-1.272-1.812-3.034 0-1.468.572-3.524 1.765-5.236 1.002-1.468 2.433-2.496 3.578-2.496 1.289 0 1.623 1.37 1.623 2.544 0 1.518-.955 4.503-2.195 6.216-.763 1.027-1.718 2.006-2.959 2.006m5.87.685c.715.832 2.003 1.175 2.433 1.175.429 0 .763-.098.763-.392 0-.196-.095-.294-.334-.538-.525-.538-.859-1.37-.859-2.839 0-1.761.954-5.823 1.622-7.879.19-.587.382-1.076.382-1.37 0-.196-.191-.293-.43-.293h-2.099c-.477 0-.667.195-.811.44-.19.343-.43 1.077-.525 1.468-.382-1.566-1.574-2.398-3.005-2.398-1.289 0-3.102.392-4.104.93-2.72 1.468-4.39 4.307-4.39 7.292 0 2.594 1.957 4.893 4.82 4.893 2.623 0 4.341-2.25 5.105-3.67.095 1.468.716 2.3 1.431 3.18m12.453-6.508c-.716.245-1.479.343-2.385.343.43-3.18 2.242-5.236 4.055-5.236.763 0 1.48.391 1.48 1.615 0 1.37-1.241 2.691-3.15 3.278m5.821-2.887c0-2.202-1.86-3.132-3.912-3.132-4.676 0-7.968 3.23-7.968 6.95 0 4.256 2.958 6.067 6.155 6.067 1.86 0 3.483-.587 4.628-1.566.334-.293.62-.587.62-.832 0-.293-.19-.39-.382-.39-.143 0-.43.244-1.049.635-.716.44-1.909.783-2.72.783-2.624 0-3.674-1.908-3.674-4.257 3.101-.098 8.302-.93 8.302-4.258" fill="#73a33c"/><path d="M76.67 67.927c0 2.055 1.05 3.719 3.054 3.719.668 0 1.48-.196 1.813-.44.239-.147.43-.393.43-.637 0-.294-.287-.343-.573-.343-.858 0-1.05-1.468-1.05-2.348 0-1.175.334-3.524.764-5.335.334-1.37.62-2.446.62-2.79 0-.292-.095-.537-.382-.537H79.82c-.334 0-.668.097-.954.342-1.097.979-2.624 2.79-4.007 4.503-.43.489-1.336 1.614-2.243 2.838.095-.588.143-1.224.286-2.007.335-2.201.764-4.355.764-5.138 0-.49-.525-.538-1.002-.538h-1.527c-.859 0-1.575 1.076-2.004 1.713-5.44 8.368-12.787 17.568-20.66 17.568-2.719 0-4.77-.49-7.013-2.79a9.33 9.33 0 0 1-1.527-2.104c-.095-.147-.19-.343-.382-.343-.286 0-.334.343-.334.539 0 .293.191.783.525 1.321 2.147 3.572 5.63 4.698 8.732 4.698 7.586 0 13.359-6.068 16.985-11.01 2.385-3.28 3.626-5.482 4.485-6.852-.715 3.328-1.622 7.193-1.622 8.564 0 .685.334.93.954.93h1.336c.525 0 .907-.539 1.527-1.42 2.862-3.914 4.008-5.235 5.391-6.997-.668 2.202-.859 3.572-.859 4.894m25.144 2.593c0-.147-.047-.342-.238-.342-.239 0-.477.244-.907.244-.43 0-1.145-.342-1.145-2.153 0-.538.095-2.398.43-3.866.572-2.545 1.478-4.013 1.478-4.502 0-.343-.047-.636-.62-.685h-1.765c-.382 0-.716.147-.907.49-1.288 2.152-2.004 5.235-2.004 7.34 0 1.468.43 2.691.764 3.18.716 1.028 1.67 1.37 2.672 1.37 1.049 0 2.242-.635 2.242-1.076m-13.837-5.04a3.209 3.209 0 0 1 1.956-.636c1.193 0 1.67 1.419 1.67 2.544 0 1.957-1.574 3.475-2.767 3.475-1.145 0-1.526-1.077-1.526-2.251 0-.735.381-2.35.667-3.132m-1.956 5.53c.668.489 1.956.684 2.577.684.811 0 1.622-.098 2.386-.39 1.622-.588 3.626-1.86 3.626-4.356 0-1.175-.716-3.23-3.531-3.23-.811 0-1.909.146-2.815.636.859-2.789 1.622-4.013 1.622-4.649 0-.342-.143-.44-.716-.489h-1.717c-.382 0-.764.098-1.097.685-1.575 2.692-2.005 5.676-2.005 7.242 0 2.007.812 3.28 1.67 3.866m33.16-.489c0-.245-.143-.342-.382-.342-.19 0-.763.244-1.097.244-1.431 0-1.67-1.517-1.67-2.79 0-2.495 1.574-6.801 1.574-7.878 0-.147 0-.538-.477-.538h-2.194c-.382 0-.669.147-.811.538-.287.93-1.002 4.404-1.909 6.46-1.193 2.74-2.338 3.914-3.34 3.914-.859 0-1.288-.783-1.288-2.202 0-3.572 1.813-7.682 1.813-8.123 0-.196 0-.587-.525-.587h-1.908c-.335 0-.62.147-.764.293-.382.196-2.004 2.545-2.004 7.683 0 2.692 1.718 4.502 3.292 4.502 3.292 0 4.82-3.376 5.344-4.502 0 1.468.573 4.502 3.722 4.502.763 0 1.86-.293 2.385-.733.191-.148.24-.294.24-.44m-7.802-17.994c-.857-.533-1.921-.337-2.49.626-.594 1.004-.183 2.29 1.04 3.051.53.33 1.217.585 2.059.766 1.283.283 2.807-.028 3.577-.293 1.844-.57 3.166-1.578 3.488-2.123.173-.292.166-.469.002-.57-.163-.101-.425-.036-.72.18-1.134.784-2.405 1.424-3.666 1.67-1.327.261-2.308.223-3.328-.412.14-.142.403-.492.477-.618.57-.963.213-1.871-.439-2.277" fill="#73a33c"/></svg>